<svg width="144" height="115" viewBox="0 0 144 115" fill="none" xmlns="http://www.w3.org/2000/svg">
<mask id="mask0_11_38978" style="mask-type:alpha" maskUnits="userSpaceOnUse" x="37" y="0" width="70" height="71">
<circle cx="72.0005" cy="35.3555" r="34.9341" fill="#D9D9D9"/>
</mask>
<g mask="url(#mask0_11_38978)">
<circle cx="72.0005" cy="35.3555" r="34.9341" fill="#81FFC3"/>
<path d="M94.3877 66.8271C97.1359 66.8272 99.3633 69.0555 99.3633 71.8037V78.4932H89.4111V71.8037C89.4111 69.0555 91.6395 66.8271 94.3877 66.8271Z" fill="#258FA6" stroke="black" stroke-width="1.1666"/>
<rect x="46.139" y="60.8738" width="49.3189" height="17.2074" rx="3.20816" fill="#258FA6" stroke="black" stroke-width="1.1666"/>
<path d="M60.2803 63.4985H94.8388V74.8729C94.8388 76.3226 93.6636 77.4978 92.2139 77.4978H64.0717C61.9778 77.4978 60.2803 75.8003 60.2803 73.7063V63.4985Z" fill="#31B8D6"/>
<rect x="50.9639" y="60.2905" width="42.0713" height="18.374" rx="3.79147" fill="black"/>
<rect x="51.5472" y="60.8738" width="39.7026" height="17.2074" rx="3.20816" fill="#258FA6" stroke="black" stroke-width="1.1666"/>
<path d="M56.0732 63.4985H90.6318V74.8729C90.6318 76.3226 89.4566 77.4978 88.0069 77.4978H59.8647C57.7707 77.4978 56.0732 75.8003 56.0732 73.7063V63.4985Z" fill="#31B8D6"/>
<rect x="51.5472" y="60.8738" width="34.594" height="17.2074" rx="3.20816" fill="#258FA6" stroke="black" stroke-width="1.1666"/>
<path d="M50.9639 63.4985H85.5224V74.8729C85.5224 76.3226 84.3472 77.4978 82.8975 77.4978H54.7553C52.6614 77.4978 50.9639 75.8003 50.9639 73.7063V63.4985Z" fill="#31B8D6"/>
<rect x="46.139" y="60.8738" width="22.5736" height="17.2074" rx="3.20816" fill="#258FA6" stroke="black" stroke-width="1.1666"/>
<path d="M56.0732 63.4985H68.0936V74.8729C68.0936 76.3226 66.9184 77.4978 65.4687 77.4978H59.8647C57.7707 77.4978 56.0732 75.8003 56.0732 73.7063V63.4985Z" fill="#31B8D6"/>
<rect x="46.139" y="60.8738" width="14.1594" height="17.2074" rx="3.20816" fill="#258FA6" stroke="black" stroke-width="1.1666"/>
<rect x="46.139" y="60.8738" width="14.1594" height="17.2074" rx="3.20816" fill="#258FA6" stroke="black" stroke-width="1.1666"/>
<rect x="45.5557" y="64.082" width="11.4193" height="11.666" rx="5.70967" fill="black"/>
<path d="M50.0625 66.2437C53.0595 66.2437 55.49 68.6734 55.4902 71.6704V78.4937H44.6357V71.6704C44.636 68.6736 47.0656 66.2439 50.0625 66.2437Z" fill="#258FA6" stroke="black" stroke-width="1.1666"/>
<path d="M82.0283 70.7173C82.0283 71.1697 81.8688 71.6051 81.582 71.9507L81.4521 72.0923C81.0838 72.4561 80.5851 72.6597 80.0664 72.6597C79.6125 72.6597 79.1744 72.5039 78.8252 72.2212L78.6807 72.0923C78.3125 71.7284 78.1046 71.234 78.1045 70.7173C78.1045 70.2004 78.3123 69.7053 78.6807 69.3413L78.8252 69.2124C79.1744 68.9298 79.6126 68.7739 80.0664 68.7739C80.1516 68.7739 80.2356 68.7801 80.3184 68.7905V67.2739L76.7139 68.0317V71.5923C76.7138 72.0445 76.5552 72.4801 76.2686 72.8257L76.1377 72.9673C75.7694 73.3311 75.2707 73.5347 74.752 73.5347C74.2981 73.5346 73.86 73.3789 73.5107 73.0962L73.3662 72.9673C72.9981 72.6034 72.7901 72.1089 72.79 71.5923C72.79 71.0754 72.9979 70.5803 73.3662 70.2163L73.5107 70.0874C73.8599 69.8048 74.2982 69.649 74.752 69.6489C74.8374 69.6489 74.9219 69.655 75.0049 69.6655V66.2271L75.3311 66.1577L81.5312 64.8452L82.0283 64.7407V70.7173Z" fill="#31FF8F" stroke="black" stroke-width="0.823843"/>
<rect x="64.0335" y="48.9383" width="10.4073" height="2.94387" rx="1.1666" fill="#77E0F7" stroke="black" stroke-width="1.1666"/>
<path d="M64.249 49.7436C64.249 49.2604 64.6408 48.8687 65.124 48.8687H67.4418V51.6946H65.124C64.6408 51.6946 64.249 51.3029 64.249 50.8196V49.7436Z" fill="#43606A"/>
<rect x="67.4261" y="48.9383" width="10.4073" height="3.20077" rx="1.1666" fill="#77E0F7" stroke="black" stroke-width="1.1666"/>
<rect x="65.0315" y="52.2781" width="8.01273" height="4.22839" rx="1.1666" fill="#77E0F7" stroke="black" stroke-width="1.1666"/>
<path d="M65.0469 53.5971C65.0469 53.1139 65.4386 52.7222 65.9218 52.7222H68.2397V56.0619H65.9218C65.4386 56.0619 65.0469 55.6702 65.0469 55.187V53.5971Z" fill="#43606A"/>
<rect x="68.4241" y="52.2781" width="8.01273" height="4.22839" rx="1.1666" fill="#77E0F7" stroke="black" stroke-width="1.1666"/>
<rect x="63.8343" y="56.6453" width="10.4073" height="4.22839" rx="1.1666" fill="#77E0F7" stroke="black" stroke-width="1.1666"/>
<path d="M63.8496 57.9648C63.8496 57.4816 64.2413 57.0898 64.7246 57.0898H67.0424V60.4296H64.7246C64.2413 60.4296 63.8496 60.0379 63.8496 59.5546V57.9648Z" fill="#43606A"/>
<rect x="67.2259" y="56.6453" width="10.4073" height="4.22839" rx="1.1666" fill="#77E0F7" stroke="black" stroke-width="1.1666"/>
<rect x="72.8291" y="52.7222" width="2.59416" height="3.33976" fill="#258FA6"/>
<rect x="72.8291" y="57.0898" width="2.79371" height="3.33976" fill="#258FA6"/>
<rect x="67.4414" y="57.0898" width="2.79371" height="3.33976" fill="#258FA6"/>
<rect x="69.4365" y="49.3823" width="1.79596" height="2.31214" fill="#258FA6"/>
<mask id="path-31-inside-1_11_38978" fill="white">
<path fill-rule="evenodd" clip-rule="evenodd" d="M62.8239 20.2358C58.5282 20.3599 55.084 23.8812 55.084 28.2069V41.423C55.084 45.7488 58.5282 49.2701 62.8239 49.3942V49.3976H86.7475V20.2324H63.0726C63.0679 20.2324 63.0632 20.2324 63.0585 20.2324C63.0538 20.2324 63.0491 20.2324 63.0444 20.2324H62.8239V20.2358Z"/>
</mask>
<path fill-rule="evenodd" clip-rule="evenodd" d="M62.8239 20.2358C58.5282 20.3599 55.084 23.8812 55.084 28.2069V41.423C55.084 45.7488 58.5282 49.2701 62.8239 49.3942V49.3976H86.7475V20.2324H63.0726C63.0679 20.2324 63.0632 20.2324 63.0585 20.2324C63.0538 20.2324 63.0491 20.2324 63.0444 20.2324H62.8239V20.2358Z" fill="#43606A"/>
<path d="M62.8239 20.2358L62.8576 21.4019L63.9905 21.3692V20.2358H62.8239ZM62.8239 49.3942H63.9905V48.2608L62.8576 48.228L62.8239 49.3942ZM62.8239 49.3976H61.6573V50.5642H62.8239V49.3976ZM86.7475 49.3976V50.5642H87.9141V49.3976H86.7475ZM86.7475 20.2324H87.9141V19.0658H86.7475V20.2324ZM63.0726 20.2324L63.0706 21.399H63.0726V20.2324ZM63.0444 20.2324V21.399L63.0464 21.399L63.0444 20.2324ZM62.8239 20.2324V19.0658H61.6573V20.2324H62.8239ZM56.2506 28.2069C56.2506 24.5142 59.191 21.5078 62.8576 21.4019L62.7902 19.0697C57.8655 19.212 53.9174 23.2482 53.9174 28.2069H56.2506ZM56.2506 41.423V28.2069H53.9174V41.423H56.2506ZM62.8576 48.228C59.191 48.1221 56.2506 45.1157 56.2506 41.423H53.9174C53.9174 46.3818 57.8655 50.418 62.7902 50.5603L62.8576 48.228ZM63.9905 49.3976V49.3942H61.6573V49.3976H63.9905ZM86.7475 48.2309H62.8239V50.5642H86.7475V48.2309ZM85.5809 20.2324V49.3976H87.9141V20.2324H85.5809ZM63.0726 21.399H86.7475V19.0658H63.0726V21.399ZM63.0585 21.399C63.0625 21.399 63.0666 21.399 63.0706 21.399L63.0747 19.0658C63.0693 19.0658 63.0639 19.0658 63.0585 19.0658V21.399ZM63.0464 21.399C63.0504 21.399 63.0545 21.399 63.0585 21.399V19.0658C63.0531 19.0658 63.0477 19.0658 63.0423 19.0658L63.0464 21.399ZM62.8239 21.399H63.0444V19.0658H62.8239V21.399ZM63.9905 20.2358V20.2324H61.6573V20.2358H63.9905Z" fill="black" mask="url(#path-31-inside-1_11_38978)"/>
<mask id="path-33-inside-2_11_38978" fill="white">
<path fill-rule="evenodd" clip-rule="evenodd" d="M62.3548 20.263C58.2802 20.6193 55.084 24.0399 55.084 28.2069V37.3399C55.084 41.507 58.2802 44.9276 62.3548 45.2838V45.3144H86.7475V20.2324H63.0726C63.0679 20.2324 63.0632 20.2324 63.0585 20.2324C63.0538 20.2324 63.0491 20.2324 63.0444 20.2324H62.3548V20.263Z"/>
</mask>
<path fill-rule="evenodd" clip-rule="evenodd" d="M62.3548 20.263C58.2802 20.6193 55.084 24.0399 55.084 28.2069V37.3399C55.084 41.507 58.2802 44.9276 62.3548 45.2838V45.3144H86.7475V20.2324H63.0726C63.0679 20.2324 63.0632 20.2324 63.0585 20.2324C63.0538 20.2324 63.0491 20.2324 63.0444 20.2324H62.3548V20.263Z" fill="#31B8D6"/>
<path d="M62.3548 20.263L62.4564 21.4252L63.5214 21.3321V20.263H62.3548ZM62.3548 45.2838H63.5214V44.2148L62.4564 44.1216L62.3548 45.2838ZM62.3548 45.3144H61.1882V46.481H62.3548V45.3144ZM86.7475 45.3144V46.481H87.9141V45.3144H86.7475ZM86.7475 20.2324H87.9141V19.0658H86.7475V20.2324ZM63.0726 20.2324L63.0706 21.399H63.0726V20.2324ZM63.0444 20.2324V21.399L63.0464 21.399L63.0444 20.2324ZM62.3548 20.2324V19.0658H61.1882V20.2324H62.3548ZM56.2506 28.2069C56.2506 24.6501 58.9791 21.7292 62.4564 21.4252L62.2532 19.1009C57.5813 19.5093 53.9174 23.4296 53.9174 28.2069H56.2506ZM56.2506 37.3399V28.2069H53.9174V37.3399H56.2506ZM62.4564 44.1216C58.9791 43.8176 56.2506 40.8968 56.2506 37.3399H53.9174C53.9174 42.1172 57.5813 46.0375 62.2532 46.446L62.4564 44.1216ZM63.5214 45.3144V45.2838H61.1882V45.3144H63.5214ZM86.7475 44.1478H62.3548V46.481H86.7475V44.1478ZM85.5809 20.2324V45.3144H87.9141V20.2324H85.5809ZM63.0726 21.399H86.7475V19.0658H63.0726V21.399ZM63.0585 21.399C63.0625 21.399 63.0666 21.399 63.0706 21.399L63.0747 19.0658C63.0693 19.0658 63.0639 19.0658 63.0585 19.0658V21.399ZM63.0464 21.399C63.0504 21.399 63.0545 21.399 63.0585 21.399V19.0658C63.0531 19.0658 63.0477 19.0658 63.0423 19.0658L63.0464 21.399ZM62.3548 21.399H63.0444V19.0658H62.3548V21.399ZM63.5214 20.263V20.2324H61.1882V20.263H63.5214Z" fill="black" mask="url(#path-33-inside-2_11_38978)"/>
<path fill-rule="evenodd" clip-rule="evenodd" d="M61.758 21.3125C58.5719 21.2765 55.6725 23.1475 54.3926 26.0654H60.6774V26.0654H86.2909V21.399H67.4233C67.3168 21.383 67.2079 21.3741 67.0971 21.3728L61.758 21.3125Z" fill="white"/>
<path d="M77.7719 12.9409L84.541 31.2733L77.7719 36.273L72.875 28.4163L77.1958 23.8927L74.0272 16.036L77.7719 12.9409Z" fill="#3A4D05" stroke="black" stroke-width="1.1666"/>
<path d="M58.733 12.0906L77.6868 12.3576L74.0412 17.1698H57.8546L52.8965 15.8574L55.6946 13.2591C56.5194 12.4933 57.6076 12.0748 58.733 12.0906Z" fill="#3A4D05" stroke="black" stroke-width="0.874953" stroke-linejoin="round"/>
<path d="M73.8281 20.8154H83.4902C88.4087 20.8155 91.9806 25.4071 90.876 30.1162L90.7549 30.5723L85.6982 47.4736C84.4992 51.481 80.2977 53.7363 76.3281 52.585L75.9443 52.4629L75.0186 52.1406C70.4279 50.5455 67.2286 46.3953 66.8311 41.5811L66.8018 41.1133L66.2529 28.7344C66.0617 24.419 69.5085 20.8155 73.8281 20.8154Z" fill="#31B8D6" stroke="black" stroke-width="1.1666"/>
<path d="M56.7728 12.9409L63.542 31.2733L56.7728 36.273L51.876 28.4163L56.1967 23.8927L53.0282 16.036L56.7728 12.9409Z" fill="#31B8D6" stroke="black" stroke-width="1.1666"/>
<path fill-rule="evenodd" clip-rule="evenodd" d="M84.8323 21.3989H74.9512V21.4001C74.9271 21.3993 74.9029 21.399 74.8786 21.399H73.4581C71.7852 21.399 70.1643 22.0811 69.1075 23.3779C68.2747 24.3997 67.8572 25.046 67.5409 25.5357C67.4135 25.7329 67.3026 25.9047 67.1875 26.0654H74.8786C74.9029 26.0654 74.9271 26.065 74.9512 26.0643V26.0653H84.8323V21.3989Z" fill="white"/>
<mask id="path-41-inside-3_11_38978" fill="white">
<path d="M71.6637 29.7427C71.2172 24.6295 75.2474 20.2319 80.3801 20.2319H85.999C90.8312 20.2319 94.7877 24.1506 94.7406 28.9826C94.6805 35.1539 94.3804 40.1245 93.0429 47.198C92.2686 51.2932 88.5435 54.111 84.378 53.9745L81.5042 53.8802C77.0791 53.7352 73.4598 50.3074 73.0745 45.8967L71.6637 29.7427Z"/>
</mask>
<path d="M71.6637 29.7427C71.2172 24.6295 75.2474 20.2319 80.3801 20.2319H85.999C90.8312 20.2319 94.7877 24.1506 94.7406 28.9826C94.6805 35.1539 94.3804 40.1245 93.0429 47.198C92.2686 51.2932 88.5435 54.111 84.378 53.9745L81.5042 53.8802C77.0791 53.7352 73.4598 50.3074 73.0745 45.8967L71.6637 29.7427Z" fill="#31B8D6"/>
<path d="M81.5042 53.8802L81.466 55.0462L81.5042 53.8802ZM73.0745 45.8967L71.9124 45.9982L73.0745 45.8967ZM93.0429 47.198L91.8966 46.9813L93.0429 47.198ZM84.378 53.9745L84.4162 52.8085L84.378 53.9745ZM94.7406 28.9826L93.5741 28.9713L94.7406 28.9826ZM71.6637 29.7427L72.8259 29.6412L71.6637 29.7427ZM80.3801 21.3985H85.999V19.0653H80.3801V21.3985ZM93.5741 28.9713C93.5144 35.0943 93.218 39.9931 91.8966 46.9813L94.1892 47.4148C95.5428 40.2559 95.8466 35.2136 95.9072 28.994L93.5741 28.9713ZM84.4162 52.8085L81.5424 52.7143L81.466 55.0462L84.3398 55.1404L84.4162 52.8085ZM74.2367 45.7952L72.8259 29.6412L70.5015 29.8442L71.9124 45.9982L74.2367 45.7952ZM81.5424 52.7143C77.7073 52.5885 74.5706 49.6178 74.2367 45.7952L71.9124 45.9982C72.3489 50.9969 76.4508 54.8818 81.466 55.0462L81.5424 52.7143ZM91.8966 46.9813C91.2354 50.4781 88.0413 52.9273 84.4162 52.8085L84.3398 55.1404C89.0456 55.2947 93.3017 52.1083 94.1892 47.4148L91.8966 46.9813ZM85.999 21.3985C90.1958 21.3985 93.6147 24.8012 93.5741 28.9713L95.9072 28.994C95.9607 23.5 91.4666 19.0653 85.999 19.0653V21.3985ZM80.3801 19.0653C74.5631 19.0653 69.9954 24.0493 70.5015 29.8442L72.8259 29.6412C72.4389 25.2098 75.9318 21.3985 80.3801 21.3985V19.0653Z" fill="black" mask="url(#path-41-inside-3_11_38978)"/>
<rect x="49.8343" y="27.8147" width="15.4575" height="14.8742" rx="7.4371" fill="#A5ADAD" stroke="black" stroke-width="1.1666"/>
<rect x="50.4173" y="29.5652" width="11.0827" height="11.3744" rx="5.54137" fill="#31B8D6" stroke="black" stroke-width="1.1666"/>
<path d="M79.0225 25.4814H88.458C89.88 25.4814 91.0767 26.5007 91.3027 27.8623L91.334 28.1396C91.747 34.3569 91.5863 38.991 90.4248 45.4805L90.1787 46.8047C89.9215 48.1435 88.7352 49.1055 87.3564 49.1055H80.5586C79.1395 49.1055 77.9417 48.0877 77.6904 46.7178L77.6533 46.4395L76.1172 28.6494C75.9702 26.9462 77.313 25.4817 79.0225 25.4814Z" fill="#282D38" stroke="black" stroke-width="1.1666"/>
<path d="M55.928 33.6788L55.3983 32.9113C54.9059 32.8545 54.3605 33.1633 54.1493 33.3248C53.3273 33.9669 53.0677 34.4253 52.8943 35.3712C52.7871 36.4129 53.0762 37.1565 53.9496 37.9947C54.7621 38.5906 55.5127 38.8321 56.5991 38.5503C57.1461 38.3852 57.9565 37.8934 58.3754 37.0883C58.6275 36.5448 58.7423 36.1132 58.7291 35.6685C58.7014 34.7399 58.1135 33.9383 57.5858 33.1737L57.3974 32.9007C57.613 32.4336 57.6747 32.1635 57.6523 31.6626C57.6033 31.4702 57.5473 31.4295 57.3909 31.4889C57.2701 31.6459 57.1747 31.7232 56.9492 31.8409C56.4327 32.0335 56.1836 31.9885 55.7735 31.779C55.5733 31.7283 55.3886 31.9738 55.5321 32.1816L56.7654 33.9688C57.1564 34.5353 57.6367 35.1248 57.5926 35.8118C57.59 35.8522 57.5861 35.8938 57.5809 35.9371C57.3269 36.9731 56.3601 37.5225 55.8165 37.5412C54.9406 37.5118 54.512 37.0863 54.168 36.4985C53.8679 35.7805 53.9006 35.2632 54.4338 34.592C54.7764 34.1606 55.1427 33.9771 55.7113 33.9463C55.9117 33.9189 55.9524 33.8558 55.928 33.6788Z" fill="white"/>
<path d="M82.7144 33.083C82.7085 32.4237 82.1919 31.9107 81.5297 31.9066C80.7939 31.902 80.1723 32.5225 80.1789 33.255L80.1962 35.1762C80.2021 35.8355 80.7188 36.3485 81.3809 36.3526C82.1167 36.3572 82.7383 35.7367 82.7317 35.0042L82.7144 33.083Z" fill="#31FF8F"/>
<path d="M89.1304 33.083C89.1245 32.4237 88.6079 31.9107 87.9457 31.9066C87.2099 31.902 86.5883 32.5225 86.5949 33.255L86.6122 35.1762C86.6181 35.8355 87.1348 36.3485 87.797 36.3526C88.5327 36.3572 89.1543 35.7367 89.1477 35.0042L89.1304 33.083Z" fill="#31FF8F"/>
</g>
<path d="M27.763 99.0036H34.333V100.516H27.763V99.0036ZM18.133 96.1055H26.341V97.2576H18.133V96.1055ZM17.935 102.37H26.161V103.504H17.935V102.37ZM30.679 99.7056H32.407V104.62H30.679V99.7056ZM20.473 104.926H31.831V111.838H29.851V106.402H22.363V111.856H20.473V104.926ZM21.445 107.446H30.805V108.742H21.445V107.446ZM21.445 109.804H30.787V111.262H21.445V109.804ZM20.041 100.192V100.894H24.487V100.192H20.041ZM20.041 98.6796V99.3635H24.487V98.6796H20.041ZM18.601 97.8336H25.963V101.74H18.601V97.8336ZM21.427 95.0255H23.083V104.566H21.427V95.0255ZM33.127 95.1696L33.955 96.5375C33.379 96.6935 32.731 96.8376 32.011 96.9696C31.303 97.0896 30.577 97.1916 29.833 97.2755C29.089 97.3596 28.369 97.4196 27.673 97.4555C27.649 97.2755 27.595 97.0656 27.511 96.8256C27.427 96.5735 27.343 96.3515 27.259 96.1596C27.943 96.1116 28.639 96.0396 29.347 95.9435C30.067 95.8475 30.757 95.7335 31.417 95.6015C32.077 95.4696 32.647 95.3256 33.127 95.1696ZM27.241 96.1596H28.951V98.8956C28.951 99.4956 28.909 100.15 28.825 100.858C28.753 101.554 28.609 102.244 28.393 102.928C28.177 103.6 27.859 104.2 27.439 104.728C27.343 104.632 27.199 104.524 27.007 104.404C26.827 104.272 26.641 104.146 26.449 104.026C26.257 103.906 26.095 103.816 25.963 103.756C26.359 103.276 26.647 102.754 26.827 102.19C27.007 101.614 27.121 101.038 27.169 100.462C27.217 99.8856 27.241 99.3515 27.241 98.8595V96.1596ZM43.143 100.624H52.305V102.298H43.143V100.624ZM42.513 97.0235H52.827V98.7336H42.513V97.0235ZM42.549 103.882H52.755V105.574H42.549V103.882ZM46.707 95.0255H48.615V101.578H46.707V95.0255ZM49.029 102.064H50.919V109.768C50.919 110.248 50.853 110.62 50.721 110.884C50.601 111.16 50.379 111.37 50.055 111.514C49.719 111.658 49.305 111.748 48.813 111.784C48.321 111.82 47.733 111.838 47.049 111.838C47.013 111.574 46.929 111.268 46.797 110.92C46.677 110.572 46.551 110.272 46.419 110.02C46.899 110.032 47.355 110.044 47.787 110.056C48.219 110.056 48.507 110.056 48.651 110.056C48.795 110.044 48.891 110.02 48.939 109.984C48.999 109.936 49.029 109.852 49.029 109.732V102.064ZM43.377 106.798L44.979 105.916C45.231 106.204 45.501 106.528 45.789 106.888C46.077 107.248 46.347 107.602 46.599 107.95C46.851 108.298 47.055 108.604 47.211 108.868L45.501 109.876C45.369 109.6 45.183 109.288 44.943 108.94C44.703 108.58 44.445 108.214 44.169 107.842C43.893 107.458 43.629 107.11 43.377 106.798ZM37.581 96.1776H42.189V108.346H37.581V106.618H40.389V97.9056H37.581V96.1776ZM37.689 101.308H41.253V103.018H37.689V101.308ZM36.681 96.1776H38.463V109.912H36.681V96.1776ZM62.915 96.6275H69.071V98.3916H62.915V96.6275ZM60.485 103.432H68.945V105.178H60.485V103.432ZM68.297 96.6275H70.223C70.223 96.6275 70.217 96.7175 70.205 96.8976C70.205 97.0776 70.193 97.2336 70.169 97.3655C70.121 98.3615 70.055 99.1836 69.971 99.8316C69.887 100.468 69.791 100.972 69.683 101.344C69.575 101.716 69.437 101.992 69.269 102.172C69.077 102.376 68.873 102.52 68.657 102.604C68.441 102.688 68.183 102.742 67.883 102.766C67.643 102.802 67.313 102.82 66.893 102.82C66.473 102.82 66.029 102.814 65.561 102.802C65.537 102.526 65.471 102.22 65.363 101.884C65.267 101.548 65.141 101.26 64.985 101.02C65.405 101.056 65.801 101.08 66.173 101.092C66.545 101.104 66.821 101.11 67.001 101.11C67.145 101.11 67.265 101.104 67.361 101.092C67.457 101.068 67.553 101.02 67.649 100.948C67.745 100.84 67.829 100.642 67.901 100.354C67.985 100.054 68.057 99.6216 68.117 99.0576C68.177 98.4936 68.237 97.7676 68.297 96.8795V96.6275ZM62.483 95.0435L64.463 95.2775C64.223 97.0176 63.815 98.5656 63.239 99.9216C62.675 101.266 61.919 102.376 60.971 103.252C60.851 103.144 60.689 103.012 60.485 102.856C60.293 102.7 60.089 102.55 59.873 102.406C59.657 102.25 59.465 102.124 59.297 102.028C60.233 101.296 60.953 100.33 61.457 99.1296C61.961 97.9176 62.303 96.5556 62.483 95.0435ZM68.261 103.432H68.657L68.999 103.36L70.277 103.882C69.881 105.07 69.353 106.108 68.693 106.996C68.033 107.872 67.265 108.628 66.389 109.264C65.513 109.888 64.547 110.41 63.491 110.83C62.435 111.25 61.313 111.586 60.125 111.838C60.065 111.67 59.981 111.478 59.873 111.262C59.765 111.046 59.645 110.83 59.513 110.614C59.393 110.41 59.273 110.236 59.153 110.092C60.245 109.912 61.271 109.654 62.231 109.318C63.203 108.97 64.085 108.538 64.877 108.022C65.669 107.506 66.353 106.888 66.929 106.168C67.517 105.448 67.961 104.632 68.261 103.72V103.432ZM63.293 104.998C63.773 105.838 64.409 106.6 65.201 107.284C66.005 107.956 66.929 108.532 67.973 109.012C69.017 109.48 70.157 109.84 71.393 110.092C71.261 110.224 71.111 110.392 70.943 110.596C70.775 110.812 70.619 111.028 70.475 111.244C70.343 111.46 70.229 111.658 70.133 111.838C68.837 111.514 67.649 111.058 66.569 110.47C65.501 109.894 64.547 109.198 63.707 108.382C62.867 107.566 62.153 106.636 61.565 105.592L63.293 104.998ZM55.427 96.5556L56.489 95.1516C56.885 95.2955 57.293 95.4755 57.713 95.6915C58.133 95.9075 58.535 96.1355 58.919 96.3755C59.303 96.6036 59.615 96.8256 59.855 97.0415L58.721 98.6075C58.493 98.3915 58.193 98.1575 57.821 97.9056C57.449 97.6536 57.053 97.4075 56.633 97.1676C56.225 96.9276 55.823 96.7236 55.427 96.5556ZM54.383 101.434L55.409 99.9936C55.793 100.126 56.201 100.3 56.633 100.516C57.065 100.72 57.473 100.936 57.857 101.164C58.253 101.392 58.571 101.608 58.811 101.812L57.731 103.396C57.503 103.192 57.197 102.97 56.813 102.73C56.441 102.49 56.039 102.256 55.607 102.028C55.187 101.8 54.779 101.602 54.383 101.434ZM54.995 110.362C55.307 109.894 55.649 109.348 56.021 108.724C56.393 108.1 56.771 107.434 57.155 106.726C57.551 106.018 57.917 105.322 58.253 104.638L59.693 105.88C59.405 106.516 59.087 107.164 58.739 107.824C58.403 108.484 58.055 109.138 57.695 109.786C57.347 110.434 56.999 111.046 56.651 111.622L54.995 110.362ZM73.201 97.2755H89.185V99.0756H73.201V97.2755ZM77.683 103.738H85.891V105.358H77.683V103.738ZM85.243 100.696H87.133V109.696C87.133 110.188 87.073 110.578 86.953 110.866C86.833 111.154 86.599 111.376 86.251 111.532C85.903 111.676 85.465 111.76 84.937 111.784C84.421 111.82 83.791 111.838 83.047 111.838C83.011 111.574 82.933 111.262 82.813 110.902C82.705 110.542 82.585 110.236 82.453 109.984C82.789 109.996 83.119 110.008 83.443 110.02C83.767 110.02 84.055 110.02 84.307 110.02C84.559 110.02 84.739 110.02 84.847 110.02C84.991 110.02 85.093 109.996 85.153 109.948C85.213 109.888 85.243 109.792 85.243 109.66V100.696ZM78.871 95.0435L80.869 95.4936C80.449 96.8015 79.927 98.1035 79.303 99.3996C78.691 100.684 77.953 101.884 77.089 103C76.225 104.104 75.223 105.058 74.083 105.862C73.987 105.706 73.861 105.538 73.705 105.358C73.549 105.178 73.393 104.998 73.237 104.818C73.081 104.638 72.937 104.488 72.805 104.368C73.585 103.84 74.299 103.222 74.947 102.514C75.595 101.806 76.165 101.038 76.657 100.21C77.161 99.3816 77.599 98.5296 77.971 97.6536C78.343 96.7776 78.643 95.9075 78.871 95.0435ZM77.611 106.726H85.891V108.346H77.611V106.726ZM77.575 100.696H85.693V102.406H77.575V100.696ZM76.513 100.696H78.457V105.502C78.457 106.03 78.427 106.588 78.367 107.176C78.307 107.752 78.199 108.334 78.043 108.922C77.887 109.498 77.659 110.044 77.359 110.56C77.071 111.088 76.687 111.562 76.207 111.982C76.135 111.838 76.009 111.664 75.829 111.46C75.661 111.268 75.487 111.076 75.307 110.884C75.127 110.704 74.965 110.572 74.821 110.488C75.349 110.02 75.727 109.51 75.955 108.958C76.195 108.394 76.345 107.812 76.405 107.212C76.477 106.612 76.513 106.03 76.513 105.466V100.696ZM100.353 99.6875H107.715V101.488H100.353V99.6875ZM91.299 98.9136H100.335V100.516H91.299V98.9136ZM91.839 102.874H99.831V104.458H91.839V102.874ZM92.217 105.826H99.543V107.392H92.217V105.826ZM104.367 95.0796H106.239V109.624C106.239 110.14 106.179 110.536 106.059 110.812C105.939 111.1 105.717 111.316 105.393 111.46C105.093 111.616 104.703 111.718 104.223 111.766C103.743 111.814 103.143 111.838 102.423 111.838C102.399 111.67 102.351 111.472 102.279 111.244C102.207 111.028 102.123 110.806 102.027 110.578C101.943 110.362 101.853 110.17 101.757 110.002C102.249 110.014 102.699 110.026 103.107 110.038C103.527 110.038 103.809 110.032 103.953 110.02C104.109 110.02 104.217 109.996 104.277 109.948C104.337 109.888 104.367 109.78 104.367 109.624V95.0796ZM100.641 103.162L102.243 102.622C102.483 103.054 102.705 103.51 102.909 103.99C103.113 104.47 103.287 104.944 103.431 105.412C103.587 105.868 103.689 106.282 103.737 106.654L102.027 107.266C101.979 106.894 101.883 106.474 101.739 106.006C101.607 105.538 101.445 105.058 101.253 104.566C101.073 104.062 100.869 103.594 100.641 103.162ZM91.389 96.4296L92.559 95.6556C92.871 95.9796 93.177 96.3396 93.477 96.7356C93.789 97.1316 94.017 97.4856 94.161 97.7976L92.919 98.6616C92.787 98.3496 92.577 97.9836 92.289 97.5636C92.001 97.1436 91.701 96.7656 91.389 96.4296ZM92.685 101.02L94.017 100.3C94.281 100.588 94.545 100.918 94.809 101.29C95.073 101.65 95.265 101.974 95.385 102.262L93.963 103.054C93.867 102.766 93.693 102.436 93.441 102.064C93.189 101.68 92.937 101.332 92.685 101.02ZM93.819 95.0616H95.349V99.4355H93.819V95.0616ZM94.953 103.36H96.753V109.876H94.953V103.36ZM96.321 95.0616H97.869V99.4355H96.321V95.0616ZM91.245 109.354C92.013 109.27 92.895 109.18 93.891 109.084C94.887 108.988 95.937 108.88 97.041 108.76C98.145 108.628 99.243 108.502 100.335 108.382L100.371 110.056C99.327 110.188 98.271 110.32 97.203 110.452C96.135 110.584 95.115 110.704 94.143 110.812C93.171 110.932 92.289 111.04 91.497 111.136L91.245 109.354ZM99.057 95.7095L100.569 96.5556C100.209 96.9396 99.849 97.3296 99.489 97.7256C99.141 98.1096 98.817 98.4396 98.517 98.7156L97.365 97.9956C97.545 97.7916 97.737 97.5575 97.941 97.2935C98.157 97.0296 98.361 96.7536 98.553 96.4656C98.757 96.1776 98.925 95.9255 99.057 95.7095ZM97.473 100.39L99.147 100.966C98.895 101.434 98.643 101.908 98.391 102.388C98.139 102.856 97.899 103.258 97.671 103.594L96.267 103.072C96.399 102.82 96.543 102.538 96.699 102.226C96.855 101.914 96.999 101.596 97.131 101.272C97.275 100.948 97.389 100.654 97.473 100.39ZM124.319 95.1335L125.507 96.6816C124.751 96.9215 123.911 97.1375 122.987 97.3296C122.075 97.5215 121.133 97.6836 120.161 97.8156C119.201 97.9356 118.271 98.0376 117.371 98.1215C117.335 97.9056 117.269 97.6416 117.173 97.3296C117.077 97.0175 116.981 96.7596 116.885 96.5556C117.761 96.4596 118.655 96.3456 119.567 96.2135C120.491 96.0696 121.361 95.9076 122.177 95.7276C123.005 95.5356 123.719 95.3375 124.319 95.1335ZM116.579 100.498H126.263V102.334H116.579V100.498ZM117.353 104.98H125.345V111.784H123.491V106.726H119.117V111.856H117.353V104.98ZM118.217 109.426H124.445V111.19H118.217V109.426ZM120.431 96.8436H122.195V105.898H120.431V96.8436ZM110.261 100.534H115.733V102.01H110.261V100.534ZM110.261 102.946H115.733V104.422H110.261V102.946ZM109.487 98.0496H116.363V99.5976H109.487V98.0496ZM111.071 105.412H115.841V110.83H111.071V109.264H114.167V106.96H111.071V105.412ZM110.225 105.412H111.881V111.622H110.225V105.412ZM111.467 95.6915L112.943 94.9716C113.195 95.3436 113.447 95.7515 113.699 96.1955C113.951 96.6276 114.149 97.0116 114.293 97.3476L112.745 98.2116C112.625 97.8756 112.439 97.4675 112.187 96.9876C111.935 96.5076 111.695 96.0755 111.467 95.6915Z" fill="black"/>
</svg>
