<svg width="30" height="30" viewBox="0 0 30 30" fill="none" xmlns="http://www.w3.org/2000/svg">
<mask id="mask0_11_38809" style="mask-type:alpha" maskUnits="userSpaceOnUse" x="0" y="0" width="30" height="30">
<circle cx="15" cy="15" r="15" fill="#D9D9D9"/>
</mask>
<g mask="url(#mask0_11_38809)">
<circle cx="15" cy="15" r="15" fill="#81FFC3"/>
<path d="M24.6123 28.5127C25.7922 28.5127 26.7488 29.4696 26.749 30.6494V33.5225H22.4756V30.6494C22.4758 29.4697 23.4326 28.5129 24.6123 28.5127Z" fill="#258FA6" stroke="black" stroke-width="0.500917"/>
<rect x="3.89597" y="25.957" width="21.1766" height="7.38852" rx="1.37752" fill="#258FA6" stroke="black" stroke-width="0.500917"/>
<path d="M9.96777 27.084H24.8065V31.9679C24.8065 32.5904 24.3019 33.095 23.6795 33.095H11.5958C10.6966 33.095 9.96777 32.3661 9.96777 31.467V27.084Z" fill="#31B8D6"/>
<rect x="5.96777" y="25.7065" width="18.0646" height="7.88944" rx="1.62798" fill="black"/>
<rect x="6.21823" y="25.957" width="17.0475" height="7.38852" rx="1.37752" fill="#258FA6" stroke="black" stroke-width="0.500917"/>
<path d="M8.16113 27.084H22.9999V31.9679C22.9999 32.5904 22.4953 33.095 21.8728 33.095H9.78911C8.89 33.095 8.16113 32.3661 8.16113 31.467V27.084Z" fill="#31B8D6"/>
<rect x="6.21823" y="25.957" width="14.854" height="7.38852" rx="1.37752" fill="#258FA6" stroke="black" stroke-width="0.500917"/>
<path d="M5.96777 27.084H20.8065V31.9679C20.8065 32.5904 20.3019 33.095 19.6795 33.095H7.59575C6.69665 33.095 5.96777 32.3661 5.96777 31.467V27.084Z" fill="#31B8D6"/>
<rect x="3.89597" y="25.957" width="9.69265" height="7.38852" rx="1.37752" fill="#258FA6" stroke="black" stroke-width="0.500917"/>
<path d="M8.16113 27.084H13.3224V31.9679C13.3224 32.5904 12.8178 33.095 12.1954 33.095H9.78911C8.89 33.095 8.16113 32.3661 8.16113 31.467V27.084Z" fill="#31B8D6"/>
<rect x="3.89597" y="25.957" width="6.07974" height="7.38852" rx="1.37752" fill="#258FA6" stroke="black" stroke-width="0.500917"/>
<rect x="3.89597" y="25.957" width="6.07974" height="7.38852" rx="1.37752" fill="#258FA6" stroke="black" stroke-width="0.500917"/>
<rect x="3.64551" y="27.3345" width="4.90324" height="5.00917" rx="2.45162" fill="black"/>
<path d="M5.58105 28.2622C6.8678 28.2624 7.91113 29.3065 7.91113 30.5933V33.522H3.25V30.5933C3.25 29.3063 4.29413 28.2622 5.58105 28.2622Z" fill="#258FA6" stroke="black" stroke-width="0.500917"/>
<path d="M19.3066 30.1831C19.3066 30.4051 19.2168 30.6176 19.0586 30.7739C18.9005 30.9301 18.6866 31.0181 18.4639 31.0181C18.269 31.018 18.0806 30.951 17.9307 30.8296L17.8691 30.7739C17.711 30.6176 17.6211 30.405 17.6211 30.1831C17.6212 29.9614 17.7111 29.7494 17.8691 29.5933L17.9307 29.5376C18.0806 29.4161 18.2689 29.3491 18.4639 29.3491C18.5005 29.3491 18.5367 29.3515 18.5723 29.356V28.7046L17.0244 29.0298V30.5591C17.0244 30.7532 16.956 30.94 16.833 31.0884L16.7773 31.1499C16.6193 31.306 16.4052 31.3929 16.1826 31.3931C15.9879 31.3931 15.7993 31.3268 15.6494 31.2056L15.5869 31.1499C15.4288 30.9936 15.3398 30.781 15.3398 30.5591C15.3399 30.3372 15.4288 30.1245 15.5869 29.9683L15.6494 29.9136C15.7994 29.7922 15.9877 29.7251 16.1826 29.7251C16.2189 29.7251 16.2548 29.7275 16.29 29.7319V28.2554L16.4307 28.2261L19.0928 27.6626L19.3066 27.6177V30.1831Z" fill="#31FF8F" stroke="black" stroke-width="0.353742"/>
<rect x="11.5796" y="20.8325" width="4.46871" height="1.26404" rx="0.500917" fill="#77E0F7" stroke="black" stroke-width="0.500917"/>
<path d="M11.6719 21.1784C11.6719 20.9709 11.8401 20.8027 12.0476 20.8027H13.0428V22.0161H12.0476C11.8401 22.0161 11.6719 21.8479 11.6719 21.6405V21.1784Z" fill="#43606A"/>
<rect x="13.0356" y="20.8325" width="4.46871" height="1.37435" rx="0.500917" fill="#77E0F7" stroke="black" stroke-width="0.500917"/>
<rect x="12.0073" y="22.2666" width="3.44051" height="1.81559" rx="0.500917" fill="#77E0F7" stroke="black" stroke-width="0.500917"/>
<path d="M12.0146 22.8332C12.0146 22.6257 12.1828 22.4575 12.3903 22.4575H13.3856V23.8915H12.3903C12.1828 23.8915 12.0146 23.7233 12.0146 23.5159V22.8332Z" fill="#43606A"/>
<rect x="13.4643" y="22.2666" width="3.44051" height="1.81559" rx="0.500917" fill="#77E0F7" stroke="black" stroke-width="0.500917"/>
<rect x="11.4936" y="24.1416" width="4.46871" height="1.81559" rx="0.500917" fill="#77E0F7" stroke="black" stroke-width="0.500917"/>
<path d="M11.5 24.7082C11.5 24.5007 11.6682 24.3325 11.8757 24.3325H12.8709V25.7665H11.8757C11.6682 25.7665 11.5 25.5983 11.5 25.3909V24.7082Z" fill="#43606A"/>
<rect x="12.9497" y="24.1416" width="4.46871" height="1.81559" rx="0.500917" fill="#77E0F7" stroke="black" stroke-width="0.500917"/>
<rect x="15.3555" y="22.4575" width="1.11388" height="1.43403" fill="#258FA6"/>
<rect x="15.3555" y="24.3325" width="1.19956" height="1.43403" fill="#258FA6"/>
<rect x="13.042" y="24.3325" width="1.19956" height="1.43403" fill="#258FA6"/>
<rect x="13.8994" y="21.0234" width="0.771148" height="0.992787" fill="#258FA6"/>
<mask id="path-31-inside-1_11_38809" fill="white">
<path fill-rule="evenodd" clip-rule="evenodd" d="M21.333 8.50635H11.0607V8.50782C9.21619 8.5611 7.7373 10.0731 7.7373 11.9305V17.6052C7.7373 19.4626 9.21619 20.9746 11.0607 21.0278V21.0293H11.1504C11.1541 21.0293 11.1578 21.0293 11.1614 21.0293C11.1651 21.0293 11.1687 21.0293 11.1724 21.0293H21.333V8.50635Z"/>
</mask>
<path fill-rule="evenodd" clip-rule="evenodd" d="M21.333 8.50635H11.0607V8.50782C9.21619 8.5611 7.7373 10.0731 7.7373 11.9305V17.6052C7.7373 19.4626 9.21619 20.9746 11.0607 21.0278V21.0293H11.1504C11.1541 21.0293 11.1578 21.0293 11.1614 21.0293C11.1651 21.0293 11.1687 21.0293 11.1724 21.0293H21.333V8.50635Z" fill="#43606A"/>
<path d="M11.0607 8.50635V8.00543H10.5598V8.50635H11.0607ZM21.333 8.50635H21.8339V8.00543H21.333V8.50635ZM11.0607 8.50782L11.0751 9.00853L11.5616 8.99447V8.50782H11.0607ZM11.0607 21.0278H11.5616V20.5412L11.0751 20.5271L11.0607 21.0278ZM11.0607 21.0293H10.5598V21.5302H11.0607V21.0293ZM11.1504 21.0293L11.152 20.5284H11.1504V21.0293ZM11.1724 21.0293V20.5284L11.1708 20.5284L11.1724 21.0293ZM21.333 21.0293V21.5302H21.8339V21.0293H21.333ZM11.0607 9.00726H21.333V8.00543H11.0607V9.00726ZM11.5616 8.50782V8.50635H10.5598V8.50782H11.5616ZM8.23822 11.9305C8.23822 10.3449 9.50077 9.05401 11.0751 9.00853L11.0462 8.00711C8.93161 8.0682 7.23639 9.80128 7.23639 11.9305H8.23822ZM8.23822 17.6052V11.9305H7.23639V17.6052H8.23822ZM11.0751 20.5271C9.50077 20.4816 8.23822 19.1908 8.23822 17.6052H7.23639C7.23639 19.7344 8.93161 21.4675 11.0462 21.5285L11.0751 20.5271ZM11.5616 21.0293V21.0278H10.5598V21.0293H11.5616ZM11.1504 20.5284H11.0607V21.5302H11.1504V20.5284ZM11.1614 20.5284C11.1583 20.5284 11.1551 20.5284 11.152 20.5284L11.1489 21.5302C11.1531 21.5302 11.1572 21.5302 11.1614 21.5302V20.5284ZM11.1708 20.5284C11.1677 20.5284 11.1645 20.5284 11.1614 20.5284V21.5302C11.1656 21.5302 11.1698 21.5302 11.1739 21.5302L11.1708 20.5284ZM21.333 20.5284H11.1724V21.5302H21.333V20.5284ZM20.8321 8.50635V21.0293H21.8339V8.50635H20.8321Z" fill="black" mask="url(#path-31-inside-1_11_38809)"/>
<mask id="path-33-inside-2_11_38809" fill="white">
<path fill-rule="evenodd" clip-rule="evenodd" d="M21.333 8.50635H10.8592V8.51951C9.10969 8.67248 7.7373 10.1412 7.7373 11.9305V15.852C7.7373 17.6412 9.10969 19.11 10.8592 19.2629V19.2761H11.1504C11.1541 19.2761 11.1578 19.2761 11.1614 19.2761C11.1651 19.2761 11.1687 19.2761 11.1724 19.2761H21.333V8.50635Z"/>
</mask>
<path fill-rule="evenodd" clip-rule="evenodd" d="M21.333 8.50635H10.8592V8.51951C9.10969 8.67248 7.7373 10.1412 7.7373 11.9305V15.852C7.7373 17.6412 9.10969 19.11 10.8592 19.2629V19.2761H11.1504C11.1541 19.2761 11.1578 19.2761 11.1614 19.2761C11.1651 19.2761 11.1687 19.2761 11.1724 19.2761H21.333V8.50635Z" fill="#31B8D6"/>
<path d="M10.8592 8.50635V8.00543H10.3583V8.50635H10.8592ZM21.333 8.50635H21.8339V8.00543H21.333V8.50635ZM10.8592 8.51951L10.9029 9.01853L11.3602 8.97855V8.51951H10.8592ZM10.8592 19.2629H11.3602V18.8039L10.9029 18.7639L10.8592 19.2629ZM10.8592 19.2761H10.3583V19.777H10.8592V19.2761ZM11.1504 19.2761L11.152 18.7751H11.1504V19.2761ZM11.1724 19.2761V18.7751L11.1708 18.7751L11.1724 19.2761ZM21.333 19.2761V19.777H21.8339V19.2761H21.333ZM10.8592 9.00726H21.333V8.00543H10.8592V9.00726ZM11.3602 8.51951V8.50635H10.3583V8.51951H11.3602ZM8.23822 11.9305C8.23822 10.4032 9.40979 9.14907 10.9029 9.01853L10.8156 8.0205C8.80959 8.19589 7.23639 9.87919 7.23639 11.9305H8.23822ZM8.23822 15.852V11.9305H7.23639V15.852H8.23822ZM10.9029 18.7639C9.40979 18.6334 8.23822 17.3792 8.23822 15.852H7.23639C7.23639 17.9033 8.80959 19.5866 10.8156 19.7619L10.9029 18.7639ZM11.3602 19.2761V19.2629H10.3583V19.2761H11.3602ZM11.1504 18.7751H10.8592V19.777H11.1504V18.7751ZM11.1614 18.7752C11.1583 18.7752 11.1551 18.7752 11.152 18.7751L11.1489 19.777C11.1531 19.777 11.1572 19.777 11.1614 19.777V18.7752ZM11.1708 18.7751C11.1677 18.7752 11.1645 18.7752 11.1614 18.7752V19.777C11.1656 19.777 11.1698 19.777 11.1739 19.777L11.1708 18.7751ZM21.333 18.7751H11.1724V19.777H21.333V18.7751ZM20.8321 8.50635V19.2761H21.8339V8.50635H20.8321Z" fill="black" mask="url(#path-33-inside-2_11_38809)"/>
<path fill-rule="evenodd" clip-rule="evenodd" d="M10.603 8.97043C9.23495 8.95499 7.99001 9.75834 7.44043 11.0112H12.8841C12.887 11.0112 12.8899 11.0112 12.8928 11.0112H21.1369V9.00753H13.0353C12.9896 9.00067 12.943 8.99686 12.8955 8.99632L10.603 8.97043Z" fill="white"/>
<path d="M17.4786 5.37549L20.3851 13.247L17.4786 15.3938L15.376 12.0203L17.2312 10.078L15.8707 6.70445L17.4786 5.37549Z" fill="#3A4D05" stroke="black" stroke-width="0.500917"/>
<path d="M9.30394 5.0106L17.4423 5.12523L15.877 7.19151H8.92675L6.79785 6.62798L7.9993 5.51235C8.35345 5.1835 8.82071 5.0038 9.30394 5.0106Z" fill="#3A4D05" stroke="black" stroke-width="0.375688" stroke-linejoin="round"/>
<path d="M15.7852 8.75635H19.9336C22.0456 8.75635 23.5799 10.7284 23.1055 12.7505L23.0537 12.9458L20.8818 20.2026C20.367 21.9235 18.563 22.8926 16.8584 22.3979L16.6943 22.3452L16.2969 22.2075C14.3258 21.5227 12.9521 19.7404 12.7812 17.6733L12.7686 17.4722L12.5322 12.1567C12.4502 10.3039 13.9306 8.7565 15.7852 8.75635Z" fill="#31B8D6" stroke="black" stroke-width="0.500917"/>
<path d="M8.46199 5.37549L11.3685 13.247L8.46199 15.3938L6.35938 12.0203L8.21462 10.078L6.85411 6.70445L8.46199 5.37549Z" fill="#31B8D6" stroke="black" stroke-width="0.500917"/>
<path fill-rule="evenodd" clip-rule="evenodd" d="M15.627 9.00732C14.9087 9.00732 14.2128 9.30022 13.759 9.85704C13.4014 10.2958 13.2221 10.5733 13.0863 10.7836C13.0316 10.8682 12.984 10.942 12.9346 11.011H16.237C16.2474 11.011 16.2578 11.0108 16.2681 11.0105V11.011H20.5109V9.00734H16.2681V9.0078C16.2578 9.00748 16.2474 9.00732 16.237 9.00732H15.627Z" fill="white"/>
<mask id="path-41-inside-3_11_38809" fill="white">
<path d="M14.8563 12.5901C14.6646 10.3946 16.3951 8.50635 18.599 8.50635H21.0116C23.0865 8.50635 24.7853 10.189 24.7651 12.2637C24.7393 14.9135 24.6104 17.0478 24.0361 20.0851C23.7036 21.8434 22.1042 23.0534 20.3156 22.9947L19.0816 22.9543C17.1816 22.892 15.6275 21.4201 15.4621 19.5263L14.8563 12.5901Z"/>
</mask>
<path d="M14.8563 12.5901C14.6646 10.3946 16.3951 8.50635 18.599 8.50635H21.0116C23.0865 8.50635 24.7853 10.189 24.7651 12.2637C24.7393 14.9135 24.6104 17.0478 24.0361 20.0851C23.7036 21.8434 22.1042 23.0534 20.3156 22.9947L19.0816 22.9543C17.1816 22.892 15.6275 21.4201 15.4621 19.5263L14.8563 12.5901Z" fill="#31B8D6"/>
<path d="M19.0816 22.9543L19.0652 23.4549L19.0816 22.9543ZM15.4621 19.5263L15.9611 19.4827L15.4621 19.5263ZM20.3156 22.9947L20.332 22.4941L20.3156 22.9947ZM14.8563 12.5901L14.3573 12.6337L14.8563 12.5901ZM18.599 9.00726H21.0116V8.00543H18.599V9.00726ZM24.2642 12.2588C24.2386 14.8879 24.1113 16.9914 23.5439 19.992L24.5283 20.1781C25.1095 17.1042 25.24 14.9392 25.266 12.2686L24.2642 12.2588ZM20.332 22.4941L19.098 22.4536L19.0652 23.4549L20.2992 23.4954L20.332 22.4941ZM15.9611 19.4827L15.3553 12.5465L14.3573 12.6337L14.9631 19.5699L15.9611 19.4827ZM19.098 22.4536C17.4513 22.3996 16.1045 21.124 15.9611 19.4827L14.9631 19.5699C15.1505 21.7162 16.9118 23.3843 19.0652 23.4549L19.098 22.4536ZM23.5439 19.992C23.26 21.4934 21.8885 22.5451 20.332 22.4941L20.2992 23.4954C22.3198 23.5616 24.1473 22.1934 24.5283 20.1781L23.5439 19.992ZM21.0116 9.00726C22.8136 9.00726 24.2817 10.4683 24.2642 12.2588L25.266 12.2686C25.289 9.9096 23.3593 8.00543 21.0116 8.00543V9.00726ZM18.599 8.00543C16.1012 8.00543 14.14 10.1454 14.3573 12.6337L15.3553 12.5465C15.1892 10.6437 16.6889 9.00726 18.599 9.00726V8.00543Z" fill="black" mask="url(#path-41-inside-3_11_38809)"/>
<rect x="5.48288" y="11.7622" width="6.63715" height="6.38669" rx="3.19334" fill="#A5ADAD" stroke="black" stroke-width="0.500917"/>
<rect x="5.73386" y="12.5136" width="4.75871" height="4.88394" rx="2.37936" fill="#31B8D6" stroke="black" stroke-width="0.500917"/>
<path d="M18.0156 10.7603H22.0674C22.6778 10.7603 23.1909 11.1982 23.2881 11.7827L23.3018 11.9019C23.4791 14.5716 23.4109 16.5615 22.9121 19.3481L22.8066 19.9165C22.6962 20.4912 22.1866 20.9037 21.5947 20.9038H18.6758C18.0665 20.9038 17.5514 20.4675 17.4434 19.8794L17.4277 19.7593L16.7686 12.1206C16.7055 11.3894 17.2817 10.7605 18.0156 10.7603Z" fill="#282D38" stroke="black" stroke-width="0.500917"/>
<path d="M8.09896 14.2801L7.87153 13.9505C7.66011 13.9262 7.42592 14.0588 7.33525 14.1281C6.98227 14.4038 6.87082 14.6006 6.79636 15.0068C6.75033 15.4541 6.87445 15.7734 7.24948 16.1333C7.59836 16.3891 7.92067 16.4928 8.38712 16.3718C8.62199 16.3009 8.96997 16.0898 9.14986 15.7441C9.25807 15.5107 9.3074 15.3254 9.30171 15.1344C9.28982 14.7357 9.03739 14.3915 8.81081 14.0632L8.7299 13.946C8.8225 13.7454 8.84899 13.6295 8.83937 13.4144C8.8183 13.3318 8.79425 13.3143 8.7271 13.3398C8.67523 13.4072 8.63429 13.4404 8.53748 13.4909C8.31568 13.5737 8.20872 13.5543 8.03263 13.4644C7.94666 13.4426 7.86737 13.548 7.92897 13.6373L8.45855 14.4046C8.62644 14.6479 8.83267 14.901 8.81373 15.196C8.81262 15.2133 8.81094 15.2312 8.80871 15.2498C8.69965 15.6946 8.28452 15.9305 8.05109 15.9385C7.675 15.9259 7.49096 15.7432 7.34328 15.4908C7.21439 15.1825 7.22844 14.9604 7.45738 14.6722C7.60452 14.487 7.76178 14.4082 8.00594 14.395C8.09199 14.3832 8.10947 14.3561 8.09896 14.2801Z" fill="white"/>
<path d="M19.6011 14.0245C19.5986 13.7414 19.3767 13.5212 19.0924 13.5194C18.7765 13.5174 18.5096 13.7839 18.5124 14.0984L18.5198 14.9233C18.5224 15.2064 18.7442 15.4267 19.0286 15.4284C19.3445 15.4304 19.6114 15.164 19.6085 14.8495L19.6011 14.0245Z" fill="#31FF8F"/>
<path d="M22.356 14.0245C22.3535 13.7414 22.1316 13.5212 21.8473 13.5194C21.5314 13.5174 21.2645 13.7839 21.2673 14.0984L21.2747 14.9233C21.2773 15.2064 21.4991 15.4267 21.7834 15.4284C22.0994 15.4304 22.3663 15.164 22.3634 14.8495L22.356 14.0245Z" fill="#31FF8F"/>
</g>
</svg>
