<svg width="144" height="115" viewBox="0 0 144 115" fill="none" xmlns="http://www.w3.org/2000/svg">
<mask id="mask0_11_38899" style="mask-type:alpha" maskUnits="userSpaceOnUse" x="37" y="0" width="70" height="71">
<circle cx="71.9997" cy="35.3552" r="34.7107" fill="#F9E774"/>
</mask>
<g mask="url(#mask0_11_38899)">
<circle cx="71.9997" cy="35.3552" r="34.7107" fill="#FFF5B3"/>
<path d="M43.7734 57.0552H48.5C48.7624 57.0553 49.0141 57.1519 49.209 57.3237L49.2891 57.4019L53.0107 61.4429H42.7002V58.1284C42.7002 57.5359 43.1809 57.0552 43.7734 57.0552Z" fill="#07090E" stroke="#515151" stroke-width="1.07295"/>
<path d="M78.8369 57.0554H83.5635C83.8258 57.0555 84.0775 57.1521 84.2725 57.324L84.3525 57.4021L88.0742 61.4431H77.7637V58.1287C77.7637 57.5361 78.2444 57.0555 78.8369 57.0554Z" fill="#07090E" stroke="#515151" stroke-width="1.07295"/>
<path d="M45.0381 59.3548C45.0381 59.0585 45.2783 58.8184 45.5746 58.8184H47.4923C47.6655 58.8184 47.8281 58.902 47.9288 59.043L49.2054 60.8301H45.0381V59.3548Z" fill="#F9E774"/>
<path d="M80.1006 59.3548C80.1006 59.0585 80.3408 58.8184 80.6371 58.8184H82.5548C82.728 58.8184 82.8906 58.902 82.9913 59.043L84.2679 60.8301H80.1006V59.3548Z" fill="#F9E774"/>
<path d="M42.7383 78.3613V61.4048H87.6053L98.781 72.5994V78.3613H42.7383Z" fill="#07090E" stroke="#515151" stroke-width="1.07295"/>
<path d="M42.4521 78.3613V61.4048H54.5264L66.3062 73.2579V78.3613H42.4521Z" fill="black" stroke="#383C45" stroke-width="1.07295"/>
<path d="M49.9238 65.9648H50.9131C53.2577 65.965 55.3354 67.4505 56.1035 69.6484L56.1738 69.8633L58.6836 78.1123H44.4248V71.4639C44.4249 68.4271 46.887 65.965 49.9238 65.9648Z" fill="#292F3A" stroke="black" stroke-width="1.07295"/>
<path d="M65.2762 72.456L55.1501 62.3204C54.8124 61.9824 55.0518 61.4048 55.5297 61.4048H87.9365C88.0789 61.4048 88.2154 61.4614 88.316 61.5621L98.4422 71.6977C98.7799 72.0357 98.5405 72.6133 98.0626 72.6133H65.6558C65.5134 72.6133 65.3769 72.5567 65.2762 72.456Z" fill="#4D5159" stroke="black" stroke-width="1.07295"/>
<path d="M66.2936 68.2997L62.111 64.3432C61.7585 64.0098 61.9945 63.417 62.4796 63.417H79.4927C79.6298 63.417 79.7617 63.4695 79.8613 63.5637L84.0439 67.5203C84.3964 67.8537 84.1604 68.4465 83.6753 68.4465H66.6622C66.5251 68.4465 66.3932 68.394 66.2936 68.2997Z" fill="#F9E774" stroke="black" stroke-width="1.07295"/>
<path d="M74.5256 66.0745L73.7424 66.2386L73.3534 66.3961L72.9542 66.2519L72.5753 66.7109L72.166 66.2652L71.8124 67.4782L71.3778 66.2785L70.9938 66.5867L70.5896 66.2918L70.2157 66.9016L69.8014 66.305L69.4529 67.6688L69.0132 66.3183L68.6495 67.2297L68.2249 66.3316L67.8359 66.489L67.4367 66.3449L66.6435 66.2074L67.4266 66.0433L67.8156 65.8859L68.2148 66.03L68.5785 65.1186L69.003 66.0167L69.3515 64.653L69.7912 66.0035L70.1651 65.3936L70.5794 65.9902L70.9634 65.6819L71.3677 65.9769L71.7212 64.7639L72.1559 65.9636L72.5348 65.5046L72.9441 65.9503L73.3331 65.7929L73.7323 65.937L74.5256 66.0745Z" fill="black"/>
<path d="M79.9435 66.0745L79.1604 66.2386L78.7714 66.3961L78.3722 66.2519L77.9933 66.7109L77.584 66.2652L77.2304 67.4782L76.7958 66.2785L76.4118 66.5867L76.0075 66.2918L75.6337 66.9016L75.2193 66.305L74.8708 67.6688L74.4311 66.3183L74.0674 67.2297L73.6429 66.3316L73.2539 66.489L72.8547 66.3449L72.0614 66.2074L72.8446 66.0433L73.2336 65.8859L73.6328 66.03L73.9965 65.1186L74.421 66.0167L74.7695 64.653L75.2092 66.0035L75.583 65.3936L75.9974 65.9902L76.3814 65.6819L76.7856 65.9769L77.1392 64.7639L77.5738 65.9636L77.9527 65.5046L78.362 65.9503L78.7511 65.7929L79.1503 65.937L79.9435 66.0745Z" fill="black"/>
<path d="M94.3271 72.0389L84.5469 61.98H86.415L96.1952 72.0389H94.3271Z" fill="#373B43"/>
<path d="M91.3183 72.0389L81.5381 61.98H83.4062L93.1864 72.0389H91.3183Z" fill="#373B43"/>
<path d="M79.8242 49.2954L70.5088 60.5806H59.3965L68.7119 49.2954H79.8242Z" fill="#292F3A" stroke="#515151" stroke-width="1.07295"/>
<path d="M69.08 49.9087H73.4903L65.2549 59.9676H60.8447L69.08 49.9087Z" fill="#07090E"/>
<path d="M64.5181 35.2035C64.8138 35.2214 65.0387 35.4763 65.0208 35.772L64.3409 47.0249C64.3393 47.0521 64.3163 47.0732 64.2892 47.0717L62.0823 46.9384C55.5355 46.5428 50.5464 40.9252 50.9208 34.382L64.5181 35.2035Z" fill="#F9E774" stroke="black" stroke-width="1.07295"/>
<path d="M83.2623 49.3342V19.7322H50.9203C49.7352 19.7322 48.7744 20.6929 48.7744 21.8781V31.2308C48.7744 31.7772 48.9829 32.3031 49.3573 32.7011L64.3696 48.6587C64.7751 49.0898 65.3407 49.3342 65.9326 49.3342H83.2623Z" fill="#07090E" stroke="#515151" stroke-width="1.07295"/>
<rect x="49.3496" y="20.3069" width="43.1098" height="2.87399" rx="1.34119" fill="#292F3A"/>
<mask id="path-21-inside-1_11_38899" fill="white">
<path d="M74.3535 25.3265C74.3535 21.9192 77.1157 19.157 80.523 19.157H91.4633C94.8706 19.157 97.6328 21.9192 97.6328 25.3265V43.7391C97.6328 47.1465 94.8706 49.9086 91.4633 49.9086H80.523C77.1157 49.9086 74.3535 47.1465 74.3535 43.7392V25.3265Z"/>
</mask>
<path d="M74.3535 25.3265C74.3535 21.9192 77.1157 19.157 80.523 19.157H91.4633C94.8706 19.157 97.6328 21.9192 97.6328 25.3265V43.7391C97.6328 47.1465 94.8706 49.9086 91.4633 49.9086H80.523C77.1157 49.9086 74.3535 47.1465 74.3535 43.7392V25.3265Z" fill="#07090E"/>
<path d="M80.523 20.2299H91.4633V18.084H80.523V20.2299ZM96.5599 25.3265V43.7391H98.7058V25.3265H96.5599ZM91.4633 48.8357H80.523V50.9816H91.4633V48.8357ZM75.4265 43.7392V25.3265H73.2806V43.7392H75.4265ZM80.523 48.8357C77.7083 48.8357 75.4265 46.5539 75.4265 43.7392H73.2806C73.2806 47.739 76.5231 50.9816 80.523 50.9816V48.8357ZM96.5599 43.7391C96.5599 46.5539 94.2781 48.8357 91.4633 48.8357V50.9816C95.4632 50.9816 98.7058 47.739 98.7058 43.7391H96.5599ZM91.4633 20.2299C94.2781 20.2299 96.5599 22.5117 96.5599 25.3265H98.7058C98.7058 21.3266 95.4632 18.084 91.4633 18.084V20.2299ZM80.523 18.084C76.5231 18.084 73.2806 21.3266 73.2806 25.3265H75.4265C75.4265 22.5117 77.7083 20.2299 80.523 20.2299V18.084Z" fill="#515151" mask="url(#path-21-inside-1_11_38899)"/>
<path d="M75.5029 25.4034C75.5029 22.5887 77.7847 20.3069 80.5995 20.3069H91.3865C94.2012 20.3069 96.483 22.5887 96.483 25.4034V39.3902C96.483 42.5012 93.961 45.0232 90.85 45.0232H81.1359C78.0249 45.0232 75.5029 42.5012 75.5029 39.3902V25.4034Z" fill="#292F3A"/>
<rect x="51.0355" y="24.2921" width="1.80103" height="2.08843" rx="0.536477" fill="#F9E774" stroke="black" stroke-width="1.07295"/>
<rect x="70.5785" y="24.2921" width="1.80103" height="2.08843" rx="0.536477" fill="#F9E774" stroke="black" stroke-width="1.07295"/>
<rect x="71.1527" y="44.6974" width="1.80103" height="2.08843" rx="0.536477" fill="#F9E774" stroke="black" stroke-width="1.07295"/>
<path d="M67.4297 26.0549L65.9962 26.0549" stroke="#F9E774" stroke-width="0.847839" stroke-linecap="round" stroke-linejoin="round"/>
<path d="M67.4297 27.8413L65.9962 27.8413" stroke="#F9E774" stroke-width="0.847839" stroke-linecap="round" stroke-linejoin="round"/>
<path d="M67.4297 29.6279L65.9962 29.6279" stroke="#F9E774" stroke-width="0.847839" stroke-linecap="round" stroke-linejoin="round"/>
<path d="M67.4297 31.4143L65.9962 31.4143" stroke="#F9E774" stroke-width="0.847839" stroke-linecap="round" stroke-linejoin="round"/>
<path d="M64.2754 26.0549L62.8419 26.0549" stroke="#F9E774" stroke-width="0.847839" stroke-linecap="round" stroke-linejoin="round"/>
<path d="M64.2754 27.8413L62.8419 27.8413" stroke="#F9E774" stroke-width="0.847839" stroke-linecap="round" stroke-linejoin="round"/>
<path d="M64.2754 29.6279L62.8419 29.6279" stroke="#F9E774" stroke-width="0.847839" stroke-linecap="round" stroke-linejoin="round"/>
<path d="M64.2754 31.4143L62.8419 31.4143" stroke="#F9E774" stroke-width="0.847839" stroke-linecap="round" stroke-linejoin="round"/>
<path d="M64.2754 33.2012L62.8419 33.2012" stroke="#F9E774" stroke-width="0.847839" stroke-linecap="round" stroke-linejoin="round"/>
<path d="M64.2754 34.9875L62.8419 34.9875" stroke="#F9E774" stroke-width="0.847839" stroke-linecap="round" stroke-linejoin="round"/>
<path d="M64.2754 36.7742L62.8419 36.7742" stroke="#F9E774" stroke-width="0.847839" stroke-linecap="round" stroke-linejoin="round"/>
<path d="M61.1221 26.0549L59.6885 26.0549" stroke="#F9E774" stroke-width="0.847839" stroke-linecap="round" stroke-linejoin="round"/>
<path d="M57.9678 26.0549L56.5342 26.0549" stroke="#F9E774" stroke-width="0.847839" stroke-linecap="round" stroke-linejoin="round"/>
<path d="M61.1221 27.8413L59.6885 27.8413" stroke="#F9E774" stroke-width="0.847839" stroke-linecap="round" stroke-linejoin="round"/>
<path d="M57.9678 27.8413L56.5342 27.8413" stroke="#F9E774" stroke-width="0.847839" stroke-linecap="round" stroke-linejoin="round"/>
<path d="M61.1221 29.6279L59.6885 29.6279" stroke="#F9E774" stroke-width="0.847839" stroke-linecap="round" stroke-linejoin="round"/>
<path d="M57.9678 29.6279L56.5342 29.6279" stroke="#F9E774" stroke-width="0.847839" stroke-linecap="round" stroke-linejoin="round"/>
<path d="M57.9678 31.4143L56.5342 31.4143" stroke="#F9E774" stroke-width="0.847839" stroke-linecap="round" stroke-linejoin="round"/>
<path d="M57.9678 33.2012L56.5342 33.2012" stroke="#F9E774" stroke-width="0.847839" stroke-linecap="round" stroke-linejoin="round"/>
<rect x="80.35" y="23.7174" width="13.297" height="17.8954" rx="4.02358" fill="#282D38" stroke="black" stroke-width="1.07295"/>
<path d="M93.0336 30.6533C89.776 34.3189 83.6291 32.1806 80.9629 30.6533V37.7808C80.9629 39.5585 82.404 40.9997 84.1818 40.9997H89.8148C91.5925 40.9997 93.0336 39.5585 93.0336 37.7808V30.6533Z" fill="black"/>
<path d="M85.4857 30.6714C85.4799 30.0218 84.9708 29.5163 84.3182 29.5122C83.5932 29.5077 82.9807 30.1191 82.9872 30.8409L83.0042 32.7342C83.01 33.3838 83.5191 33.8893 84.1717 33.8934C84.8967 33.8979 85.5092 33.2865 85.5027 32.5647L85.4857 30.6714Z" fill="#F9E774"/>
<path d="M91.809 30.6714C91.8031 30.0218 91.294 29.5163 90.6415 29.5122C89.9164 29.5077 89.3039 30.1191 89.3104 30.8409L89.3274 32.7342C89.3333 33.3838 89.8424 33.8893 90.4949 33.8934C91.22 33.8979 91.8325 33.2865 91.826 32.5647L91.809 30.6714Z" fill="#F9E774"/>
</g>
<path d="M27.763 98.7799H34.333V100.292H27.763V98.7799ZM18.133 95.8819H26.341V97.0339H18.133V95.8819ZM17.935 102.146H26.161V103.28H17.935V102.146ZM30.679 99.4819H32.407V104.396H30.679V99.4819ZM20.473 104.702H31.831V111.614H29.851V106.178H22.363V111.632H20.473V104.702ZM21.445 107.222H30.805V108.518H21.445V107.222ZM21.445 109.58H30.787V111.038H21.445V109.58ZM20.041 99.9679V100.67H24.487V99.9679H20.041ZM20.041 98.4559V99.1399H24.487V98.4559H20.041ZM18.601 97.6099H25.963V101.516H18.601V97.6099ZM21.427 94.8019H23.083V104.342H21.427V94.8019ZM33.127 94.9459L33.955 96.3139C33.379 96.4699 32.731 96.6139 32.011 96.7459C31.303 96.8659 30.577 96.9679 29.833 97.0519C29.089 97.1359 28.369 97.1959 27.673 97.2319C27.649 97.0519 27.595 96.8419 27.511 96.6019C27.427 96.3499 27.343 96.1279 27.259 95.9359C27.943 95.8879 28.639 95.8159 29.347 95.7199C30.067 95.6239 30.757 95.5099 31.417 95.3779C32.077 95.2459 32.647 95.1019 33.127 94.9459ZM27.241 95.9359H28.951V98.6719C28.951 99.2719 28.909 99.9259 28.825 100.634C28.753 101.33 28.609 102.02 28.393 102.704C28.177 103.376 27.859 103.976 27.439 104.504C27.343 104.408 27.199 104.3 27.007 104.18C26.827 104.048 26.641 103.922 26.449 103.802C26.257 103.682 26.095 103.592 25.963 103.532C26.359 103.052 26.647 102.53 26.827 101.966C27.007 101.39 27.121 100.814 27.169 100.238C27.217 99.6619 27.241 99.1279 27.241 98.6359V95.9359ZM43.143 100.4H52.305V102.074H43.143V100.4ZM42.513 96.7999H52.827V98.5099H42.513V96.7999ZM42.549 103.658H52.755V105.35H42.549V103.658ZM46.707 94.8019H48.615V101.354H46.707V94.8019ZM49.029 101.84H50.919V109.544C50.919 110.024 50.853 110.396 50.721 110.66C50.601 110.936 50.379 111.146 50.055 111.29C49.719 111.434 49.305 111.524 48.813 111.56C48.321 111.596 47.733 111.614 47.049 111.614C47.013 111.35 46.929 111.044 46.797 110.696C46.677 110.348 46.551 110.048 46.419 109.796C46.899 109.808 47.355 109.82 47.787 109.832C48.219 109.832 48.507 109.832 48.651 109.832C48.795 109.82 48.891 109.796 48.939 109.76C48.999 109.712 49.029 109.628 49.029 109.508V101.84ZM43.377 106.574L44.979 105.692C45.231 105.98 45.501 106.304 45.789 106.664C46.077 107.024 46.347 107.378 46.599 107.726C46.851 108.074 47.055 108.38 47.211 108.644L45.501 109.652C45.369 109.376 45.183 109.064 44.943 108.716C44.703 108.356 44.445 107.99 44.169 107.618C43.893 107.234 43.629 106.886 43.377 106.574ZM37.581 95.9539H42.189V108.122H37.581V106.394H40.389V97.6819H37.581V95.9539ZM37.689 101.084H41.253V102.794H37.689V101.084ZM36.681 95.9539H38.463V109.688H36.681V95.9539ZM62.915 96.4039H69.071V98.1679H62.915V96.4039ZM60.485 103.208H68.945V104.954H60.485V103.208ZM68.297 96.4039H70.223C70.223 96.4039 70.217 96.4939 70.205 96.6739C70.205 96.8539 70.193 97.0099 70.169 97.1419C70.121 98.1379 70.055 98.9599 69.971 99.6079C69.887 100.244 69.791 100.748 69.683 101.12C69.575 101.492 69.437 101.768 69.269 101.948C69.077 102.152 68.873 102.296 68.657 102.38C68.441 102.464 68.183 102.518 67.883 102.542C67.643 102.578 67.313 102.596 66.893 102.596C66.473 102.596 66.029 102.59 65.561 102.578C65.537 102.302 65.471 101.996 65.363 101.66C65.267 101.324 65.141 101.036 64.985 100.796C65.405 100.832 65.801 100.856 66.173 100.868C66.545 100.88 66.821 100.886 67.001 100.886C67.145 100.886 67.265 100.88 67.361 100.868C67.457 100.844 67.553 100.796 67.649 100.724C67.745 100.616 67.829 100.418 67.901 100.13C67.985 99.8299 68.057 99.3979 68.117 98.8339C68.177 98.2699 68.237 97.5439 68.297 96.6559V96.4039ZM62.483 94.8199L64.463 95.0539C64.223 96.7939 63.815 98.3419 63.239 99.6979C62.675 101.042 61.919 102.152 60.971 103.028C60.851 102.92 60.689 102.788 60.485 102.632C60.293 102.476 60.089 102.326 59.873 102.182C59.657 102.026 59.465 101.9 59.297 101.804C60.233 101.072 60.953 100.106 61.457 98.9059C61.961 97.6939 62.303 96.3319 62.483 94.8199ZM68.261 103.208H68.657L68.999 103.136L70.277 103.658C69.881 104.846 69.353 105.884 68.693 106.772C68.033 107.648 67.265 108.404 66.389 109.04C65.513 109.664 64.547 110.186 63.491 110.606C62.435 111.026 61.313 111.362 60.125 111.614C60.065 111.446 59.981 111.254 59.873 111.038C59.765 110.822 59.645 110.606 59.513 110.39C59.393 110.186 59.273 110.012 59.153 109.868C60.245 109.688 61.271 109.43 62.231 109.094C63.203 108.746 64.085 108.314 64.877 107.798C65.669 107.282 66.353 106.664 66.929 105.944C67.517 105.224 67.961 104.408 68.261 103.496V103.208ZM63.293 104.774C63.773 105.614 64.409 106.376 65.201 107.06C66.005 107.732 66.929 108.308 67.973 108.788C69.017 109.256 70.157 109.616 71.393 109.868C71.261 110 71.111 110.168 70.943 110.372C70.775 110.588 70.619 110.804 70.475 111.02C70.343 111.236 70.229 111.434 70.133 111.614C68.837 111.29 67.649 110.834 66.569 110.246C65.501 109.67 64.547 108.974 63.707 108.158C62.867 107.342 62.153 106.412 61.565 105.368L63.293 104.774ZM55.427 96.3319L56.489 94.9279C56.885 95.0719 57.293 95.2519 57.713 95.4679C58.133 95.6839 58.535 95.9119 58.919 96.1519C59.303 96.3799 59.615 96.6019 59.855 96.8179L58.721 98.3839C58.493 98.1679 58.193 97.9339 57.821 97.6819C57.449 97.4299 57.053 97.1839 56.633 96.9439C56.225 96.7039 55.823 96.4999 55.427 96.3319ZM54.383 101.21L55.409 99.7699C55.793 99.9019 56.201 100.076 56.633 100.292C57.065 100.496 57.473 100.712 57.857 100.94C58.253 101.168 58.571 101.384 58.811 101.588L57.731 103.172C57.503 102.968 57.197 102.746 56.813 102.506C56.441 102.266 56.039 102.032 55.607 101.804C55.187 101.576 54.779 101.378 54.383 101.21ZM54.995 110.138C55.307 109.67 55.649 109.124 56.021 108.5C56.393 107.876 56.771 107.21 57.155 106.502C57.551 105.794 57.917 105.098 58.253 104.414L59.693 105.656C59.405 106.292 59.087 106.94 58.739 107.6C58.403 108.26 58.055 108.914 57.695 109.562C57.347 110.21 56.999 110.822 56.651 111.398L54.995 110.138ZM73.201 97.0519H89.185V98.8519H73.201V97.0519ZM77.683 103.514H85.891V105.134H77.683V103.514ZM85.243 100.472H87.133V109.472C87.133 109.964 87.073 110.354 86.953 110.642C86.833 110.93 86.599 111.152 86.251 111.308C85.903 111.452 85.465 111.536 84.937 111.56C84.421 111.596 83.791 111.614 83.047 111.614C83.011 111.35 82.933 111.038 82.813 110.678C82.705 110.318 82.585 110.012 82.453 109.76C82.789 109.772 83.119 109.784 83.443 109.796C83.767 109.796 84.055 109.796 84.307 109.796C84.559 109.796 84.739 109.796 84.847 109.796C84.991 109.796 85.093 109.772 85.153 109.724C85.213 109.664 85.243 109.568 85.243 109.436V100.472ZM78.871 94.8199L80.869 95.2699C80.449 96.5779 79.927 97.8799 79.303 99.1759C78.691 100.46 77.953 101.66 77.089 102.776C76.225 103.88 75.223 104.834 74.083 105.638C73.987 105.482 73.861 105.314 73.705 105.134C73.549 104.954 73.393 104.774 73.237 104.594C73.081 104.414 72.937 104.264 72.805 104.144C73.585 103.616 74.299 102.998 74.947 102.29C75.595 101.582 76.165 100.814 76.657 99.9859C77.161 99.1579 77.599 98.3059 77.971 97.4299C78.343 96.5539 78.643 95.6839 78.871 94.8199ZM77.611 106.502H85.891V108.122H77.611V106.502ZM77.575 100.472H85.693V102.182H77.575V100.472ZM76.513 100.472H78.457V105.278C78.457 105.806 78.427 106.364 78.367 106.952C78.307 107.528 78.199 108.11 78.043 108.698C77.887 109.274 77.659 109.82 77.359 110.336C77.071 110.864 76.687 111.338 76.207 111.758C76.135 111.614 76.009 111.44 75.829 111.236C75.661 111.044 75.487 110.852 75.307 110.66C75.127 110.48 74.965 110.348 74.821 110.264C75.349 109.796 75.727 109.286 75.955 108.734C76.195 108.17 76.345 107.588 76.405 106.988C76.477 106.388 76.513 105.806 76.513 105.242V100.472ZM100.353 99.4639H107.715V101.264H100.353V99.4639ZM91.299 98.6899H100.335V100.292H91.299V98.6899ZM91.839 102.65H99.831V104.234H91.839V102.65ZM92.217 105.602H99.543V107.168H92.217V105.602ZM104.367 94.8559H106.239V109.4C106.239 109.916 106.179 110.312 106.059 110.588C105.939 110.876 105.717 111.092 105.393 111.236C105.093 111.392 104.703 111.494 104.223 111.542C103.743 111.59 103.143 111.614 102.423 111.614C102.399 111.446 102.351 111.248 102.279 111.02C102.207 110.804 102.123 110.582 102.027 110.354C101.943 110.138 101.853 109.946 101.757 109.778C102.249 109.79 102.699 109.802 103.107 109.814C103.527 109.814 103.809 109.808 103.953 109.796C104.109 109.796 104.217 109.772 104.277 109.724C104.337 109.664 104.367 109.556 104.367 109.4V94.8559ZM100.641 102.938L102.243 102.398C102.483 102.83 102.705 103.286 102.909 103.766C103.113 104.246 103.287 104.72 103.431 105.188C103.587 105.644 103.689 106.058 103.737 106.43L102.027 107.042C101.979 106.67 101.883 106.25 101.739 105.782C101.607 105.314 101.445 104.834 101.253 104.342C101.073 103.838 100.869 103.37 100.641 102.938ZM91.389 96.2059L92.559 95.4319C92.871 95.7559 93.177 96.1159 93.477 96.5119C93.789 96.9079 94.017 97.2619 94.161 97.5739L92.919 98.4379C92.787 98.1259 92.577 97.7599 92.289 97.3399C92.001 96.9199 91.701 96.5419 91.389 96.2059ZM92.685 100.796L94.017 100.076C94.281 100.364 94.545 100.694 94.809 101.066C95.073 101.426 95.265 101.75 95.385 102.038L93.963 102.83C93.867 102.542 93.693 102.212 93.441 101.84C93.189 101.456 92.937 101.108 92.685 100.796ZM93.819 94.8379H95.349V99.2119H93.819V94.8379ZM94.953 103.136H96.753V109.652H94.953V103.136ZM96.321 94.8379H97.869V99.2119H96.321V94.8379ZM91.245 109.13C92.013 109.046 92.895 108.956 93.891 108.86C94.887 108.764 95.937 108.656 97.041 108.536C98.145 108.404 99.243 108.278 100.335 108.158L100.371 109.832C99.327 109.964 98.271 110.096 97.203 110.228C96.135 110.36 95.115 110.48 94.143 110.588C93.171 110.708 92.289 110.816 91.497 110.912L91.245 109.13ZM99.057 95.4859L100.569 96.3319C100.209 96.7159 99.849 97.1059 99.489 97.5019C99.141 97.8859 98.817 98.2159 98.517 98.4919L97.365 97.7719C97.545 97.5679 97.737 97.3339 97.941 97.0699C98.157 96.8059 98.361 96.5299 98.553 96.2419C98.757 95.9539 98.925 95.7019 99.057 95.4859ZM97.473 100.166L99.147 100.742C98.895 101.21 98.643 101.684 98.391 102.164C98.139 102.632 97.899 103.034 97.671 103.37L96.267 102.848C96.399 102.596 96.543 102.314 96.699 102.002C96.855 101.69 96.999 101.372 97.131 101.048C97.275 100.724 97.389 100.43 97.473 100.166ZM124.319 94.9099L125.507 96.4579C124.751 96.6979 123.911 96.9139 122.987 97.1059C122.075 97.2979 121.133 97.4599 120.161 97.5919C119.201 97.7119 118.271 97.8139 117.371 97.8979C117.335 97.6819 117.269 97.4179 117.173 97.1059C117.077 96.7939 116.981 96.5359 116.885 96.3319C117.761 96.2359 118.655 96.1219 119.567 95.9899C120.491 95.8459 121.361 95.6839 122.177 95.5039C123.005 95.3119 123.719 95.1139 124.319 94.9099ZM116.579 100.274H126.263V102.11H116.579V100.274ZM117.353 104.756H125.345V111.56H123.491V106.502H119.117V111.632H117.353V104.756ZM118.217 109.202H124.445V110.966H118.217V109.202ZM120.431 96.6199H122.195V105.674H120.431V96.6199ZM110.261 100.31H115.733V101.786H110.261V100.31ZM110.261 102.722H115.733V104.198H110.261V102.722ZM109.487 97.8259H116.363V99.3739H109.487V97.8259ZM111.071 105.188H115.841V110.606H111.071V109.04H114.167V106.736H111.071V105.188ZM110.225 105.188H111.881V111.398H110.225V105.188ZM111.467 95.4679L112.943 94.7479C113.195 95.1199 113.447 95.5279 113.699 95.9719C113.951 96.4039 114.149 96.7879 114.293 97.1239L112.745 97.9879C112.625 97.6519 112.439 97.2439 112.187 96.7639C111.935 96.2839 111.695 95.8519 111.467 95.4679Z" fill="black"/>
</svg>
