<svg width="30" height="30" viewBox="0 0 30 30" fill="none" xmlns="http://www.w3.org/2000/svg">
<mask id="mask0_11_38664" style="mask-type:alpha" maskUnits="userSpaceOnUse" x="0" y="0" width="30" height="30">
<circle cx="15" cy="15" r="15" fill="#F9E774"/>
</mask>
<g mask="url(#mask0_11_38664)">
<circle cx="15" cy="15" r="15" fill="#FFF5B3"/>
<path d="M2.80176 24.3772H4.84473C4.94169 24.3773 5.03553 24.4078 5.11328 24.4631L5.18555 24.5276L6.79395 26.2737H2.33789V24.8411L2.34766 24.7483C2.3907 24.5368 2.57761 24.3773 2.80176 24.3772Z" fill="#07090E" stroke="#515151" stroke-width="0.463671"/>
<path d="M17.9541 24.3774H19.9971C20.094 24.3775 20.1879 24.4081 20.2656 24.4634L20.3379 24.5278L21.9463 26.2739H17.4902V24.8413L17.5 24.7485C17.543 24.5371 17.73 24.3775 17.9541 24.3774Z" fill="#07090E" stroke="#515151" stroke-width="0.463671"/>
<path d="M3.34863 25.3712C3.34863 25.2432 3.45243 25.1394 3.58047 25.1394H4.4092C4.48407 25.1394 4.55434 25.1756 4.59786 25.2365L5.1495 26.0088H3.34863V25.3712Z" fill="#F9E774"/>
<path d="M18.5 25.3712C18.5 25.2432 18.6038 25.1394 18.7318 25.1394H19.5606C19.6354 25.1394 19.7057 25.1756 19.7492 25.2365L20.3009 26.0088H18.5V25.3712Z" fill="#F9E774"/>
<path d="M2.35449 33.5847V26.2571H21.7435L26.573 31.0948V33.5847H2.35449Z" fill="#07090E" stroke="#515151" stroke-width="0.463671"/>
<path d="M2.23047 33.5847V26.2571H7.4483L12.5389 31.3793V33.5847H2.23047Z" fill="black" stroke="#383C45" stroke-width="0.463671"/>
<path d="M5.45996 28.2275H5.88672C6.86719 28.2275 7.73951 28.829 8.0957 29.7285L8.16016 29.9121L9.24609 33.4775H3.08301V30.6045C3.08301 29.3741 4.0185 28.3619 5.2168 28.2402L5.45996 28.2275Z" fill="#292F3A" stroke="black" stroke-width="0.463671"/>
<path d="M12.0945 31.0328L7.71856 26.6528C7.57262 26.5067 7.67608 26.2571 7.88257 26.2571H21.887C21.9485 26.2571 22.0075 26.2815 22.051 26.3251L26.4269 30.7051C26.5729 30.8512 26.4694 31.1008 26.2629 31.1008H12.2585C12.197 31.1008 12.138 31.0763 12.0945 31.0328Z" fill="#4D5159" stroke="black" stroke-width="0.463671"/>
<path d="M12.5343 29.2368L10.7268 27.527C10.5745 27.3829 10.6765 27.1267 10.8862 27.1267H18.2382C18.2975 27.1267 18.3545 27.1494 18.3976 27.1901L20.205 28.8999C20.3574 29.044 20.2554 29.3002 20.0457 29.3002H12.6936C12.6344 29.3002 12.5774 29.2775 12.5343 29.2368Z" fill="#F9E774" stroke="black" stroke-width="0.463671"/>
<path d="M16.0912 28.2751L15.7528 28.346L15.5846 28.4141L15.4121 28.3518L15.2484 28.5502L15.0715 28.3575L14.9187 28.8817L14.7309 28.3633L14.565 28.4965L14.3903 28.369L14.2287 28.6325L14.0497 28.3748L13.8991 28.9641L13.709 28.3805L13.5519 28.7743L13.3684 28.3862L13.2003 28.4543L13.0278 28.392L12.685 28.3326L13.0234 28.2616L13.1915 28.1936L13.364 28.2559L13.5212 27.862L13.7047 28.2502L13.8553 27.6608L14.0453 28.2444L14.2068 27.9809L14.3859 28.2387L14.5518 28.1055L14.7265 28.2329L14.8793 27.7088L15.0671 28.2272L15.2309 28.0288L15.4078 28.2215L15.5759 28.1534L15.7484 28.2157L16.0912 28.2751Z" fill="black"/>
<path d="M18.433 28.2751L18.0946 28.346L17.9264 28.4141L17.7539 28.3518L17.5902 28.5502L17.4133 28.3575L17.2605 28.8817L17.0727 28.3633L16.9068 28.4965L16.7321 28.369L16.5705 28.6325L16.3915 28.3748L16.2409 28.9641L16.0508 28.3805L15.8937 28.7743L15.7102 28.3862L15.5421 28.4543L15.3696 28.392L15.0268 28.3326L15.3652 28.2616L15.5333 28.1936L15.7058 28.2559L15.863 27.862L16.0465 28.2502L16.1971 27.6608L16.3871 28.2444L16.5486 27.9809L16.7277 28.2387L16.8936 28.1055L17.0683 28.2329L17.2211 27.7088L17.4089 28.2272L17.5727 28.0288L17.7496 28.2215L17.9177 28.1534L18.0902 28.2157L18.433 28.2751Z" fill="black"/>
<path d="M24.6484 30.8525L20.4219 26.5056H21.2292L25.4556 30.8525H24.6484Z" fill="#373B43"/>
<path d="M23.3485 30.8525L19.1221 26.5056H19.9294L24.1558 30.8525H23.3485Z" fill="#373B43"/>
<path d="M18.3818 21.0239L14.3564 25.9009H9.55371L13.5791 21.0239H18.3818Z" fill="#292F3A" stroke="#515151" stroke-width="0.463671"/>
<path d="M13.7385 21.2893H15.6444L12.0855 25.6362H10.1797L13.7385 21.2893Z" fill="#07090E"/>
<path d="M11.7669 14.9343C11.8945 14.9422 11.9916 15.0526 11.9839 15.1803L11.6901 20.0435C11.6892 20.0551 11.679 20.0643 11.6673 20.0636L10.714 20.006C7.88475 19.8351 5.72797 17.4069 5.88992 14.5792L11.7669 14.9343Z" fill="#F9E774" stroke="black" stroke-width="0.463671"/>
<path d="M19.8666 21.0409V8.24854H5.89023C5.37808 8.24854 4.96289 8.66372 4.96289 9.17588V13.2176C4.96289 13.4537 5.05299 13.681 5.2148 13.853L11.7023 20.749C11.8775 20.9352 12.1219 21.0409 12.3777 21.0409H19.8666Z" fill="#07090E" stroke="#515151" stroke-width="0.463671"/>
<rect x="5.21191" y="8.49683" width="18.6296" height="1.24198" rx="0.579589" fill="#292F3A"/>
<mask id="path-21-inside-1_11_38664" fill="white">
<path d="M16.0166 10.6661C16.0166 9.19365 17.2103 8 18.6827 8H23.4105C24.8829 8 26.0766 9.19366 26.0766 10.6661V18.623C26.0766 20.0955 24.8829 21.2891 23.4105 21.2891H18.6827C17.2103 21.2891 16.0166 20.0955 16.0166 18.623V10.6661Z"/>
</mask>
<path d="M16.0166 10.6661C16.0166 9.19365 17.2103 8 18.6827 8H23.4105C24.8829 8 26.0766 9.19366 26.0766 10.6661V18.623C26.0766 20.0955 24.8829 21.2891 23.4105 21.2891H18.6827C17.2103 21.2891 16.0166 20.0955 16.0166 18.623V10.6661Z" fill="#07090E"/>
<path d="M18.6827 8.46367H23.4105V7.53633H18.6827V8.46367ZM25.6129 10.6661V18.623H26.5403V10.6661H25.6129ZM23.4105 20.8255H18.6827V21.7528H23.4105V20.8255ZM16.4803 18.623V10.6661H15.5529V18.623H16.4803ZM18.6827 20.8255C17.4663 20.8255 16.4803 19.8394 16.4803 18.623H15.5529C15.5529 20.3516 16.9542 21.7528 18.6827 21.7528V20.8255ZM25.6129 18.623C25.6129 19.8394 24.6269 20.8255 23.4105 20.8255V21.7528C25.139 21.7528 26.5403 20.3516 26.5403 18.623H25.6129ZM23.4105 8.46367C24.6269 8.46367 25.6129 9.44974 25.6129 10.6661H26.5403C26.5403 8.93758 25.139 7.53633 23.4105 7.53633V8.46367ZM18.6827 7.53633C16.9542 7.53633 15.5529 8.93758 15.5529 10.6661H16.4803C16.4803 9.44973 17.4663 8.46367 18.6827 8.46367V7.53633Z" fill="#515151" mask="url(#path-21-inside-1_11_38664)"/>
<path d="M16.5137 10.6993C16.5137 9.48289 17.4997 8.49683 18.7161 8.49683H23.3777C24.594 8.49683 25.5801 9.48289 25.5801 10.6993V16.7435C25.5801 18.088 24.4902 19.1778 23.1458 19.1778H18.9479C17.6035 19.1778 16.5137 18.088 16.5137 16.7435V10.6993Z" fill="#292F3A"/>
<rect x="5.93984" y="10.2191" width="0.778305" height="0.902502" rx="0.231835" fill="#F9E774" stroke="black" stroke-width="0.463671"/>
<rect x="14.3852" y="10.2191" width="0.778305" height="0.902502" rx="0.231835" fill="#F9E774" stroke="black" stroke-width="0.463671"/>
<rect x="14.6332" y="19.037" width="0.778305" height="0.902502" rx="0.231835" fill="#F9E774" stroke="black" stroke-width="0.463671"/>
<path d="M13.0244 10.981L12.4049 10.981" stroke="#F9E774" stroke-width="0.366388" stroke-linecap="round" stroke-linejoin="round"/>
<path d="M13.0244 11.7529L12.4049 11.7529" stroke="#F9E774" stroke-width="0.366388" stroke-linecap="round" stroke-linejoin="round"/>
<path d="M13.0244 12.5249L12.4049 12.5249" stroke="#F9E774" stroke-width="0.366388" stroke-linecap="round" stroke-linejoin="round"/>
<path d="M13.0244 13.2969L12.4049 13.2969" stroke="#F9E774" stroke-width="0.366388" stroke-linecap="round" stroke-linejoin="round"/>
<path d="M11.6611 10.981L11.0416 10.981" stroke="#F9E774" stroke-width="0.366388" stroke-linecap="round" stroke-linejoin="round"/>
<path d="M11.6611 11.7529L11.0416 11.7529" stroke="#F9E774" stroke-width="0.366388" stroke-linecap="round" stroke-linejoin="round"/>
<path d="M11.6611 12.5249L11.0416 12.5249" stroke="#F9E774" stroke-width="0.366388" stroke-linecap="round" stroke-linejoin="round"/>
<path d="M11.6611 13.2969L11.0416 13.2969" stroke="#F9E774" stroke-width="0.366388" stroke-linecap="round" stroke-linejoin="round"/>
<path d="M11.6611 14.0691L11.0416 14.0691" stroke="#F9E774" stroke-width="0.366388" stroke-linecap="round" stroke-linejoin="round"/>
<path d="M11.6611 14.8411L11.0416 14.8411" stroke="#F9E774" stroke-width="0.366388" stroke-linecap="round" stroke-linejoin="round"/>
<path d="M11.6611 15.613L11.0416 15.613" stroke="#F9E774" stroke-width="0.366388" stroke-linecap="round" stroke-linejoin="round"/>
<path d="M10.2988 10.981L9.67934 10.981" stroke="#F9E774" stroke-width="0.366388" stroke-linecap="round" stroke-linejoin="round"/>
<path d="M8.93555 10.981L8.31606 10.981" stroke="#F9E774" stroke-width="0.366388" stroke-linecap="round" stroke-linejoin="round"/>
<path d="M10.2988 11.7529L9.67934 11.7529" stroke="#F9E774" stroke-width="0.366388" stroke-linecap="round" stroke-linejoin="round"/>
<path d="M8.93555 11.7529L8.31606 11.7529" stroke="#F9E774" stroke-width="0.366388" stroke-linecap="round" stroke-linejoin="round"/>
<path d="M10.2988 12.5249L9.67934 12.5249" stroke="#F9E774" stroke-width="0.366388" stroke-linecap="round" stroke-linejoin="round"/>
<path d="M8.93555 12.5249L8.31606 12.5249" stroke="#F9E774" stroke-width="0.366388" stroke-linecap="round" stroke-linejoin="round"/>
<path d="M8.93555 13.2969L8.31606 13.2969" stroke="#F9E774" stroke-width="0.366388" stroke-linecap="round" stroke-linejoin="round"/>
<path d="M8.93555 14.0691L8.31606 14.0691" stroke="#F9E774" stroke-width="0.366388" stroke-linecap="round" stroke-linejoin="round"/>
<rect x="18.6078" y="9.97085" width="5.74621" height="7.73337" rx="1.73877" fill="#282D38" stroke="black" stroke-width="0.463671"/>
<path d="M24.0893 12.968C22.6816 14.5521 20.0252 13.628 18.873 12.968V16.0481C18.873 16.8164 19.4958 17.4391 20.2641 17.4391H22.6983C23.4666 17.4391 24.0893 16.8164 24.0893 16.0481V12.968Z" fill="black"/>
<path d="M20.8269 12.976C20.8244 12.6952 20.6043 12.4768 20.3223 12.475C20.009 12.473 19.7443 12.7373 19.7471 13.0492L19.7545 13.8673C19.757 14.1481 19.977 14.3665 20.259 14.3683C20.5723 14.3703 20.837 14.106 20.8342 13.7941L20.8269 12.976Z" fill="#F9E774"/>
<path d="M23.5593 12.976C23.5568 12.6952 23.3368 12.4768 23.0548 12.475C22.7415 12.473 22.4768 12.7373 22.4796 13.0492L22.4869 13.8673C22.4894 14.1481 22.7095 14.3665 22.9914 14.3683C23.3048 14.3703 23.5695 14.106 23.5666 13.7941L23.5593 12.976Z" fill="#F9E774"/>
</g>
</svg>
