<svg width="350" height="180" viewBox="0 0 350 180" fill="none" xmlns="http://www.w3.org/2000/svg">
<mask id="mask0_11_34456" style="mask-type:alpha" maskUnits="userSpaceOnUse" x="0" y="0" width="350" height="180">
<rect width="350" height="180" rx="12" fill="#FFBCB3"/>
</mask>
<g mask="url(#mask0_11_34456)">
<rect width="350" height="180" rx="12" fill="#F9E774"/>
<path d="M194.903 107.457L170.801 136.658H142.108L166.21 107.457H194.903Z" fill="#292F3A" stroke="#515151" stroke-width="2.99497"/>
<path d="M167.123 108.955H178.613L157.158 135.161H145.668L167.123 108.955Z" fill="#07090E"/>
<path d="M155.031 70.7322C155.857 70.7821 156.485 71.4922 156.435 72.3178L154.676 101.437C154.676 101.443 154.675 101.446 154.674 101.447C154.673 101.449 154.671 101.453 154.667 101.457C154.663 101.46 154.659 101.462 154.657 101.463C154.655 101.463 154.653 101.464 154.646 101.464L148.897 101.117C131.929 100.091 118.991 85.5586 119.907 68.61L155.031 70.7322Z" fill="#F9E774" stroke="black" stroke-width="2.99497"/>
<path d="M204.07 107.458V30.3369H120.211C116.902 30.3369 114.221 33.0187 114.221 36.3269V60.1352C114.221 61.6606 114.803 63.1285 115.848 64.2395L154.732 105.572C155.864 106.775 157.442 107.458 159.094 107.458H204.07Z" fill="#07090E" stroke="#515151" stroke-width="2.99497"/>
<rect x="115.719" y="31.8342" width="112.312" height="7.48744" rx="3.74372" fill="#292F3A"/>
<mask id="path-8-inside-1_11_34456" fill="white">
<path d="M180.859 46.0602C180.859 36.5493 188.57 28.8391 198.08 28.8391H224.286C233.797 28.8391 241.508 36.5493 241.508 46.0602V91.7336C241.508 101.245 233.797 108.955 224.287 108.955H198.08C188.57 108.955 180.859 101.245 180.859 91.7336V46.0602Z"/>
</mask>
<path d="M180.859 46.0602C180.859 36.5493 188.57 28.8391 198.08 28.8391H224.286C233.797 28.8391 241.508 36.5493 241.508 46.0602V91.7336C241.508 101.245 233.797 108.955 224.287 108.955H198.08C188.57 108.955 180.859 101.245 180.859 91.7336V46.0602Z" fill="#07090E"/>
<path d="M198.08 31.8341H224.286V25.8441H198.08V31.8341ZM238.513 46.0602V91.7336H244.503V46.0602H238.513ZM224.287 105.96H198.08V111.95H224.287V105.96ZM183.854 91.7336V46.0602H177.864V91.7336H183.854ZM198.08 105.96C190.224 105.96 183.854 99.5905 183.854 91.7336H177.864C177.864 102.899 186.915 111.95 198.08 111.95V105.96ZM238.513 91.7336C238.513 99.5904 232.143 105.96 224.287 105.96V111.95C235.452 111.95 244.503 102.899 244.503 91.7336H238.513ZM224.286 31.8341C232.143 31.8341 238.513 38.2033 238.513 46.0602H244.503C244.503 34.8952 235.452 25.8441 224.286 25.8441V31.8341ZM198.08 25.8441C186.915 25.8441 177.864 34.8952 177.864 46.0602H183.854C183.854 38.2034 190.224 31.8341 198.08 31.8341V25.8441Z" fill="#515151" mask="url(#path-8-inside-1_11_34456)"/>
<path d="M183.854 46.0604C183.854 38.2035 190.223 31.8342 198.08 31.8342H224.286C232.143 31.8342 238.512 38.2035 238.512 46.0604V80.5026C238.512 89.1865 231.472 96.2262 222.788 96.2262H199.577C190.893 96.2262 183.854 89.1865 183.854 80.5026V46.0604Z" fill="#292F3A"/>
<rect x="120.21" y="42.3166" width="4.49246" height="5.24121" rx="1.49749" fill="#F9E774" stroke="black" stroke-width="2.99497"/>
<rect x="171.124" y="42.3166" width="4.49246" height="5.24121" rx="1.49749" fill="#F9E774" stroke="black" stroke-width="2.99497"/>
<rect x="172.622" y="95.4775" width="4.49246" height="5.24121" rx="1.49749" fill="#F9E774" stroke="black" stroke-width="2.99497"/>
<path d="M162.82 46.8091L159.086 46.8091" stroke="#F9E774" stroke-width="2.3666" stroke-linecap="round" stroke-linejoin="round"/>
<path d="M162.82 51.4631L159.086 51.4631" stroke="#F9E774" stroke-width="2.3666" stroke-linecap="round" stroke-linejoin="round"/>
<path d="M162.82 56.1177L159.086 56.1177" stroke="#F9E774" stroke-width="2.3666" stroke-linecap="round" stroke-linejoin="round"/>
<path d="M162.82 60.7717L159.086 60.7717" stroke="#F9E774" stroke-width="2.3666" stroke-linecap="round" stroke-linejoin="round"/>
<path d="M154.604 46.8091L150.869 46.8091" stroke="#F9E774" stroke-width="2.3666" stroke-linecap="round" stroke-linejoin="round"/>
<path d="M154.604 51.4631L150.869 51.4631" stroke="#F9E774" stroke-width="2.3666" stroke-linecap="round" stroke-linejoin="round"/>
<path d="M154.604 56.1177L150.869 56.1177" stroke="#F9E774" stroke-width="2.3666" stroke-linecap="round" stroke-linejoin="round"/>
<path d="M154.604 60.7717L150.869 60.7717" stroke="#F9E774" stroke-width="2.3666" stroke-linecap="round" stroke-linejoin="round"/>
<path d="M154.604 65.4265L150.869 65.4265" stroke="#F9E774" stroke-width="2.3666" stroke-linecap="round" stroke-linejoin="round"/>
<path d="M154.604 70.0806L150.869 70.0806" stroke="#F9E774" stroke-width="2.3666" stroke-linecap="round" stroke-linejoin="round"/>
<path d="M154.604 74.7351L150.869 74.7351" stroke="#F9E774" stroke-width="2.3666" stroke-linecap="round" stroke-linejoin="round"/>
<path d="M146.387 46.8091L142.652 46.8091" stroke="#F9E774" stroke-width="2.3666" stroke-linecap="round" stroke-linejoin="round"/>
<path d="M138.172 46.8091L134.437 46.8091" stroke="#F9E774" stroke-width="2.3666" stroke-linecap="round" stroke-linejoin="round"/>
<path d="M146.387 51.4631L142.652 51.4631" stroke="#F9E774" stroke-width="2.3666" stroke-linecap="round" stroke-linejoin="round"/>
<path d="M138.172 51.4631L134.437 51.4631" stroke="#F9E774" stroke-width="2.3666" stroke-linecap="round" stroke-linejoin="round"/>
<path d="M146.387 56.1177L142.652 56.1177" stroke="#F9E774" stroke-width="2.3666" stroke-linecap="round" stroke-linejoin="round"/>
<path d="M138.172 56.1177L134.437 56.1177" stroke="#F9E774" stroke-width="2.3666" stroke-linecap="round" stroke-linejoin="round"/>
<path d="M138.172 60.7717L134.437 60.7717" stroke="#F9E774" stroke-width="2.3666" stroke-linecap="round" stroke-linejoin="round"/>
<path d="M138.172 65.4265L134.437 65.4265" stroke="#F9E774" stroke-width="2.3666" stroke-linecap="round" stroke-linejoin="round"/>
<rect x="196.583" y="40.8193" width="34.4422" height="46.4221" rx="11.2312" fill="#282D38" stroke="black" stroke-width="2.99497"/>
<path d="M229.527 58.7891C221.04 68.3388 205.026 62.7681 198.08 58.7891V76.7589C198.08 81.7211 202.103 85.7438 207.065 85.7438H220.542C225.505 85.7438 229.527 81.7211 229.527 76.7589V58.7891Z" fill="black"/>
<path d="M209.866 58.836C209.85 57.1435 208.524 55.8265 206.824 55.8159C204.935 55.8041 203.339 57.3971 203.356 59.2776L203.401 64.2099C203.416 65.9024 204.742 67.2194 206.442 67.23C208.331 67.2418 209.927 65.6488 209.91 63.7683L209.866 58.836Z" fill="#F9E774"/>
<path d="M226.336 58.836C226.321 57.1435 224.995 55.8265 223.295 55.8159C221.406 55.8041 219.81 57.3971 219.827 59.2776L219.871 64.2099C219.886 65.9024 221.213 67.2194 222.913 67.23C224.802 67.2418 226.397 65.6488 226.381 63.7683L226.336 58.836Z" fill="#F9E774"/>
<path d="M101.492 127.673H113.374C114.159 127.673 114.911 127.982 115.469 128.528L115.577 128.64L125.032 138.905H98.4971V130.668C98.4972 129.014 99.8383 127.673 101.492 127.673Z" fill="#07090E" stroke="#515151" stroke-width="2.99497"/>
<path d="M192.84 127.673H204.722C205.507 127.673 206.258 127.982 206.816 128.528L206.925 128.64L216.38 138.905H189.845V130.668C189.845 129.014 191.186 127.673 192.84 127.673Z" fill="#07090E" stroke="#515151" stroke-width="2.99497"/>
<path d="M104.488 133.664C104.488 132.836 105.159 132.166 105.986 132.166H110.831C111.314 132.166 111.768 132.4 112.049 132.793L115.345 137.407H104.488V133.664Z" fill="#F9E774"/>
<path d="M195.834 133.664C195.834 132.836 196.504 132.166 197.331 132.166H202.176C202.66 132.166 203.114 132.4 203.395 132.793L206.691 137.407H195.834V133.664Z" fill="#F9E774"/>
<path d="M98.498 183.08V138.905H215.388L244.503 168.069V183.08H98.498Z" fill="#07090E" stroke="#515151" stroke-width="2.99497"/>
<path d="M97.748 183.08V138.905H129.205L159.894 169.785V183.08H97.748Z" fill="black" stroke="#383C45" stroke-width="2.99497"/>
<path d="M118.339 150.884H118.96C125.504 150.884 131.303 155.03 133.447 161.164L133.644 161.765L139.903 182.331H102.989V166.234C102.989 157.757 109.862 150.884 118.339 150.884Z" fill="#292F3A" stroke="black" stroke-width="2.99497"/>
<path d="M157.182 167.666L131.001 141.46C130.058 140.517 130.726 138.905 132.06 138.905H216.206C216.603 138.905 216.984 139.063 217.265 139.344L243.447 165.55C244.389 166.493 243.721 168.106 242.387 168.106H158.242C157.844 168.106 157.463 167.948 157.182 167.666Z" fill="#4D5159" stroke="black" stroke-width="2.99497"/>
<path d="M159.835 156.839L149.149 146.731C148.165 145.801 148.824 144.146 150.178 144.146H194.211C194.594 144.146 194.962 144.293 195.24 144.556L205.925 154.664C206.909 155.594 206.251 157.249 204.896 157.249H160.864C160.481 157.249 160.113 157.102 159.835 156.839Z" fill="#F9E774" stroke="black" stroke-width="2.99497"/>
<path d="M181.309 151.069L179.269 151.497L178.256 151.907L177.216 151.531L176.229 152.727L175.162 151.566L174.241 154.726L173.109 151.601L172.108 152.404L171.055 151.635L170.081 153.224L169.002 151.67L168.094 155.223L166.948 151.704L166.001 154.079L164.895 151.739L163.881 152.149L162.841 151.774L160.775 151.415L162.815 150.988L163.828 150.578L164.868 150.953L165.816 148.579L166.922 150.919L167.83 147.366L168.975 150.884L169.949 149.295L171.029 150.849L172.029 150.046L173.082 150.815L174.003 147.655L175.136 150.78L176.123 149.584L177.189 150.746L178.203 150.335L179.243 150.711L181.309 151.069Z" fill="black"/>
<path d="M195.425 151.069L193.384 151.497L192.371 151.907L191.331 151.531L190.344 152.727L189.277 151.566L188.356 154.726L187.224 151.601L186.224 152.404L185.17 151.635L184.197 153.224L183.117 151.67L182.209 155.223L181.064 151.704L180.116 154.079L179.01 151.739L177.996 152.149L176.957 151.774L174.89 151.415L176.93 150.988L177.944 150.578L178.984 150.953L179.931 148.579L181.037 150.919L181.945 147.366L183.091 150.884L184.065 149.295L185.144 150.849L186.144 150.046L187.198 150.815L188.119 147.655L189.251 150.78L190.238 149.584L191.305 150.746L192.318 150.335L193.358 150.711L195.425 151.069Z" fill="black"/>
<path d="M232.898 166.608L207.418 140.402H212.285L237.765 166.608H232.898Z" fill="#373B43"/>
<path d="M225.058 166.608L199.578 140.402H204.445L229.925 166.608H225.058Z" fill="#373B43"/>
</g>
</svg>
