<svg width="350" height="180" viewBox="0 0 350 180" fill="none" xmlns="http://www.w3.org/2000/svg">
<mask id="mask0_11_33615" style="mask-type:alpha" maskUnits="userSpaceOnUse" x="0" y="0" width="350" height="180">
<rect width="350" height="180" rx="12" fill="#FFBCB3"/>
</mask>
<g mask="url(#mask0_11_33615)">
<rect width="350" height="180" rx="12" fill="#FFBCB3"/>
<rect x="150.341" y="114.405" width="36.8621" height="8.12696" rx="2.81026" fill="#C84533" stroke="black" stroke-width="2.81026"/>
<path d="M151.672 116.475C151.672 115.311 152.616 114.367 153.78 114.367H162.616V121.887H153.78C152.616 121.887 151.672 120.943 151.672 119.779V116.475Z" fill="#8F3427"/>
<rect x="161.97" y="114.405" width="36.8621" height="8.81053" rx="2.81026" fill="#C84533" stroke="black" stroke-width="2.81026"/>
<rect x="153.761" y="123.291" width="28.654" height="11.5448" rx="2.81026" fill="#C84533" stroke="black" stroke-width="2.81026"/>
<path d="M154.408 126.729C154.408 125.564 155.352 124.621 156.516 124.621H165.352V133.507H156.516C155.352 133.507 154.408 132.564 154.408 131.4V126.729Z" fill="#8F3427"/>
<rect x="165.39" y="123.291" width="28.654" height="11.5448" rx="2.81026" fill="#C84533" stroke="black" stroke-width="2.81026"/>
<rect x="149.657" y="134.912" width="36.8621" height="11.5448" rx="2.81026" fill="#C84533" stroke="black" stroke-width="2.81026"/>
<path d="M150.303 138.349C150.303 137.185 151.246 136.242 152.41 136.242H161.247V145.128H152.41C151.246 145.128 150.303 144.185 150.303 143.02V138.349Z" fill="#8F3427"/>
<rect x="161.284" y="134.912" width="36.8621" height="11.5448" rx="2.81026" fill="#C84533" stroke="black" stroke-width="2.81026"/>
<rect x="181.084" y="124.621" width="8.89207" height="8.88649" fill="white"/>
<rect x="181.084" y="136.242" width="9.57608" height="8.88649" fill="white"/>
<rect x="162.617" y="136.242" width="9.57608" height="8.88649" fill="#8F3427"/>
<rect x="169.457" y="115.734" width="6.15605" height="6.15218" fill="#8F3427"/>
<path d="M226.57 157.328C232.783 157.328 237.819 162.364 237.819 168.577V184.594H215.321V168.577C215.321 162.364 220.358 157.328 226.57 157.328Z" fill="#C84533" stroke="black" stroke-width="2.81026"/>
<rect x="116.825" y="144.34" width="112.103" height="40.255" rx="7.7282" fill="#C84533" stroke="black" stroke-width="2.81026"/>
<path d="M148.936 150.454H227.596V176.943C227.596 180.435 224.765 183.266 221.273 183.266H158.069C153.025 183.266 148.936 179.177 148.936 174.132V150.454Z" fill="#FF5D47"/>
<rect x="127.732" y="142.935" width="95.7608" height="43.0653" rx="9.13333" fill="black"/>
<rect x="129.138" y="144.34" width="90.2145" height="40.255" rx="7.7282" fill="#C84533" stroke="black" stroke-width="2.81026"/>
<path d="M139.359 150.454H218.02V176.943C218.02 180.435 215.189 183.266 211.697 183.266H148.493C143.449 183.266 139.359 179.177 139.359 174.132V150.454Z" fill="#FF5D47"/>
<rect x="129.138" y="144.34" width="78.5864" height="40.255" rx="7.7282" fill="#C84533" stroke="black" stroke-width="2.81026"/>
<path d="M127.732 150.454H206.393V176.943C206.393 180.435 203.562 183.266 200.07 183.266H136.866C131.822 183.266 127.732 179.177 127.732 174.132V150.454Z" fill="#FF5D47"/>
<rect x="116.825" y="144.34" width="51.2262" height="40.255" rx="7.7282" fill="#C84533" stroke="black" stroke-width="2.81026"/>
<path d="M139.359 150.454H166.72V176.943C166.72 180.435 163.889 183.266 160.397 183.266H148.493C143.449 183.266 139.359 179.177 139.359 174.132V150.454Z" fill="#FF5D47"/>
<rect x="116.825" y="144.34" width="32.074" height="40.255" rx="7.7282" fill="#C84533" stroke="black" stroke-width="2.81026"/>
<rect x="116.825" y="144.34" width="32.074" height="40.255" rx="7.7282" fill="#C84533" stroke="black" stroke-width="2.81026"/>
<rect x="115.42" y="151.821" width="25.9922" height="27.343" rx="12.9961" fill="black"/>
<path d="M125.68 155.961C132.459 155.961 137.955 161.456 137.955 168.235V184.594H113.405V168.235C113.405 161.456 118.901 155.961 125.68 155.961Z" fill="#C84533" stroke="black" stroke-width="2.81026"/>
<path d="M192.855 153.136C193.206 153.188 193.543 153.313 193.844 153.502L193.843 153.503L201.217 158.113L201.39 158.232C201.725 158.482 201.993 158.808 202.174 159.182L202.257 159.373L202.324 159.57C202.462 160.033 202.468 160.527 202.342 160.994L201.021 165.875L200.977 166.019C200.866 166.351 200.689 166.659 200.455 166.923C200.188 167.224 199.854 167.461 199.478 167.612C199.102 167.763 198.695 167.823 198.29 167.787C197.935 167.756 197.591 167.652 197.28 167.482L197.148 167.405L192.733 164.642L191.006 171.022L190.924 171.301C190.487 172.686 189.621 173.901 188.448 174.762C187.195 175.681 185.666 176.143 184.117 176.065C182.664 175.991 181.279 175.447 180.166 174.518L179.947 174.327C178.8 173.283 178.049 171.872 177.814 170.336C177.579 168.801 177.872 167.228 178.645 165.88L178.796 165.632C179.571 164.404 180.718 163.451 182.073 162.92L182.346 162.821C183.718 162.352 185.206 162.336 186.59 162.785C186.99 162.915 187.374 163.082 187.738 163.282L189.971 155.031L190.015 154.887C190.125 154.554 190.303 154.247 190.536 153.984L190.64 153.873C190.888 153.624 191.185 153.427 191.514 153.295L191.656 153.242C191.992 153.13 192.348 153.087 192.703 153.119L192.855 153.136Z" fill="#BAFF00" stroke="black" stroke-width="3.51282"/>
<mask id="path-31-inside-1_11_33615" fill="white">
<path fill-rule="evenodd" clip-rule="evenodd" d="M138 48.0096C125.79 48.3622 116 58.3711 116 70.6667V94.3333C116 106.629 125.79 116.638 138 116.99V117H138.667H206V48H138.667H138V48.0096Z"/>
</mask>
<path fill-rule="evenodd" clip-rule="evenodd" d="M138 48.0096C125.79 48.3622 116 58.3711 116 70.6667V94.3333C116 106.629 125.79 116.638 138 116.99V117H138.667H206V48H138.667H138V48.0096Z" fill="#C84533"/>
<path d="M138 48.0096L138.081 50.8187L140.81 50.7399V48.0096H138ZM138 116.99H140.81V114.26L138.081 114.181L138 116.99ZM138 117H135.19V119.81H138V117ZM206 117V119.81H208.81V117H206ZM206 48H208.81V45.1897H206V48ZM138 48V45.1897H135.19V48H138ZM118.81 70.6667C118.81 59.896 127.387 51.1275 138.081 50.8187L137.919 45.2005C124.193 45.5969 113.19 56.8463 113.19 70.6667H118.81ZM118.81 94.3333V70.6667H113.19V94.3333H118.81ZM138.081 114.181C127.387 113.872 118.81 105.104 118.81 94.3333H113.19C113.19 108.154 124.193 119.403 137.919 119.799L138.081 114.181ZM140.81 117V116.99H135.19V117H140.81ZM138.667 114.19H138V119.81H138.667V114.19ZM206 114.19H138.667V119.81H206V114.19ZM203.19 48V117H208.81V48H203.19ZM138.667 50.8103H206V45.1897H138.667V50.8103ZM138 50.8103H138.667V45.1897H138V50.8103ZM140.81 48.0096V48H135.19V48.0096H140.81Z" fill="black" mask="url(#path-31-inside-1_11_33615)"/>
<mask id="path-33-inside-2_11_33615" fill="white">
<path fill-rule="evenodd" clip-rule="evenodd" d="M137.734 47.1776C125.996 48.2037 116.789 58.0573 116.789 70.0613V82.905C116.789 94.909 125.996 104.763 137.734 105.789V105.877H139.761H208.001V47.0894H139.761H137.734V47.1776Z"/>
</mask>
<path fill-rule="evenodd" clip-rule="evenodd" d="M137.734 47.1776C125.996 48.2037 116.789 58.0573 116.789 70.0613V82.905C116.789 94.909 125.996 104.763 137.734 105.789V105.877H139.761H208.001V47.0894H139.761H137.734V47.1776Z" fill="#FF5D47"/>
<path d="M137.734 47.1776L137.979 49.9771L140.544 49.7528V47.1776H137.734ZM137.734 105.789H140.544V103.213L137.979 102.989L137.734 105.789ZM137.734 105.877H134.924V108.687H137.734V105.877ZM208.001 105.877V108.687H210.811V105.877H208.001ZM208.001 47.0894H210.811V44.2791H208.001V47.0894ZM137.734 47.0894V44.2791H134.924V47.0894H137.734ZM119.599 70.0613C119.599 59.5273 127.68 50.8775 137.979 49.9771L137.489 44.378C124.313 45.53 113.979 56.5873 113.979 70.0613H119.599ZM119.599 82.905V70.0613H113.979V82.905H119.599ZM137.979 102.989C127.68 102.089 119.599 93.439 119.599 82.905H113.979C113.979 96.379 124.313 107.436 137.489 108.588L137.979 102.989ZM140.544 105.877V105.789H134.924V105.877H140.544ZM139.761 103.067H137.734V108.687H139.761V103.067ZM208.001 103.067H139.761V108.687H208.001V103.067ZM205.191 47.0894V105.877H210.811V47.0894H205.191ZM139.761 49.8996H208.001V44.2791H139.761V49.8996ZM137.734 49.8996H139.761V44.2791H137.734V49.8996ZM140.544 47.1776V47.0894H134.924V47.1776H140.544Z" fill="black" mask="url(#path-33-inside-2_11_33615)"/>
<path fill-rule="evenodd" clip-rule="evenodd" d="M140.581 49.599C132.672 49.5272 125.366 53.8183 121.576 60.7614H159.899C159.916 60.7614 159.933 60.7613 159.95 60.7612H214.601V49.824H160.638C160.412 49.7936 160.182 49.7769 159.949 49.7748L140.581 49.599Z" fill="#FFCFC8"/>
<rect x="166.073" y="48.4945" width="65.5903" height="66.9145" rx="25.2923" fill="#FF5D47" stroke="black" stroke-width="2.81026"/>
<path fill-rule="evenodd" clip-rule="evenodd" d="M186.555 49.8237C182.632 49.8237 178.878 51.4607 176.246 54.3701C173.152 57.7917 171.773 59.4369 170.824 60.7609L187.322 60.7609L189.891 60.7609L210.497 60.7609V49.8237H189.891H187.322H186.555Z" fill="#FFCFC8"/>
<mask id="path-38-inside-3_11_33615" fill="white">
<path fill-rule="evenodd" clip-rule="evenodd" d="M233.753 76.5764V88.9557C233.753 104.444 221.197 117 205.708 117C190.22 117 177.664 104.444 177.664 88.9557V75.1702C177.664 59.6818 190.22 47.1259 205.708 47.1259C211.873 47.1259 217.573 49.1151 222.202 52.4867V36.0952C221.75 29.5916 223.273 29.5992 226.33 30.3112C231.491 37.4334 236.113 43.2693 245.38 45.0709C245.145 45.3423 244.911 45.6169 244.678 45.8917C241.983 49.0613 239.279 52.2422 233.759 50.5512V76.5827L233.753 76.5764Z"/>
</mask>
<path fill-rule="evenodd" clip-rule="evenodd" d="M233.753 76.5764V88.9557C233.753 104.444 221.197 117 205.708 117C190.22 117 177.664 104.444 177.664 88.9557V75.1702C177.664 59.6818 190.22 47.1259 205.708 47.1259C211.873 47.1259 217.573 49.1151 222.202 52.4867V36.0952C221.75 29.5916 223.273 29.5992 226.33 30.3112C231.491 37.4334 236.113 43.2693 245.38 45.0709C245.145 45.3423 244.911 45.6169 244.678 45.8917C241.983 49.0613 239.279 52.2422 233.759 50.5512V76.5827L233.753 76.5764Z" fill="#FF5D47"/>
<path d="M233.753 76.5764L235.741 74.5904L230.942 69.786V76.5764H233.753ZM222.202 52.4867L220.548 54.7583L225.013 58.0104V52.4867H222.202ZM222.202 36.0952H225.013V35.9976L225.006 35.9003L222.202 36.0952ZM226.33 30.3112L228.605 28.6622L227.989 27.8124L226.967 27.5743L226.33 30.3112ZM245.38 45.0709L247.504 46.9117L250.687 43.2396L245.916 42.3122L245.38 45.0709ZM244.678 45.8917L242.537 44.0713V44.0713L244.678 45.8917ZM233.759 50.5512L234.582 47.8642L230.949 46.751V50.5512H233.759ZM233.759 76.5827L231.77 78.5686L236.569 83.3731V76.5827H233.759ZM230.942 76.5764V88.9557H236.563V76.5764H230.942ZM230.942 88.9557C230.942 102.892 219.645 114.19 205.708 114.19V119.81C222.749 119.81 236.563 105.996 236.563 88.9557H230.942ZM205.708 114.19C191.772 114.19 180.474 102.892 180.474 88.9557H174.854C174.854 105.996 188.668 119.81 205.708 119.81V114.19ZM180.474 88.9557V75.1702H174.854V88.9557H180.474ZM180.474 75.1702C180.474 61.2338 191.772 49.9362 205.708 49.9362V44.3157C188.668 44.3157 174.854 58.1297 174.854 75.1702H180.474ZM205.708 49.9362C211.259 49.9362 216.383 51.725 220.548 54.7583L223.857 50.2152C218.764 46.5053 212.487 44.3157 205.708 44.3157V49.9362ZM225.013 52.4867V36.0952H219.392V52.4867H225.013ZM225.006 35.9003C224.898 34.35 224.923 33.3567 225.01 32.7391C225.102 32.0836 225.217 32.1987 224.959 32.4624C224.606 32.8232 224.225 32.8104 224.336 32.8103C224.534 32.81 224.906 32.865 225.692 33.0482L226.967 27.5743C226.225 27.4014 225.261 27.1885 224.328 27.1897C223.308 27.1912 222.001 27.4495 220.941 28.5322C219.977 29.518 219.606 30.8061 219.444 31.9562C219.277 33.144 219.281 34.5885 219.399 36.29L225.006 35.9003ZM224.054 31.9602C229.219 39.0875 234.403 45.7998 244.844 47.8295L245.916 42.3122C237.822 40.7388 233.762 35.7794 228.605 28.6622L224.054 31.9602ZM243.257 43.23C243.011 43.5133 242.769 43.7983 242.537 44.0713L246.819 47.712C247.054 47.4355 247.279 47.1712 247.504 46.9117L243.257 43.23ZM242.537 44.0713C241.118 45.7395 240.079 46.9161 238.876 47.6085C237.884 48.1795 236.638 48.494 234.582 47.8642L232.936 53.2382C236.399 54.2993 239.266 53.8689 241.679 52.4799C243.882 51.2121 245.542 49.2135 246.819 47.712L242.537 44.0713ZM230.949 50.5512V76.5827H236.569V50.5512H230.949ZM235.747 74.5967L235.741 74.5904L231.764 78.5623L231.77 78.5686L235.747 74.5967Z" fill="black" mask="url(#path-38-inside-3_11_33615)"/>
<rect x="127.768" y="64.2169" width="27.97" height="29.3178" rx="13.985" fill="#C84533" stroke="black" stroke-width="2.81026"/>
<path d="M207.077 60.7988C215.745 60.7991 222.771 67.8262 222.771 76.4941V87.4092C222.771 96.0771 215.745 103.104 207.077 103.104C198.409 103.104 191.382 96.0773 191.382 87.4092V76.4941C191.382 67.826 198.409 60.7988 207.077 60.7988Z" fill="#282D38" stroke="black" stroke-width="2.81026"/>
<path d="M144.678 76.1717L145.1 73.8565C144.321 72.8774 142.795 72.4569 142.13 72.369C139.515 72.0511 138.233 72.4073 136.236 73.7881C134.187 75.4583 133.377 77.3021 133.444 80.3565C133.834 82.8693 134.745 84.6387 137.19 86.0715C138.462 86.7516 140.788 87.3174 142.973 86.6257C144.459 86.0794 145.459 85.4841 146.244 84.6023C147.734 82.9304 148.113 80.5833 148.515 78.3803L148.693 77.4008C149.912 76.9506 150.504 76.5779 151.357 75.643C151.612 75.212 151.585 75.0394 151.199 74.8668C150.703 74.9319 150.395 74.9 149.782 74.7085C148.515 74.1319 148.15 73.6074 147.79 72.5022C147.523 72.0548 146.755 72.1642 146.641 72.7913L145.637 78.2979C145.34 79.9303 145.156 81.7444 143.937 82.871C143.836 82.9648 143.726 83.0582 143.606 83.1528C141.304 84.551 138.596 83.8092 137.59 82.8737C136.077 81.26 136.069 79.7358 136.503 78.0726C137.247 76.2548 138.228 75.3888 140.378 75.14C141.76 74.9801 142.742 75.305 143.814 76.2636C144.221 76.5718 144.406 76.5316 144.678 76.1717Z" fill="white"/>
<path d="M225 62C224.077 57.7333 221.282 54.8889 220 54L225 55.1111V62Z" fill="black"/>
<path d="M221.441 77.1665C213.688 85.885 199.058 80.7992 192.713 77.1665V93.3445C192.713 98.0007 196.487 101.775 201.144 101.775H213.01C217.667 101.775 221.441 98.0006 221.441 93.3445V77.1665Z" fill="black"/>
<path d="M203.478 77.2114C203.464 75.6653 202.252 74.4622 200.699 74.4526C198.974 74.4418 197.516 75.8971 197.531 77.615L197.572 82.1144C197.586 83.6604 198.797 84.8635 200.35 84.8732C202.076 84.8839 203.534 83.4286 203.518 81.7107L203.478 77.2114Z" fill="#BAFF00"/>
<path d="M218.525 77.2114C218.511 75.6653 217.299 74.4622 215.746 74.4526C214.021 74.4418 212.563 75.8971 212.578 77.615L212.619 82.1144C212.633 83.6604 213.844 84.8635 215.397 84.8732C217.123 84.8839 218.581 83.4286 218.565 81.7107L218.525 77.2114Z" fill="#BAFF00"/>
</g>
<path d="M317 135.989C310.723 136.559 307.117 137.083 304.903 138.817C302.301 140.847 301.685 144.565 301 152C300.292 144.291 299.653 140.596 296.8 138.612C294.586 137.061 291.003 136.559 285 136.011C291.254 135.441 294.883 134.917 297.074 133.206C299.699 131.153 300.315 127.458 301 120C301.639 126.865 302.21 130.537 304.332 132.659C306.455 134.78 310.153 135.373 317 135.989Z" fill="white"/>
</svg>
