<svg width="350" height="180" viewBox="0 0 350 180" fill="none" xmlns="http://www.w3.org/2000/svg">
<mask id="mask0_11_34340" style="mask-type:alpha" maskUnits="userSpaceOnUse" x="0" y="0" width="350" height="180">
<rect width="350" height="180" rx="12" fill="#FFBCB3"/>
</mask>
<g mask="url(#mask0_11_34340)">
<rect width="350" height="180" rx="12" fill="#DDFF7F"/>
<rect x="157.814" y="114.114" width="25.2653" height="8.49631" rx="2.8321" fill="#43F5AA" stroke="black" stroke-width="2.8321"/>
<path d="M158.336 116.238C158.336 115.065 159.287 114.114 160.46 114.114H166.087V121.903H160.46C159.287 121.903 158.336 120.952 158.336 119.778V116.238Z" fill="#43606A"/>
<rect x="166.051" y="114.114" width="25.2653" height="9.20434" rx="2.8321" fill="#43F5AA" stroke="black" stroke-width="2.8321"/>
<rect x="160.236" y="123.318" width="19.4521" height="12.0364" rx="2.8321" fill="#43F5AA" stroke="black" stroke-width="2.8321"/>
<path d="M160.273 126.859C160.273 125.686 161.224 124.735 162.398 124.735H168.024V133.939H162.398C161.224 133.939 160.273 132.988 160.273 131.815V126.859Z" fill="#43606A"/>
<rect x="168.473" y="123.318" width="19.4521" height="12.0364" rx="2.8321" fill="#43F5AA" stroke="black" stroke-width="2.8321"/>
<rect x="157.33" y="135.355" width="25.2653" height="12.0364" rx="2.8321" fill="#43F5AA" stroke="black" stroke-width="2.8321"/>
<path d="M157.367 138.895C157.367 137.722 158.318 136.771 159.491 136.771H165.118V145.975H159.491C158.318 145.975 157.367 145.024 157.367 143.851V138.895Z" fill="#43606A"/>
<rect x="165.564" y="135.355" width="25.2653" height="12.0364" rx="2.8321" fill="#43F5AA" stroke="black" stroke-width="2.8321"/>
<rect x="179.168" y="124.735" width="6.2977" height="9.20434" fill="#20B677"/>
<rect x="179.168" y="136.771" width="6.78214" height="9.20434" fill="#20B677"/>
<rect x="166.088" y="136.771" width="6.78214" height="9.20434" fill="#20B677"/>
<rect x="170.932" y="115.53" width="4.35995" height="6.37223" fill="#20B677"/>
<path d="M229.903 160.844C236.355 160.844 241.586 166.075 241.586 172.527V189.165H218.221V172.527C218.221 166.075 223.451 160.844 229.903 160.844Z" fill="#20B677" stroke="black" stroke-width="2.8321"/>
<rect x="116.266" y="147.391" width="116.116" height="41.7735" rx="7.78828" fill="#20B677" stroke="black" stroke-width="2.8321"/>
<path d="M149.541 153.764H230.964V181.377C230.964 184.896 228.111 187.749 224.592 187.749H158.745C153.662 187.749 149.541 183.628 149.541 178.545V153.764Z" fill="#31D691"/>
<rect x="127.592" y="145.975" width="99.1236" height="44.6056" rx="9.20434" fill="black"/>
<rect x="129.008" y="147.391" width="93.4594" height="41.7735" rx="7.78828" fill="#20B677" stroke="black" stroke-width="2.8321"/>
<path d="M139.629 153.764H221.052V181.377C221.052 184.896 218.199 187.749 214.68 187.749H148.833C143.75 187.749 139.629 183.628 139.629 178.545V153.764Z" fill="#31D691"/>
<rect x="129.008" y="147.391" width="81.423" height="41.7735" rx="7.78828" fill="#20B677" stroke="black" stroke-width="2.8321"/>
<path d="M127.592 153.764H209.015V181.377C209.015 184.896 206.162 187.749 202.643 187.749H136.796C131.713 187.749 127.592 183.628 127.592 178.545V153.764Z" fill="#31D691"/>
<rect x="116.266" y="147.391" width="53.1019" height="41.7735" rx="7.78828" fill="#20B677" stroke="black" stroke-width="2.8321"/>
<path d="M139.629 153.764H167.95V181.377C167.95 184.896 165.097 187.749 161.578 187.749H148.833C143.75 187.749 139.629 183.628 139.629 178.545V153.764Z" fill="#31D691"/>
<rect x="116.266" y="147.391" width="33.2772" height="41.7735" rx="7.78828" fill="#20B677" stroke="black" stroke-width="2.8321"/>
<rect x="116.266" y="147.391" width="33.2772" height="41.7735" rx="7.78828" fill="#20B677" stroke="black" stroke-width="2.8321"/>
<rect x="114.85" y="155.18" width="26.905" height="28.321" rx="13.4525" fill="black"/>
<path d="M125.469 159.428C132.507 159.428 138.214 165.133 138.214 172.172V189.165H112.725V172.172L112.729 171.844C112.903 164.957 118.54 159.428 125.469 159.428Z" fill="#20B677" stroke="black" stroke-width="2.8321"/>
<path d="M200.873 171.287L200.867 171.523C200.814 172.621 200.389 173.669 199.66 174.488L199.499 174.66C198.617 175.558 197.415 176.066 196.159 176.066C194.981 176.066 193.852 175.62 192.988 174.824L192.819 174.66C191.937 173.763 191.445 172.549 191.445 171.287C191.445 170.026 191.937 168.812 192.819 167.914L192.988 167.751C193.852 166.955 194.981 166.508 196.159 166.508C196.329 166.508 196.496 166.517 196.662 166.535V163.014L188.353 164.815V173.411C188.353 174.673 187.86 175.887 186.979 176.784C186.096 177.682 184.895 178.19 183.639 178.19C182.461 178.19 181.331 177.744 180.468 176.948L180.299 176.784C179.417 175.887 178.924 174.673 178.924 173.411C178.924 172.15 179.417 170.936 180.299 170.038L180.468 169.875C181.332 169.079 182.461 168.632 183.639 168.632C183.808 168.632 183.976 168.641 184.142 168.659V160.343L184.977 160.16L199.585 156.974L200.873 156.693V171.287Z" fill="#BAFF00" stroke="black" stroke-width="2.12408"/>
<mask id="path-31-inside-1_11_34340" fill="white">
<path fill-rule="evenodd" clip-rule="evenodd" d="M212.956 44.7275H154.878V44.7358C144.449 45.037 136.088 53.5855 136.088 64.0869V96.1709C136.088 106.672 144.449 115.221 154.878 115.522V115.53H155.401C155.417 115.53 155.432 115.53 155.447 115.53C155.463 115.53 155.478 115.53 155.493 115.53H212.956V44.7275Z"/>
</mask>
<path fill-rule="evenodd" clip-rule="evenodd" d="M212.956 44.7275H154.878V44.7358C144.449 45.037 136.088 53.5855 136.088 64.0869V96.1709C136.088 106.672 144.449 115.221 154.878 115.522V115.53H155.401C155.417 115.53 155.432 115.53 155.447 115.53C155.463 115.53 155.478 115.53 155.493 115.53H212.956V44.7275Z" fill="#43606A"/>
<path d="M154.878 44.7275V41.8954H152.046V44.7275H154.878ZM212.956 44.7275H215.788V41.8954H212.956V44.7275ZM154.878 44.7358L154.96 47.5667L157.71 47.4873V44.7358H154.878ZM154.878 115.522H157.71V112.77L154.96 112.691L154.878 115.522ZM154.878 115.53H152.046V118.362H154.878V115.53ZM155.401 115.53L155.408 112.698H155.401V115.53ZM155.493 115.53V112.698L155.486 112.698L155.493 115.53ZM212.956 115.53V118.362H215.788V115.53H212.956ZM154.878 47.5596H212.956V41.8954H154.878V47.5596ZM157.71 44.7358V44.7275H152.046V44.7358H157.71ZM138.92 64.0869C138.92 55.1223 146.058 47.8239 154.96 47.5667L154.796 41.9049C142.84 42.2502 133.256 52.0488 133.256 64.0869H138.92ZM138.92 96.1709V64.0869H133.256V96.1709H138.92ZM154.96 112.691C146.058 112.434 138.92 105.136 138.92 96.1709H133.256C133.256 108.209 142.84 118.008 154.796 118.353L154.96 112.691ZM157.71 115.53V115.522H152.046V115.53H157.71ZM155.401 112.698H154.878V118.362H155.401V112.698ZM155.447 112.698C155.434 112.698 155.421 112.698 155.408 112.698L155.394 118.362C155.412 118.362 155.43 118.362 155.447 118.362V112.698ZM155.486 112.698C155.474 112.698 155.461 112.698 155.447 112.698V118.362C155.464 118.362 155.482 118.362 155.5 118.362L155.486 112.698ZM212.956 112.698H155.493V118.362H212.956V112.698ZM210.124 44.7275V115.53H215.788V44.7275H210.124Z" fill="black" mask="url(#path-31-inside-1_11_34340)"/>
<mask id="path-33-inside-2_11_34340" fill="white">
<path fill-rule="evenodd" clip-rule="evenodd" d="M212.956 44.7275H153.739V44.8019C143.847 45.6667 136.088 53.9707 136.088 64.0869V86.2585C136.088 96.3747 143.847 104.679 153.739 105.543V105.618H155.401C155.417 105.618 155.432 105.618 155.447 105.618C155.463 105.618 155.478 105.618 155.493 105.618H212.956V44.7275Z"/>
</mask>
<path fill-rule="evenodd" clip-rule="evenodd" d="M212.956 44.7275H153.739V44.8019C143.847 45.6667 136.088 53.9707 136.088 64.0869V86.2585C136.088 96.3747 143.847 104.679 153.739 105.543V105.618H155.401C155.417 105.618 155.432 105.618 155.447 105.618C155.463 105.618 155.478 105.618 155.493 105.618H212.956V44.7275Z" fill="#31D691"/>
<path d="M153.739 44.7275V41.8954H150.907V44.7275H153.739ZM212.956 44.7275H215.788V41.8954H212.956V44.7275ZM153.739 44.8019L153.986 47.6233L156.571 47.3972V44.8019H153.739ZM153.739 105.543H156.571V102.948L153.986 102.722L153.739 105.543ZM153.739 105.618H150.907V108.45H153.739V105.618ZM155.401 105.618L155.408 102.786H155.401V105.618ZM155.493 105.618V102.786L155.487 102.786L155.493 105.618ZM212.956 105.618V108.45H215.788V105.618H212.956ZM153.739 47.5596H212.956V41.8954H153.739V47.5596ZM156.571 44.8019V44.7275H150.907V44.8019H156.571ZM138.92 64.0869C138.92 55.4521 145.544 48.3613 153.986 47.6233L153.492 41.9806C142.15 42.9722 133.256 52.4892 133.256 64.0869H138.92ZM138.92 86.2585V64.0869H133.256V86.2585H138.92ZM153.986 102.722C145.544 101.984 138.92 94.8933 138.92 86.2585H133.256C133.256 97.8561 142.15 107.373 153.492 108.365L153.986 102.722ZM156.571 105.618V105.543H150.907V105.618H156.571ZM155.401 102.786H153.739V108.45H155.401V102.786ZM155.447 102.786C155.434 102.786 155.421 102.786 155.408 102.786L155.395 108.45C155.412 108.45 155.43 108.45 155.447 108.45V102.786ZM155.487 102.786C155.473 102.786 155.46 102.786 155.447 102.786V108.45C155.465 108.45 155.482 108.45 155.5 108.45L155.487 102.786ZM212.956 102.786H155.493V108.45H212.956V102.786ZM210.124 44.7275V105.618H215.788V44.7275H210.124Z" fill="black" mask="url(#path-33-inside-2_11_34340)"/>
<path fill-rule="evenodd" clip-rule="evenodd" d="M152.291 47.3501C144.556 47.2628 137.517 51.8048 134.41 58.8885H165.188C165.204 58.8885 165.22 58.8884 165.236 58.8883H211.848V47.5599H166.042C165.784 47.5211 165.521 47.4995 165.252 47.4965L152.291 47.3501Z" fill="white"/>
<path d="M191.165 27.0269L207.598 71.5313L191.165 83.6689L179.277 64.5956L189.767 53.6139L182.074 34.5406L191.165 27.0269Z" fill="#3A4D05" stroke="black" stroke-width="2.8321"/>
<path d="M144.946 24.9628L190.96 25.6109L182.109 37.2933H142.814L130.777 34.1072L137.57 27.7996C139.572 25.9403 142.214 24.9243 144.946 24.9628Z" fill="#3A4D05" stroke="black" stroke-width="2.12408" stroke-linejoin="round"/>
<path d="M181.592 46.1436H205.048C217.181 46.1437 225.94 57.6524 222.841 69.2754L222.684 69.8291L210.408 110.859C207.451 120.745 196.967 126.238 187.195 123.126L186.73 122.972L184.481 122.19C173.157 118.256 165.321 107.915 164.564 95.9873L164.534 95.418L163.201 65.3672C162.737 54.891 171.105 46.1438 181.592 46.1436Z" fill="#31D691" stroke="black" stroke-width="2.8321"/>
<path d="M140.189 27.0269L156.622 71.5313L140.189 83.6689L128.301 64.5956L138.79 53.6139L131.098 34.5406L140.189 27.0269Z" fill="#31D691" stroke="black" stroke-width="2.8321"/>
<path fill-rule="evenodd" clip-rule="evenodd" d="M180.694 47.5596C176.632 47.5596 172.697 49.2156 170.132 52.3637C168.11 54.8443 167.097 56.4133 166.329 57.6021C166.019 58.0808 165.75 58.4978 165.471 58.888H184.142C184.201 58.888 184.26 58.8871 184.318 58.8853V58.8881H208.306V47.5596H184.318V47.5623C184.26 47.5605 184.201 47.5596 184.142 47.5596H180.694Z" fill="white"/>
<mask id="path-41-inside-3_11_34340" fill="white">
<path d="M176.338 67.8164C175.254 55.4034 185.038 44.7275 197.498 44.7275H211.139C222.87 44.7275 232.475 54.2407 232.361 65.9711C232.215 80.9528 231.486 93.0197 228.239 110.192C226.359 120.133 217.316 126.974 207.204 126.642L200.227 126.414C189.485 126.062 180.698 117.74 179.763 107.032L176.338 67.8164Z"/>
</mask>
<path d="M176.338 67.8164C175.254 55.4034 185.038 44.7275 197.498 44.7275H211.139C222.87 44.7275 232.475 54.2407 232.361 65.9711C232.215 80.9528 231.486 93.0197 228.239 110.192C226.359 120.133 217.316 126.974 207.204 126.642L200.227 126.414C189.485 126.062 180.698 117.74 179.763 107.032L176.338 67.8164Z" fill="#31D691"/>
<path d="M200.227 126.414L200.134 129.244L200.227 126.414ZM179.763 107.032L176.942 107.279L179.763 107.032ZM207.204 126.642L207.297 123.812L207.204 126.642ZM176.338 67.8164L179.159 67.57L176.338 67.8164ZM197.498 47.5596H211.139V41.8954H197.498V47.5596ZM229.529 65.9435C229.384 80.808 228.664 92.7008 225.456 109.665L231.022 110.718C234.308 93.3387 235.045 81.0976 235.193 65.9987L229.529 65.9435ZM207.297 123.812L200.32 123.583L200.134 129.244L207.111 129.473L207.297 123.812ZM182.584 106.786L179.159 67.57L173.517 68.0628L176.942 107.279L182.584 106.786ZM200.32 123.583C191.01 123.278 183.395 116.066 182.584 106.786L176.942 107.279C178.001 119.414 187.959 128.845 200.134 129.244L200.32 123.583ZM225.456 109.665C223.851 118.154 216.097 124.1 207.297 123.812L207.111 129.473C218.535 129.848 228.867 122.112 231.022 110.718L225.456 109.665ZM211.139 47.5596C221.327 47.5596 229.627 55.8201 229.529 65.9435L235.193 65.9987C235.323 52.6613 224.412 41.8954 211.139 41.8954V47.5596ZM197.498 41.8954C183.377 41.8954 172.288 53.9947 173.517 68.0628L179.159 67.57C178.22 56.812 186.699 47.5596 197.498 47.5596V41.8954Z" fill="black" mask="url(#path-41-inside-3_11_34340)"/>
<rect x="123.344" y="63.1363" width="37.5254" height="36.1093" rx="18.0547" fill="#A5ADAD" stroke="black" stroke-width="2.8321"/>
<rect x="124.76" y="67.3843" width="26.905" height="27.613" rx="13.4525" fill="#31D691" stroke="black" stroke-width="2.8321"/>
<path d="M194.203 57.4719H217.108C220.676 57.4721 223.657 60.114 224.06 63.5852L224.09 63.9231C225.126 79.5202 224.675 91.0137 221.593 107.614L221.286 109.237C220.662 112.487 217.782 114.822 214.435 114.823H197.931C194.371 114.822 191.385 112.184 190.914 108.692L190.877 108.351L187.148 65.1614C186.791 61.0262 190.053 57.4719 194.203 57.4719Z" fill="#282D38" stroke="black" stroke-width="2.8321"/>
<path d="M192.699 70.1438C192.322 65.2106 196.223 61 201.17 61H212.348C216.79 61 220.504 64.4204 220.736 68.8554C221.345 80.4828 220.966 89.4617 218.908 102.07C218.25 106.099 214.725 109 210.642 109H203.54C199.099 109 195.407 105.579 195.069 101.151L192.699 70.1438Z" fill="black"/>
<path d="M138.136 77.3717L136.85 75.5085C135.655 75.3708 134.33 76.1203 133.818 76.5123C131.822 78.0712 131.192 79.184 130.771 81.4802C130.511 84.0093 131.213 85.8145 133.333 87.8494C135.305 89.2959 137.128 89.8822 139.765 89.1981C141.093 88.7973 143.06 87.6034 144.077 85.6489C144.689 84.3295 144.968 83.2816 144.936 82.2021C144.869 79.9477 143.441 78.0019 142.16 76.1456L141.703 75.4829C142.226 74.3489 142.376 73.6931 142.322 72.4771C142.203 72.0102 142.067 71.9113 141.687 72.0556C141.394 72.4365 141.162 72.6242 140.615 72.9101C139.361 73.3777 138.756 73.2683 137.761 72.7597C137.275 72.6367 136.826 73.2326 137.175 73.7372L140.169 78.0757C141.118 79.4511 142.284 80.8822 142.177 82.55C142.171 82.6479 142.161 82.749 142.149 82.8541C141.532 85.3692 139.185 86.7028 137.865 86.7482C135.739 86.6769 134.698 85.644 133.863 84.217C133.135 82.474 133.214 81.218 134.508 79.5886C135.34 78.5414 136.229 78.0959 137.61 78.0212C138.096 77.9546 138.195 77.8014 138.136 77.3717Z" fill="white"/>
<path d="M203.164 75.9253C203.15 74.3249 201.896 73.0795 200.288 73.0694C198.502 73.0583 196.993 74.5646 197.009 76.3429L197.051 81.0069C197.065 82.6074 198.32 83.8527 199.927 83.8628C201.713 83.8739 203.222 82.3676 203.206 80.5894L203.164 75.9253Z" fill="#BAFF00"/>
<path d="M218.742 75.9253C218.728 74.3249 217.474 73.0795 215.866 73.0694C214.08 73.0583 212.571 74.5646 212.587 76.3429L212.629 81.0069C212.643 82.6074 213.898 83.8527 215.505 83.8628C217.291 83.8739 218.8 82.3676 218.784 80.5894L218.742 75.9253Z" fill="#BAFF00"/>
</g>
</svg>
