<svg width="130" height="87" viewBox="0 0 130 87" fill="none" xmlns="http://www.w3.org/2000/svg">
<mask id="path-1-inside-1_11_25195" fill="white">
<path fill-rule="evenodd" clip-rule="evenodd" d="M22.0002 18.0096C9.78999 18.3622 0 28.3711 0 40.6667V64.3333C0 76.6288 9.78999 86.6378 22.0002 86.9904V87H22.6667H90.0002V18H22.6667H22.0002V18.0096Z"/>
</mask>
<path fill-rule="evenodd" clip-rule="evenodd" d="M22.0002 18.0096C9.78999 18.3622 0 28.3711 0 40.6667V64.3333C0 76.6288 9.78999 86.6378 22.0002 86.9904V87H22.6667H90.0002V18H22.6667H22.0002V18.0096Z" fill="#C84533"/>
<path d="M22.0002 18.0096L22.0813 20.8187L24.8104 20.7399V18.0096H22.0002ZM22.0002 86.9904H24.8104V84.2601L22.0813 84.1813L22.0002 86.9904ZM22.0002 87H19.1899V89.8103H22.0002V87ZM90.0002 87V89.8103H92.8105V87H90.0002ZM90.0002 18H92.8105V15.1897H90.0002V18ZM22.0002 18V15.1897H19.1899V18H22.0002ZM2.81026 40.6667C2.81026 29.896 11.3865 21.1275 22.0813 20.8187L21.9191 15.2005C8.19346 15.5969 -2.81026 26.8463 -2.81026 40.6667H2.81026ZM2.81026 64.3333V40.6667H-2.81026V64.3333H2.81026ZM22.0813 84.1813C11.3865 83.8725 2.81026 75.104 2.81026 64.3333H-2.81026C-2.81026 78.1537 8.19346 89.4031 21.9191 89.7995L22.0813 84.1813ZM24.8104 87V86.9904H19.1899V87H24.8104ZM22.6667 84.1897H22.0002V89.8103H22.6667V84.1897ZM90.0002 84.1897H22.6667V89.8103H90.0002V84.1897ZM87.19 18V87H92.8105V18H87.19ZM22.6667 20.8103H90.0002V15.1897H22.6667V20.8103ZM22.0002 20.8103H22.6667V15.1897H22.0002V20.8103ZM24.8104 18.0096V18H19.1899V18.0096H24.8104Z" fill="black" mask="url(#path-1-inside-1_11_25195)"/>
<mask id="path-3-inside-2_11_25195" fill="white">
<path fill-rule="evenodd" clip-rule="evenodd" d="M21.733 17.1776C9.99534 18.2037 0.788086 28.0573 0.788086 40.0613V52.905C0.788086 64.909 9.99534 74.7625 21.733 75.7887V75.8769H23.76H91.9999V17.0894H23.76H21.733V17.1776Z"/>
</mask>
<path fill-rule="evenodd" clip-rule="evenodd" d="M21.733 17.1776C9.99534 18.2037 0.788086 28.0573 0.788086 40.0613V52.905C0.788086 64.909 9.99534 74.7625 21.733 75.7887V75.8769H23.76H91.9999V17.0894H23.76H21.733V17.1776Z" fill="#FF5D47"/>
<path d="M21.733 17.1776L21.9777 19.9771L24.5432 19.7528V17.1776H21.733ZM21.733 75.7887H24.5432V73.2134L21.9777 72.9891L21.733 75.7887ZM21.733 75.8769H18.9227V78.6871H21.733V75.8769ZM91.9999 75.8769V78.6871H94.8102V75.8769H91.9999ZM91.9999 17.0894H94.8102V14.2791H91.9999V17.0894ZM21.733 17.0894V14.2791H18.9227V17.0894H21.733ZM3.59834 40.0613C3.59834 29.5273 11.679 20.8775 21.9777 19.9771L21.4882 14.378C8.3117 15.53 -2.02217 26.5873 -2.02217 40.0613H3.59834ZM3.59834 52.905V40.0613H-2.02217V52.905H3.59834ZM21.9777 72.9891C11.679 72.0887 3.59834 63.439 3.59834 52.905H-2.02217C-2.02217 66.379 8.3117 77.4363 21.4882 78.5883L21.9777 72.9891ZM24.5432 75.8769V75.7887H18.9227V75.8769H24.5432ZM23.76 73.0666H21.733V78.6871H23.76V73.0666ZM91.9999 73.0666H23.76V78.6871H91.9999V73.0666ZM89.1897 17.0894V75.8769H94.8102V17.0894H89.1897ZM23.76 19.8996H91.9999V14.2791H23.76V19.8996ZM21.733 19.8996H23.76V14.2791H21.733V19.8996ZM24.5432 17.1776V17.0894H18.9227V17.1776H24.5432Z" fill="black" mask="url(#path-3-inside-2_11_25195)"/>
<path fill-rule="evenodd" clip-rule="evenodd" d="M24.5813 19.599C16.6717 19.5272 9.3657 23.8183 5.57617 30.7614H43.8988C43.9157 30.7614 43.9326 30.7613 43.9495 30.7612H98.6007V19.824H44.6381C44.4123 19.7936 44.1822 19.7769 43.9486 19.7748L24.5813 19.599Z" fill="#FFCFC8"/>
<rect x="50.0731" y="18.4945" width="65.5903" height="66.9145" rx="25.2923" fill="#FF5D47" stroke="black" stroke-width="2.81026"/>
<path fill-rule="evenodd" clip-rule="evenodd" d="M70.5551 19.8237C66.6324 19.8237 62.8776 21.4607 60.2465 24.3701C57.1521 27.7917 55.773 29.4369 54.8242 30.7609L71.3225 30.7609L73.8915 30.7609L94.4965 30.7609V19.8237H73.8915H71.3225H70.5551Z" fill="#FFCFC8"/>
<mask id="path-8-inside-3_11_25195" fill="white">
<path fill-rule="evenodd" clip-rule="evenodd" d="M117.753 46.5764V58.9557C117.753 74.4441 105.197 86.9999 89.7088 86.9999C74.2204 86.9999 61.6646 74.4441 61.6646 58.9557V45.1702C61.6646 29.6818 74.2204 17.1259 89.7088 17.1259C95.8737 17.1259 101.574 19.1151 106.203 22.4867V6.09515C105.751 -0.408386 107.274 -0.400835 110.33 0.311225C115.491 7.43342 120.113 13.2693 129.381 15.0709C129.145 15.3423 128.912 15.6169 128.678 15.8917C125.983 19.0613 123.279 22.2422 117.759 20.5512V46.5827L117.753 46.5764Z"/>
</mask>
<path fill-rule="evenodd" clip-rule="evenodd" d="M117.753 46.5764V58.9557C117.753 74.4441 105.197 86.9999 89.7088 86.9999C74.2204 86.9999 61.6646 74.4441 61.6646 58.9557V45.1702C61.6646 29.6818 74.2204 17.1259 89.7088 17.1259C95.8737 17.1259 101.574 19.1151 106.203 22.4867V6.09515C105.751 -0.408386 107.274 -0.400835 110.33 0.311225C115.491 7.43342 120.113 13.2693 129.381 15.0709C129.145 15.3423 128.912 15.6169 128.678 15.8917C125.983 19.0613 123.279 22.2422 117.759 20.5512V46.5827L117.753 46.5764Z" fill="#FF5D47"/>
<path d="M117.753 46.5764L119.741 44.5904L114.943 39.786V46.5764H117.753ZM106.203 22.4867L104.548 24.7583L109.013 28.0104V22.4867H106.203ZM106.203 6.09515H109.013V5.99763L109.006 5.90034L106.203 6.09515ZM110.33 0.311225L112.606 -1.33775L111.99 -2.18759L110.968 -2.42573L110.33 0.311225ZM129.381 15.0709L131.504 16.9117L134.688 13.2396L129.917 12.3122L129.381 15.0709ZM128.678 15.8917L126.537 14.0713V14.0713L128.678 15.8917ZM117.759 20.5512L118.582 17.8642L114.949 16.751V20.5512H117.759ZM117.759 46.5827L115.771 48.5686L120.57 53.3731V46.5827H117.759ZM114.943 46.5764V58.9557H120.563V46.5764H114.943ZM114.943 58.9557C114.943 72.892 103.645 84.1897 89.7088 84.1897V89.8102C106.749 89.8102 120.563 75.9962 120.563 58.9557H114.943ZM89.7088 84.1897C75.7724 84.1897 64.4748 72.892 64.4748 58.9557H58.8543C58.8543 75.9961 72.6683 89.8102 89.7088 89.8102V84.1897ZM64.4748 58.9557V45.1702H58.8543V58.9557H64.4748ZM64.4748 45.1702C64.4748 31.2338 75.7724 19.9362 89.7088 19.9362V14.3157C72.6683 14.3157 58.8543 28.1297 58.8543 45.1702H64.4748ZM89.7088 19.9362C95.2593 19.9362 100.384 21.725 104.548 24.7583L107.857 20.2152C102.764 16.5053 96.488 14.3157 89.7088 14.3157V19.9362ZM109.013 22.4867V6.09515H103.392V22.4867H109.013ZM109.006 5.90034C108.899 4.35005 108.923 3.35666 109.01 2.73905C109.102 2.0836 109.218 2.19869 108.96 2.46245C108.607 2.82316 108.225 2.81041 108.336 2.81026C108.534 2.80999 108.906 2.86505 109.692 3.04818L110.968 -2.42573C110.226 -2.59863 109.261 -2.81153 108.328 -2.81025C107.308 -2.80885 106.001 -2.55053 104.942 -1.46777C103.978 -0.481966 103.606 0.806144 103.444 1.95615C103.277 3.14399 103.281 4.58849 103.399 6.28997L109.006 5.90034ZM108.054 1.9602C113.219 9.08747 118.403 15.7998 128.844 17.8295L129.917 12.3122C121.823 10.7388 117.763 5.77938 112.606 -1.33775L108.054 1.9602ZM127.257 13.23C127.012 13.5133 126.769 13.7983 126.537 14.0713L130.819 17.712C131.054 17.4355 131.279 17.1712 131.504 16.9117L127.257 13.23ZM126.537 14.0713C125.119 15.7395 124.079 16.9161 122.876 17.6085C121.884 18.1795 120.638 18.494 118.582 17.8642L116.936 23.2382C120.4 24.2993 123.266 23.8689 125.68 22.4799C127.883 21.2121 129.543 19.2135 130.819 17.712L126.537 14.0713ZM114.949 20.5512V46.5827H120.57V20.5512H114.949ZM119.748 44.5967L119.741 44.5904L115.765 48.5623L115.771 48.5686L119.748 44.5967Z" fill="black" mask="url(#path-8-inside-3_11_25195)"/>
<rect x="11.7694" y="34.2169" width="27.97" height="29.3178" rx="13.985" fill="#C84533" stroke="black" stroke-width="2.81026"/>
<path d="M91.0771 30.7988C99.7451 30.7991 106.771 37.8262 106.771 46.4941V57.4092C106.771 66.0771 99.7451 73.1042 91.0771 73.1045C82.409 73.1045 75.3818 66.0773 75.3818 57.4092V46.4941C75.3818 37.826 82.409 30.7988 91.0771 30.7988Z" fill="#282D38" stroke="black" stroke-width="2.81026"/>
<path d="M28.6793 46.1717L29.1012 43.8565C28.3222 42.8774 26.7965 42.4569 26.131 42.369C23.516 42.0511 22.2344 42.4073 20.2375 43.7881C18.1878 45.4583 17.3783 47.3021 17.4448 50.3565C17.8346 52.8693 18.7459 54.6387 21.1905 56.0715C22.4629 56.7516 24.7888 57.3174 26.9738 56.6257C28.4603 56.0794 29.4596 55.4841 30.2454 54.6023C31.7354 52.9304 32.114 50.5833 32.5155 48.3803L32.694 47.4008C33.9126 46.9506 34.5047 46.5779 35.358 45.643C35.6133 45.212 35.5858 45.0394 35.2003 44.8668C34.7044 44.9319 34.3961 44.9 33.783 44.7085C32.5159 44.1319 32.151 43.6074 31.7915 42.5022C31.5239 42.0548 30.756 42.1642 30.6417 42.7913L29.6382 48.2979C29.3408 49.9303 29.1567 51.7444 27.9383 52.871C27.8368 52.9648 27.7268 53.0582 27.6066 53.1528C25.3048 54.551 22.5966 53.8092 21.5913 52.8737C20.0779 51.26 20.0705 49.7358 20.5039 48.0726C21.2479 46.2548 22.2291 45.3888 24.3794 45.14C25.7614 44.9801 26.7435 45.305 27.8148 46.2636C28.222 46.5718 28.4074 46.5316 28.6793 46.1717Z" fill="white"/>
<path d="M109 32C108.077 27.7333 105.282 24.8889 104 24L109 25.1111V32Z" fill="black"/>
<path d="M105.441 47.1665C97.6875 55.885 83.058 50.7992 76.7124 47.1665V63.3445C76.7124 68.0007 80.487 71.7752 85.1432 71.7752H97.0099C101.666 71.7752 105.441 68.0006 105.441 63.3445V47.1665Z" fill="black"/>
<path d="M87.477 47.2114C87.4631 45.6653 86.2515 44.4622 84.6985 44.4526C82.9729 44.4418 81.515 45.8971 81.5305 47.615L81.5709 52.1144C81.5848 53.6604 82.7965 54.8635 84.3494 54.8732C86.075 54.8839 87.5329 53.4286 87.5174 51.7107L87.477 47.2114Z" fill="#BAFF00"/>
<path d="M102.525 47.2114C102.511 45.6653 101.299 44.4622 99.7463 44.4526C98.0207 44.4418 96.5629 45.8971 96.5783 47.615L96.6188 52.1144C96.6327 53.6604 97.8443 54.8635 99.3973 54.8732C101.123 54.8839 102.581 53.4286 102.565 51.7107L102.525 47.2114Z" fill="#BAFF00"/>
</svg>
