<svg width="38" height="31" viewBox="0 0 38 31" fill="none" xmlns="http://www.w3.org/2000/svg">
<path d="M23.1688 8.50983L24.0228 3.82055C22.446 1.83771 19.3578 0.985969 18.0108 0.807951C12.7179 0.164008 10.1238 0.885606 6.08187 3.68221C1.93318 7.06491 0.29472 10.7992 0.429333 16.9853C1.21835 22.0747 3.06275 25.6583 8.01097 28.5603C10.5863 29.9377 15.2942 31.0837 19.7167 29.6827C24.9173 27.7703 27.1713 25.5616 29.3415 20.5722C29.5939 19.992 29.7685 19.38 29.8819 18.7576L31.2948 10.999C33.7614 10.0872 34.9598 9.33252 36.687 7.439C37.2037 6.56598 37.1481 6.21647 36.3677 5.86686C35.3641 5.99865 34.74 5.93411 33.499 5.5463C30.9345 4.3785 30.1957 3.31622 29.468 1.07767C28.9265 0.171563 27.3722 0.393155 27.1409 1.6632L24.3315 17.0898C24.2475 17.551 24.1315 18.0068 23.9663 18.4454C23.2669 20.3016 22.5478 21.428 20.9976 22.6488C16.3386 25.4807 10.8569 23.9784 8.82215 22.0835C5.75881 18.8153 5.74385 15.7283 6.62117 12.3597C8.12705 8.67804 10.113 6.92413 14.4654 6.42015C17.2627 6.09624 19.2505 6.75441 21.4191 8.69584C22.2433 9.31999 22.6185 9.23862 23.1688 8.50983Z" fill="#FF5D47"/>
<rect x="9.04004" y="12.5598" width="4.13993" height="6.2099" rx="2.06997" fill="#191C1F"/>
<rect x="16.6301" y="12.5598" width="4.13993" height="6.2099" rx="2.06997" fill="#191C1F"/>
</svg>
