<svg width="122" height="57" viewBox="0 0 122 57" fill="none" xmlns="http://www.w3.org/2000/svg">
<path d="M45.7168 18.8824H51.0497C52.1283 18.8824 53.8061 18.7027 54.7648 18.463C54.9446 20.0809 55.1243 22.8372 55.3041 24.3952C54.3453 24.7547 52.7275 24.7547 51.1695 24.7547H45.8366C39.6647 24.7547 38.2267 22.7773 38.2267 16.8451V10.6134H44.5183V16.9051C44.5183 18.3432 44.6981 18.8824 45.7168 18.8824ZM25.823 9.05543V15.2273H19.2318V3.00343H54.645V14.8678H47.6941V9.05543H25.823ZM28.879 10.6733H35.3504C34.8711 19.1221 32.7739 23.9158 21.329 26.3725C20.7298 24.6948 19.1718 22.1182 17.8536 20.8598C27.3211 19.3618 28.5195 16.6055 28.879 10.6733ZM17.494 25.4737L18.6325 31.8253C17.0147 32.4245 15.3968 33.0837 13.719 33.6829V48.1238C13.719 51.4194 13.1798 53.1571 11.3821 54.3556C9.5845 55.4341 7.00791 55.7337 3.29282 55.6738C3.11306 53.8762 2.27416 50.9401 1.43527 49.0226C3.5325 49.1425 5.50989 49.1425 6.22894 49.1425C6.94799 49.1425 7.18767 48.9028 7.18767 48.1238V35.9599C5.50989 36.5591 3.89203 37.0984 2.33408 37.6377L0.656302 30.8067C2.51385 30.3273 4.73092 29.6682 7.18767 28.8892V18.1634H1.49519V11.5721H7.18767V0.247073H13.719V11.5721H17.7937V18.1634H13.719V26.7321L17.494 25.4737ZM55.1243 36.3194H43.5596C46.9152 40.6936 51.8287 44.7682 56.6823 47.0452C55.1243 48.3635 52.9072 50.9401 51.8287 52.6179C47.3945 49.9214 43.0203 45.727 39.5449 40.9333V56.2131H32.5342V41.5924C29.2385 46.3861 25.104 50.4607 20.3702 53.0373C19.3516 51.4194 17.2544 48.9627 15.8163 47.6444C20.9695 45.3075 25.7032 41.1131 28.879 36.3194H19.2917V29.9678H32.5342V24.0356H39.5449V29.9678H55.1243V36.3194ZM80.5789 42.671L87.0503 45.3674C83.1555 49.0825 77.2833 52.9774 72.6094 55.4341C71.3511 54.1159 68.8344 51.779 67.2765 50.6405C72.0102 48.6631 77.4031 45.667 80.5789 42.671ZM111.558 39.9147L99.1543 40.6936V48.9627C99.1543 52.1984 98.4952 53.9361 95.9186 54.9548C93.402 55.9734 90.0464 56.0333 85.7321 56.0333C85.3726 54.056 84.2341 51.2996 83.2753 49.502C86.3912 49.6218 89.9865 49.6817 91.0051 49.6218C92.0238 49.5619 92.2635 49.3821 92.2635 48.723V41.173C76.744 42.2516 74.1074 42.6111 72.1301 43.2702C71.8904 42.1317 71.0515 39.0758 70.4523 37.5178C72.7293 37.2182 75.0662 36.4392 78.5416 35.0611C79.9198 34.5218 82.5563 33.5031 85.7321 32.065C78.961 32.5444 77.463 32.7841 76.5043 33.1436C76.2646 31.9452 75.3059 29.069 74.7067 27.4511C76.0848 27.2114 77.463 26.6722 79.2007 25.7134C80.5789 24.9944 84.5337 23.017 88.1888 20.5602H74.5269V27.0317H67.7558V14.6281H90.8254V11.0328H69.0741V4.9209H90.8254V0.247073H98.3754V4.9209H120.067V11.0328H98.3754V14.6281H121.445V27.0317H114.374V20.5602H95.0797L96.398 21.6987C93.2821 23.796 89.6269 25.8333 85.8519 27.6309L95.7389 27.2714C98.9147 25.5936 101.971 23.8559 104.607 22.0582L109.521 26.1928C102.929 30.0876 95.6789 33.5031 88.4884 36.3793L107.124 35.3607C105.925 34.2222 104.727 33.1436 103.648 32.1849L108.682 29.069C112.756 32.5444 118.149 37.5178 120.786 40.8734L115.393 44.4087C114.494 43.0905 113.116 41.5924 111.558 39.9147ZM101.671 45.7869L107.124 42.3115C111.678 44.7083 118.209 48.5432 121.685 51.2397L115.812 55.2544C112.816 52.6179 106.465 48.4833 101.671 45.7869Z" fill="black"/>
</svg>
