<svg width="125" height="60" viewBox="0 0 125 60" fill="none" xmlns="http://www.w3.org/2000/svg">
<mask id="path-1-outside-1_11_25253" maskUnits="userSpaceOnUse" x="0" y="0" width="125" height="60" fill="black">
<rect fill="white" width="125" height="60"/>
<path d="M42.8915 36.4019V28.792H38.3975V36.4019H42.8915ZM17.7847 28.792V36.4019H21.8593V28.792H17.7847ZM32.4653 28.792H27.7915V36.4019H32.4653V28.792ZM55.355 28.792H49.4828V36.4019H56.6733V42.7535H3.22394V36.4019H11.4331V28.792H5.02157V22.4404H11.4331V17.0475H17.7847V22.4404H21.8593V17.0475H27.7915V22.4404H32.4653V17.0475H38.3975V22.4404H42.8915V17.0475H49.4828V22.4404H55.355V28.792ZM54.9955 14.8304H12.6315C10.3545 17.3471 8.01761 19.684 5.62078 21.4817C4.84181 20.1634 2.8045 17.0475 1.54616 15.7293C6.45967 12.3737 11.1934 7.10066 13.9498 1.52803L20.1216 3.56533C19.3426 5.24311 18.3839 6.86098 17.3053 8.53876H54.9955V14.8304ZM9.63547 58.4528L2.68466 55.6365C4.84181 52.8202 7.718 48.0266 9.39579 43.952L16.2867 45.7496C14.6089 49.944 11.8525 55.1571 9.63547 58.4528ZM19.5224 46.3488L26.1736 45.6297C26.9526 49.225 27.6117 53.9587 27.6716 56.8349L20.6609 57.8536C20.6609 54.9774 20.2415 50.0639 19.5224 46.3488ZM31.6863 46.2289L38.3975 45.1504C39.8955 48.6258 41.3935 53.2397 41.9328 56.2357L34.8022 57.6139C34.4427 54.7377 33.0645 49.944 31.6863 46.2289ZM43.8503 46.1091L50.3816 43.4726C52.8983 47.0678 55.9543 52.0413 57.3924 55.277L50.3816 58.333C49.1832 55.2171 46.307 50.004 43.8503 46.1091ZM82.4275 44.6111V50.9028H86.9815V44.6111H82.4275ZM98.1867 44.6111H93.4529V50.9028H98.1867V44.6111ZM114.665 31.9079H103.46C104.718 33.7055 105.797 36.2821 106.276 37.9L101.722 39.2182H115.504C113.946 37.2408 112.148 35.2035 110.53 33.5257L114.665 31.9079ZM109.272 50.9028V44.6111H104.658V50.9028H109.272ZM98.9656 17.467V19.744H109.931V17.467H98.9656ZM98.9656 10.0967V12.3737H109.931V10.0967H98.9656ZM116.283 40.2369V50.9028H123.234V56.4155H68.7056V50.9028H75.7763V41.7948C74.9973 42.6337 74.0386 43.4726 73.0199 44.1317L68.2263 39.9373C71.2223 38.1396 73.4993 35.0238 74.6378 31.9079L80.1505 34.065C79.4914 35.8027 78.7124 37.6004 77.6937 39.2182H86.2624C86.2025 37.6004 85.7231 35.0238 85.064 33.0464L91.116 32.0876C91.8351 33.9452 92.4343 36.5218 92.614 38.1396L86.6219 39.2182H99.9843C99.5648 37.4805 98.5462 35.0837 97.5275 33.2861L102.92 31.9079H69.4846V26.8146H91.895V24.5376H74.9973V19.744H91.895V17.467H69.0651V12.3737H91.895V10.0967H75.2969V5.30303H91.895V2.24707H98.9656V5.30303H116.942V12.3737H122.874V17.467H116.942V24.5376H98.9656V26.8146H122.574V31.9079H116.403C119.219 34.6043 122.335 38.0198 123.833 40.4766L118.26 43.173C117.781 42.3341 117.062 41.3154 116.283 40.2369Z"/>
</mask>
<path d="M42.8915 36.4019V37.1802H43.6698V36.4019H42.8915ZM42.8915 28.792H43.6698V28.0137H42.8915V28.792ZM38.3975 28.792V28.0137H37.6192V28.792H38.3975ZM38.3975 36.4019H37.6192V37.1802H38.3975V36.4019ZM17.7847 28.792V28.0137H17.0065V28.792H17.7847ZM17.7847 36.4019H17.0065V37.1802H17.7847V36.4019ZM21.8593 36.4019V37.1802H22.6376V36.4019H21.8593ZM21.8593 28.792H22.6376V28.0137H21.8593V28.792ZM32.4653 28.792H33.2435V28.0137H32.4653V28.792ZM27.7915 28.792V28.0137H27.0132V28.792H27.7915ZM27.7915 36.4019H27.0132V37.1802H27.7915V36.4019ZM32.4653 36.4019V37.1802H33.2435V36.4019H32.4653ZM55.355 28.792V29.5702H56.1333V28.792H55.355ZM49.4828 28.792V28.0137H48.7046V28.792H49.4828ZM49.4828 36.4019H48.7046V37.1802H49.4828V36.4019ZM56.6733 36.4019H57.4515V35.6237H56.6733V36.4019ZM56.6733 42.7535V43.5318H57.4515V42.7535H56.6733ZM3.22394 42.7535H2.4457V43.5318H3.22394V42.7535ZM3.22394 36.4019V35.6237H2.4457V36.4019H3.22394ZM11.4331 36.4019V37.1802H12.2113V36.4019H11.4331ZM11.4331 28.792H12.2113V28.0137H11.4331V28.792ZM5.02157 28.792H4.24332V29.5702H5.02157V28.792ZM5.02157 22.4404V21.6621H4.24332V22.4404H5.02157ZM11.4331 22.4404V23.2186H12.2113V22.4404H11.4331ZM11.4331 17.0475V16.2693H10.6548V17.0475H11.4331ZM17.7847 17.0475H18.5629V16.2693H17.7847V17.0475ZM17.7847 22.4404H17.0065V23.2186H17.7847V22.4404ZM21.8593 22.4404V23.2186H22.6376V22.4404H21.8593ZM21.8593 17.0475V16.2693H21.0811V17.0475H21.8593ZM27.7915 17.0475H28.5697V16.2693H27.7915V17.0475ZM27.7915 22.4404H27.0132V23.2186H27.7915V22.4404ZM32.4653 22.4404V23.2186H33.2435V22.4404H32.4653ZM32.4653 17.0475V16.2693H31.6871V17.0475H32.4653ZM38.3975 17.0475H39.1757V16.2693H38.3975V17.0475ZM38.3975 22.4404H37.6192V23.2186H38.3975V22.4404ZM42.8915 22.4404V23.2186H43.6698V22.4404H42.8915ZM42.8915 17.0475V16.2693H42.1133V17.0475H42.8915ZM49.4828 17.0475H50.2611V16.2693H49.4828V17.0475ZM49.4828 22.4404H48.7046V23.2186H49.4828V22.4404ZM55.355 22.4404H56.1333V21.6621H55.355V22.4404ZM54.9955 14.8304V15.6087H55.7738V14.8304H54.9955ZM12.6315 14.8304V14.0522H12.2861L12.0544 14.3083L12.6315 14.8304ZM5.62078 21.4817L4.95076 21.8776L5.39272 22.6255L6.08772 22.1042L5.62078 21.4817ZM1.54616 15.7293L1.10726 15.0866L0.350279 15.6035L0.983212 16.2666L1.54616 15.7293ZM13.9498 1.52803L14.1937 0.789002L13.5519 0.577128L13.2522 1.18299L13.9498 1.52803ZM20.1216 3.56533L20.8275 3.89306L21.1956 3.10029L20.3656 2.82631L20.1216 3.56533ZM17.3053 8.53876L16.6507 8.11792L15.8798 9.317H17.3053V8.53876ZM54.9955 8.53876H55.7738V7.76051H54.9955V8.53876ZM9.63547 58.4528L9.34322 59.1741L9.92863 59.4113L10.2812 58.8872L9.63547 58.4528ZM2.68466 55.6365L2.06682 55.1633L1.44568 55.9742L2.39241 56.3578L2.68466 55.6365ZM9.39579 43.952L9.59223 43.1989L8.93484 43.0274L8.67616 43.6556L9.39579 43.952ZM16.2867 45.7496L17.0093 46.0386L17.337 45.2193L16.4831 44.9965L16.2867 45.7496ZM19.5224 46.3488L19.4388 45.5751L18.5976 45.666L18.7583 46.4967L19.5224 46.3488ZM26.1736 45.6297L26.9342 45.4649L26.786 44.7808L26.09 44.856L26.1736 45.6297ZM27.6716 56.8349L27.7835 57.6051L28.464 57.5062L28.4497 56.8187L27.6716 56.8349ZM20.6609 57.8536H19.8827V58.7531L20.7728 58.6237L20.6609 57.8536ZM31.6863 46.2289L31.5628 45.4606L30.627 45.611L30.9567 46.4996L31.6863 46.2289ZM38.3975 45.1504L39.1121 44.8423L38.8723 44.2858L38.274 44.382L38.3975 45.1504ZM41.9328 56.2357L42.0805 56.9998L42.8348 56.854L42.6987 56.0979L41.9328 56.2357ZM34.8022 57.6139L34.03 57.7104L34.1332 58.5359L34.9499 58.378L34.8022 57.6139ZM43.8503 46.1091L43.5589 45.3874L42.6949 45.7362L43.192 46.5243L43.8503 46.1091ZM50.3816 43.4726L51.0192 43.0263L50.6642 42.5192L50.0903 42.7509L50.3816 43.4726ZM57.3924 55.277L57.7033 55.9904L58.4219 55.6772L58.1035 54.9609L57.3924 55.277ZM50.3816 58.333L49.6553 58.6123L49.9472 59.3713L50.6926 59.0464L50.3816 58.333ZM43.6698 36.4019V28.792H42.1133V36.4019H43.6698ZM42.8915 28.0137H38.3975V29.5702H42.8915V28.0137ZM37.6192 28.792V36.4019H39.1757V28.792H37.6192ZM38.3975 37.1802H42.8915V35.6237H38.3975V37.1802ZM17.0065 28.792V36.4019H18.5629V28.792H17.0065ZM17.7847 37.1802H21.8593V35.6237H17.7847V37.1802ZM22.6376 36.4019V28.792H21.0811V36.4019H22.6376ZM21.8593 28.0137H17.7847V29.5702H21.8593V28.0137ZM32.4653 28.0137H27.7915V29.5702H32.4653V28.0137ZM27.0132 28.792V36.4019H28.5697V28.792H27.0132ZM27.7915 37.1802H32.4653V35.6237H27.7915V37.1802ZM33.2435 36.4019V28.792H31.6871V36.4019H33.2435ZM55.355 28.0137H49.4828V29.5702H55.355V28.0137ZM48.7046 28.792V36.4019H50.2611V28.792H48.7046ZM49.4828 37.1802H56.6733V35.6237H49.4828V37.1802ZM55.8951 36.4019V42.7535H57.4515V36.4019H55.8951ZM56.6733 41.9753H3.22394V43.5318H56.6733V41.9753ZM4.00219 42.7535V36.4019H2.4457V42.7535H4.00219ZM3.22394 37.1802H11.4331V35.6237H3.22394V37.1802ZM12.2113 36.4019V28.792H10.6548V36.4019H12.2113ZM11.4331 28.0137H5.02157V29.5702H11.4331V28.0137ZM5.79981 28.792V22.4404H4.24332V28.792H5.79981ZM5.02157 23.2186H11.4331V21.6621H5.02157V23.2186ZM12.2113 22.4404V17.0475H10.6548V22.4404H12.2113ZM11.4331 17.8258H17.7847V16.2693H11.4331V17.8258ZM17.0065 17.0475V22.4404H18.5629V17.0475H17.0065ZM17.7847 23.2186H21.8593V21.6621H17.7847V23.2186ZM22.6376 22.4404V17.0475H21.0811V22.4404H22.6376ZM21.8593 17.8258H27.7915V16.2693H21.8593V17.8258ZM27.0132 17.0475V22.4404H28.5697V17.0475H27.0132ZM27.7915 23.2186H32.4653V21.6621H27.7915V23.2186ZM33.2435 22.4404V17.0475H31.6871V22.4404H33.2435ZM32.4653 17.8258H38.3975V16.2693H32.4653V17.8258ZM37.6192 17.0475V22.4404H39.1757V17.0475H37.6192ZM38.3975 23.2186H42.8915V21.6621H38.3975V23.2186ZM43.6698 22.4404V17.0475H42.1133V22.4404H43.6698ZM42.8915 17.8258H49.4828V16.2693H42.8915V17.8258ZM48.7046 17.0475V22.4404H50.2611V17.0475H48.7046ZM49.4828 23.2186H55.355V21.6621H49.4828V23.2186ZM54.5768 22.4404V28.792H56.1333V22.4404H54.5768ZM54.9955 14.0522H12.6315V15.6087H54.9955V14.0522ZM12.0544 14.3083C9.78988 16.8112 7.49184 19.1055 5.15383 20.8591L6.08772 22.1042C8.54338 20.2625 10.9192 17.883 13.2086 15.3526L12.0544 14.3083ZM6.29079 21.0857C5.50986 19.7642 3.43426 16.5802 2.10911 15.1919L0.983212 16.2666C2.17473 17.5149 4.17375 20.5626 4.95076 21.8776L6.29079 21.0857ZM1.98506 16.3719C7.00338 12.9448 11.8288 7.57134 14.6473 1.87306L13.2522 1.18299C10.558 6.62998 5.91595 11.8026 1.10726 15.0866L1.98506 16.3719ZM13.7058 2.26705L19.8777 4.30435L20.3656 2.82631L14.1937 0.789002L13.7058 2.26705ZM19.4157 3.2376C18.6583 4.86909 17.7209 6.45312 16.6507 8.11792L17.96 8.9596C19.0469 7.26884 20.027 5.61714 20.8275 3.89306L19.4157 3.2376ZM17.3053 9.317H54.9955V7.76051H17.3053V9.317ZM54.2173 8.53876V14.8304H55.7738V8.53876H54.2173ZM9.92772 57.7315L2.9769 54.9152L2.39241 56.3578L9.34322 59.1741L9.92772 57.7315ZM3.30249 56.1097C5.49806 53.2433 8.40973 48.3907 10.1154 44.2483L8.67616 43.6556C7.02628 47.6625 4.18555 52.3972 2.06682 55.1633L3.30249 56.1097ZM9.19934 44.705L16.0902 46.5026L16.4831 44.9965L9.59223 43.1989L9.19934 44.705ZM15.5641 45.4605C13.9056 49.6068 11.1745 54.7708 8.98974 58.0184L10.2812 58.8872C12.5306 55.5435 15.3122 50.2813 17.0093 46.0386L15.5641 45.4605ZM19.6061 47.1225L26.2573 46.4035L26.09 44.856L19.4388 45.5751L19.6061 47.1225ZM25.413 45.7945C26.1856 49.3603 26.835 54.0414 26.8936 56.8511L28.4497 56.8187C28.3884 53.876 27.7196 49.0897 26.9342 45.4649L25.413 45.7945ZM27.5597 56.0648L20.549 57.0834L20.7728 58.6237L27.7835 57.6051L27.5597 56.0648ZM21.4391 57.8536C21.4391 54.9288 21.0151 49.9657 20.2865 46.2009L18.7583 46.4967C19.4678 50.162 19.8827 55.026 19.8827 57.8536H21.4391ZM31.8098 46.9973L38.521 45.9188L38.274 44.382L31.5628 45.4606L31.8098 46.9973ZM37.6828 45.4584C39.1652 48.8976 40.6411 53.4529 41.1669 56.3736L42.6987 56.0979C42.1459 53.0265 40.6258 48.354 39.1121 44.8423L37.6828 45.4584ZM41.7851 55.4716L34.6545 56.8498L34.9499 58.378L42.0805 56.9998L41.7851 55.4716ZM35.5744 57.5174C35.204 54.5537 33.8022 49.695 32.416 45.9583L30.9567 46.4996C32.3268 50.1931 33.6814 54.9217 34.03 57.7104L35.5744 57.5174ZM44.1416 46.8308L50.6729 44.1943L50.0903 42.7509L43.5589 45.3874L44.1416 46.8308ZM49.7441 43.9189C52.2497 47.4983 55.2729 52.4244 56.6812 55.5931L58.1035 54.9609C56.6356 51.6581 53.5469 46.6374 51.0192 43.0263L49.7441 43.9189ZM57.0814 54.5636L50.0706 57.6195L50.6926 59.0464L57.7033 55.9904L57.0814 54.5636ZM51.108 58.0536C49.8819 54.8657 46.9732 49.6014 44.5085 45.6939L43.192 46.5243C45.6408 50.4065 48.4845 55.5684 49.6553 58.6123L51.108 58.0536ZM82.4275 44.6111V43.8328H81.6492V44.6111H82.4275ZM82.4275 50.9028H81.6492V51.681H82.4275V50.9028ZM86.9815 50.9028V51.681H87.7597V50.9028H86.9815ZM86.9815 44.6111H87.7597V43.8328H86.9815V44.6111ZM98.1867 44.6111H98.9649V43.8328H98.1867V44.6111ZM93.4529 44.6111V43.8328H92.6747V44.6111H93.4529ZM93.4529 50.9028H92.6747V51.681H93.4529V50.9028ZM98.1867 50.9028V51.681H98.9649V50.9028H98.1867ZM114.665 31.9079L114.948 32.6326L114.665 31.1296V31.9079ZM103.46 31.9079V31.1296H101.965L102.822 32.3542L103.46 31.9079ZM106.276 37.9L106.492 38.6475L107.245 38.4297L107.022 37.6789L106.276 37.9ZM101.722 39.2182L101.506 38.4707L101.722 39.9965V39.2182ZM115.504 39.2182V39.9965H117.108L116.115 38.7366L115.504 39.2182ZM110.53 33.5257L110.247 32.801L109.16 33.2261L109.97 34.0659L110.53 33.5257ZM109.272 50.9028V51.681H110.05V50.9028H109.272ZM109.272 44.6111H110.05V43.8328H109.272V44.6111ZM104.658 44.6111V43.8328H103.88V44.6111H104.658ZM104.658 50.9028H103.88V51.681H104.658V50.9028ZM98.9656 17.467V16.6887H98.1874V17.467H98.9656ZM98.9656 19.744H98.1874V20.5222H98.9656V19.744ZM109.931 19.744V20.5222H110.709V19.744H109.931ZM109.931 17.467H110.709V16.6887H109.931V17.467ZM98.9656 10.0967V9.31846H98.1874V10.0967H98.9656ZM98.9656 12.3737H98.1874V13.1519H98.9656V12.3737ZM109.931 12.3737V13.1519H110.709V12.3737H109.931ZM109.931 10.0967H110.709V9.31846H109.931V10.0967ZM116.283 40.2369L116.914 39.7812L115.505 37.8301V40.2369H116.283ZM116.283 50.9028H115.505V51.681H116.283V50.9028ZM123.234 50.9028H124.012V50.1245H123.234V50.9028ZM123.234 56.4155V57.1937H124.012V56.4155H123.234ZM68.7056 56.4155H67.9274V57.1937H68.7056V56.4155ZM68.7056 50.9028V50.1245H67.9274V50.9028H68.7056ZM75.7763 50.9028V51.681H76.5545V50.9028H75.7763ZM75.7763 41.7948H76.5545V39.813L75.206 41.2653L75.7763 41.7948ZM73.0199 44.1317L72.5074 44.7174L72.9495 45.1042L73.4427 44.7851L73.0199 44.1317ZM68.2263 39.9373L67.8259 39.2699L66.9099 39.8195L67.7138 40.523L68.2263 39.9373ZM74.6378 31.9079L74.9214 31.1831L74.18 30.893L73.9068 31.6408L74.6378 31.9079ZM80.1505 34.065L80.8782 34.341L81.1513 33.6209L80.4341 33.3403L80.1505 34.065ZM77.6937 39.2182L77.0352 38.8036L76.2841 39.9965H77.6937V39.2182ZM86.2624 39.2182V39.9965H87.07L87.0401 39.1894L86.2624 39.2182ZM85.064 33.0464L84.9422 32.2777L84.0353 32.4214L84.3257 33.2925L85.064 33.0464ZM91.116 32.0876L91.8418 31.8067L91.6149 31.2207L90.9942 31.319L91.116 32.0876ZM92.614 38.1396L92.7519 38.9056L93.4678 38.7767L93.3875 38.0537L92.614 38.1396ZM86.6219 39.2182L86.4841 38.4523L86.6219 39.9965V39.2182ZM99.9843 39.2182V39.9965H100.973L100.741 39.0356L99.9843 39.2182ZM97.5275 33.2861L97.3348 32.532L96.3486 32.7841L96.8504 33.6697L97.5275 33.2861ZM102.92 31.9079L103.113 32.6619L102.92 31.1296V31.9079ZM69.4846 31.9079H68.7063V32.6861H69.4846V31.9079ZM69.4846 26.8146V26.0364H68.7063V26.8146H69.4846ZM91.895 26.8146V27.5929H92.6732V26.8146H91.895ZM91.895 24.5376H92.6732V23.7594H91.895V24.5376ZM74.9973 24.5376H74.2191V25.3159H74.9973V24.5376ZM74.9973 19.744V18.9657H74.2191V19.744H74.9973ZM91.895 19.744V20.5222H92.6732V19.744H91.895ZM91.895 17.467H92.6732V16.6887H91.895V17.467ZM69.0651 17.467H68.2869V18.2452H69.0651V17.467ZM69.0651 12.3737V11.5954H68.2869V12.3737H69.0651ZM91.895 12.3737V13.1519H92.6732V12.3737H91.895ZM91.895 10.0967H92.6732V9.31846H91.895V10.0967ZM75.2969 10.0967H74.5187V10.8749H75.2969V10.0967ZM75.2969 5.30303V4.52479H74.5187V5.30303H75.2969ZM91.895 5.30303V6.08128H92.6732V5.30303H91.895ZM91.895 2.24707V1.46883H91.1167V2.24707H91.895ZM98.9656 2.24707H99.7439V1.46883H98.9656V2.24707ZM98.9656 5.30303H98.1874V6.08128H98.9656V5.30303ZM116.942 5.30303H117.72V4.52479H116.942V5.30303ZM116.942 12.3737H116.164V13.1519H116.942V12.3737ZM122.874 12.3737H123.652V11.5954H122.874V12.3737ZM122.874 17.467V18.2452H123.652V17.467H122.874ZM116.942 17.467V16.6887H116.164V17.467H116.942ZM116.942 24.5376V25.3159H117.72V24.5376H116.942ZM98.9656 24.5376V23.7594H98.1874V24.5376H98.9656ZM98.9656 26.8146H98.1874V27.5929H98.9656V26.8146ZM122.574 26.8146H123.353V26.0364H122.574V26.8146ZM122.574 31.9079V32.6861H123.353V31.9079H122.574ZM116.403 31.9079V31.1296H114.464L115.864 32.47L116.403 31.9079ZM123.833 40.4766L124.172 41.1771L124.944 40.8036L124.497 40.0714L123.833 40.4766ZM118.26 43.173L117.584 43.5591L117.945 44.1901L118.599 43.8735L118.26 43.173ZM81.6492 44.6111V50.9028H83.2057V44.6111H81.6492ZM82.4275 51.681H86.9815V50.1245H82.4275V51.681ZM87.7597 50.9028V44.6111H86.2032V50.9028H87.7597ZM86.9815 43.8328H82.4275V45.3893H86.9815V43.8328ZM98.1867 43.8328H93.4529V45.3893H98.1867V43.8328ZM92.6747 44.6111V50.9028H94.2312V44.6111H92.6747ZM93.4529 51.681H98.1867V50.1245H93.4529V51.681ZM98.9649 50.9028V44.6111H97.4084V50.9028H98.9649ZM114.665 31.1296H103.46V32.6861H114.665V31.1296ZM102.822 32.3542C104.02 34.0648 105.067 36.5591 105.53 38.121L107.022 37.6789C106.526 36.0051 105.416 33.3462 104.097 31.4616L102.822 32.3542ZM106.06 37.1524L101.506 38.4707L101.938 39.9658L106.492 38.6475L106.06 37.1524ZM101.722 39.9965H115.504V38.44H101.722V39.9965ZM116.115 38.7366C114.54 36.7371 112.725 34.6804 111.091 32.9855L109.97 34.0659C111.572 35.7267 113.352 37.7445 114.892 39.6998L116.115 38.7366ZM110.814 34.2505L114.948 32.6326L114.381 31.1831L110.247 32.801L110.814 34.2505ZM110.05 50.9028V44.6111H108.494V50.9028H110.05ZM109.272 43.8328H104.658V45.3893H109.272V43.8328ZM103.88 44.6111V50.9028H105.436V44.6111H103.88ZM104.658 51.681H109.272V50.1245H104.658V51.681ZM98.1874 17.467V19.744H99.7439V17.467H98.1874ZM98.9656 20.5222H109.931V18.9657H98.9656V20.5222ZM110.709 19.744V17.467H109.153V19.744H110.709ZM109.931 16.6887H98.9656V18.2452H109.931V16.6887ZM98.1874 10.0967V12.3737H99.7439V10.0967H98.1874ZM98.9656 13.1519H109.931V11.5954H98.9656V13.1519ZM110.709 12.3737V10.0967H109.153V12.3737H110.709ZM109.931 9.31846H98.9656V10.8749H109.931V9.31846ZM115.505 40.2369V50.9028H117.061V40.2369H115.505ZM116.283 51.681H123.234V50.1245H116.283V51.681ZM122.455 50.9028V56.4155H124.012V50.9028H122.455ZM123.234 55.6372H68.7056V57.1937H123.234V55.6372ZM69.4839 56.4155V50.9028H67.9274V56.4155H69.4839ZM68.7056 51.681H75.7763V50.1245H68.7056V51.681ZM76.5545 50.9028V41.7948H74.998V50.9028H76.5545ZM75.206 41.2653C74.4643 42.064 73.5541 42.8591 72.5971 43.4783L73.4427 44.7851C74.523 44.0861 75.5303 43.2034 76.3466 42.3244L75.206 41.2653ZM73.5324 43.546L68.7387 39.3516L67.7138 40.523L72.5074 44.7174L73.5324 43.546ZM68.6267 40.6046C71.801 38.7 74.1802 35.4279 75.3688 32.175L73.9068 31.6408C72.8184 34.6196 70.6436 37.5793 67.8259 39.2699L68.6267 40.6046ZM74.3542 32.6326L79.8669 34.7898L80.4341 33.3403L74.9214 31.1831L74.3542 32.6326ZM79.4228 33.789C78.771 35.5076 78.0135 37.2498 77.0352 38.8036L78.3523 39.6329C79.4113 37.9509 80.2118 36.0978 80.8782 34.341L79.4228 33.789ZM77.6937 39.9965H86.2624V38.44H77.6937V39.9965ZM87.0401 39.1894C86.9771 37.4874 86.4814 34.8375 85.8023 32.8003L84.3257 33.2925C84.9649 35.2101 85.4279 37.7133 85.4847 39.247L87.0401 39.1894ZM85.1858 33.815L91.2378 32.8563L90.9942 31.319L84.9422 32.2777L85.1858 33.815ZM90.3902 32.3686C91.0844 34.1619 91.668 36.6729 91.8405 38.2256L93.3875 38.0537C93.2005 36.3707 92.5857 33.7284 91.8418 31.8067L90.3902 32.3686ZM92.4762 37.3737L86.4841 38.4523L86.7598 39.9841L92.7519 38.9056L92.4762 37.3737ZM86.6219 39.9965H99.9843V38.44H86.6219V39.9965ZM100.741 39.0356C100.3 37.2094 99.2484 34.7444 98.2046 32.9024L96.8504 33.6697C97.8439 35.423 98.8297 37.7516 99.2278 39.4008L100.741 39.0356ZM97.7202 34.0401L103.113 32.6619L102.728 31.1539L97.3348 32.532L97.7202 34.0401ZM102.92 31.1296H69.4846V32.6861H102.92V31.1296ZM70.2628 31.9079V26.8146H68.7063V31.9079H70.2628ZM69.4846 27.5929H91.895V26.0364H69.4846V27.5929ZM92.6732 26.8146V24.5376H91.1167V26.8146H92.6732ZM91.895 23.7594H74.9973V25.3159H91.895V23.7594ZM75.7756 24.5376V19.744H74.2191V24.5376H75.7756ZM74.9973 20.5222H91.895V18.9657H74.9973V20.5222ZM92.6732 19.744V17.467H91.1167V19.744H92.6732ZM91.895 16.6887H69.0651V18.2452H91.895V16.6887ZM69.8434 17.467V12.3737H68.2869V17.467H69.8434ZM69.0651 13.1519H91.895V11.5954H69.0651V13.1519ZM92.6732 12.3737V10.0967H91.1167V12.3737H92.6732ZM91.895 9.31846H75.2969V10.8749H91.895V9.31846ZM76.0752 10.0967V5.30303H74.5187V10.0967H76.0752ZM75.2969 6.08128H91.895V4.52479H75.2969V6.08128ZM92.6732 5.30303V2.24707H91.1167V5.30303H92.6732ZM91.895 3.02532H98.9656V1.46883H91.895V3.02532ZM98.1874 2.24707V5.30303H99.7439V2.24707H98.1874ZM98.9656 6.08128H116.942V4.52479H98.9656V6.08128ZM116.164 5.30303V12.3737H117.72V5.30303H116.164ZM116.942 13.1519H122.874V11.5954H116.942V13.1519ZM122.096 12.3737V17.467H123.652V12.3737H122.096ZM122.874 16.6887H116.942V18.2452H122.874V16.6887ZM116.164 17.467V24.5376H117.72V17.467H116.164ZM116.942 23.7594H98.9656V25.3159H116.942V23.7594ZM98.1874 24.5376V26.8146H99.7439V24.5376H98.1874ZM98.9656 27.5929H122.574V26.0364H98.9656V27.5929ZM121.796 26.8146V31.9079H123.353V26.8146H121.796ZM122.574 31.1296H116.403V32.6861H122.574V31.1296ZM115.864 32.47C118.671 35.1573 121.725 38.5154 123.168 40.8817L124.497 40.0714C122.944 37.5242 119.767 34.0513 116.941 31.3457L115.864 32.47ZM123.494 39.776L117.921 42.4724L118.599 43.8735L124.172 41.1771L123.494 39.776ZM118.936 42.7869C118.433 41.9062 117.689 40.8548 116.914 39.7812L115.652 40.6925C116.434 41.7761 117.129 42.7619 117.584 43.5591L118.936 42.7869Z" fill="black" mask="url(#path-1-outside-1_11_25253)"/>
</svg>
