<svg width="336" height="75" viewBox="0 0 336 75" fill="none" xmlns="http://www.w3.org/2000/svg">
<path d="M50.5219 47.0584H20.8789V50.6001H50.5219V47.0584ZM20.8789 62.7653H50.5219V58.9156H20.8789V62.7653ZM9.63772 74.3915V37.896H62.3021V74.3915H50.5219V71.9277H20.8789V74.3915H9.63772ZM45.8252 16.7995H25.4986C26.8075 19.1863 27.8855 22.0351 28.5014 24.3449H43.5924C44.4393 22.0351 45.2863 19.1863 45.8252 16.7995ZM55.7576 24.3449H70.3865V34.2772H0.706335V24.3449H16.2593C15.6433 22.2661 14.7964 19.9562 13.8724 18.1084L20.8789 16.7995H4.94104V6.94413H29.9643C29.3484 5.17325 28.6554 3.32538 27.8855 1.86248L39.6657 0.168594C40.8976 2.17045 41.9755 4.71128 42.6685 6.94413H66.9988V16.7995H51.8308L58.6834 18.1854L55.7576 24.3449ZM107.026 54.4499L116.111 57.8376C110.876 64.4592 102.483 69.8488 93.1667 72.3126C91.5498 69.5408 88.2391 65.2291 85.8522 63.0733C94.3986 61.6104 102.714 58.4536 107.026 54.4499ZM158.689 52.371H129.585V74.0065H118.344V52.371H88.3161V43.2856H118.344V40.0519H129.585V43.2856H158.689V52.371ZM132.819 60.3015L139.518 53.3719C145.6 56.5287 154.532 61.5334 158.997 65.0751L151.76 72.9286C147.756 69.3098 139.133 63.8432 132.819 60.3015ZM146.832 32.5834L150.99 32.2754C150.759 31.1205 150.528 29.9655 150.297 28.8876C149.142 30.1965 147.987 31.4284 146.832 32.5834ZM134.898 19.7252V33.1223C136.592 32.6604 137.978 31.3514 139.903 29.3496C140.672 28.5796 141.981 26.9628 143.598 24.8839C139.518 25.4229 138.132 25.8848 137.131 26.3468C136.746 24.8839 135.822 21.9581 134.898 19.7252ZM125.12 19.1863V15.4905H121.732V19.1863H125.12ZM125.12 30.4275V26.6548H121.732V30.4275H125.12ZM99.6343 32.0444L103.792 31.6594C103.561 30.4275 103.33 29.2726 103.099 28.1177C101.944 29.5036 100.789 30.8125 99.6343 32.0444ZM151.683 27.3477L156.918 26.1158C158.15 30.5815 159.305 36.4331 159.844 40.2828L152.53 42.1307C152.453 41.2838 152.376 40.2828 152.222 39.2819C141.288 40.3598 139.056 40.8218 137.516 41.5148C137.054 39.9749 135.899 36.1251 134.898 33.7383V38.435H112.338V15.4905C110.029 19.2633 107.257 23.113 104.331 26.7318L109.798 25.4999C110.953 29.9655 112.03 35.7401 112.492 39.6669L105.178 41.4378C105.101 40.5138 105.024 39.5129 104.87 38.435C94.0907 39.8979 91.8578 40.4368 90.3949 41.2068C90.01 39.5129 88.624 35.3552 87.6231 33.1223C89.317 32.7374 90.7799 31.3514 92.7048 29.1956C93.3977 28.4256 94.7066 26.8858 96.2465 24.8069C92.7818 25.2689 91.5498 25.6538 90.7029 26.1158C90.2409 24.4219 88.855 20.4182 87.9311 18.2624C89.086 17.9544 90.1639 16.8764 91.2419 15.2596C92.3198 13.7197 95.5536 7.94506 97.1705 2.24745L105.717 5.17325C103.946 9.25397 101.405 13.6427 98.7873 17.3384L101.328 17.1074C102.56 15.1056 103.715 13.0267 104.639 10.9479L112.338 15.2596V7.48309H118.575C119.114 5.09626 119.576 2.47843 119.73 0.476573L129.662 2.09346L127.275 7.48309H134.898V18.0314C135.822 17.5694 136.746 16.5685 137.593 15.2596C138.671 13.7197 141.904 7.94506 143.598 2.24745L152.53 4.71128C150.759 8.94599 148.218 13.3347 145.6 17.1074L149.219 16.7995C150.374 14.9516 151.375 13.1037 152.299 11.2558L160.306 15.7985C157.842 19.6483 154.839 23.652 151.683 27.3477ZM211.959 41.8997H199.409C199.332 42.5927 199.255 43.2856 199.101 43.9016C203.182 48.0593 211.189 57.2217 213.191 59.6855L205.646 69.1559C203.182 65.1521 199.486 59.9165 196.021 55.3738C193.327 62.4573 189.015 69.0789 182.239 74.0835C180.776 71.7737 176.465 67.231 174.232 65.6141C183.24 59.0695 186.782 50.2921 188.091 41.8997H175.541V31.3514H188.938V20.9572H187.475C186.012 24.4989 184.395 27.6557 182.701 30.1965C180.699 28.3487 176.234 25.1919 173.77 23.729C177.697 18.4163 180.468 9.71594 181.854 1.24652L192.557 3.40237C192.095 5.78921 191.556 8.25304 190.863 10.6399H210.265V20.9572H200.256V31.3514H211.959V41.8997ZM224.586 56.2977H232.902V18.2624H224.586V56.2977ZM213.73 7.79107H244.297V70.8497H232.902V66.769H224.586V72.0817H213.73V7.79107ZM266.461 43.9016V35.5862H285.941V43.9016H266.461ZM285.941 24.9609V33.2763H266.461V24.9609H285.941ZM278.242 54.9118H274.238V61.6874H278.242V54.9118ZM286.095 46.4424V70.1568H274.238V73.1596H266.538V46.4424H286.095ZM281.244 11.8718L276.163 13.9506H287.173V22.651H264.228V13.9506H272.621C271.851 11.1018 270.311 7.3291 268.925 4.32631L276.702 1.40051C278.473 4.63428 280.474 9.09998 281.244 11.8718ZM298.029 56.4517H302.726V52.987H298.029V56.4517ZM302.726 42.3617H298.029V45.7495H302.726V42.3617ZM301.417 16.4915H297.105C297.798 18.7243 298.337 21.5731 298.645 23.729H300.262C300.724 21.4191 301.186 18.6473 301.417 16.4915ZM326.209 34.2772L334.602 38.589C332.446 45.5955 329.366 51.832 325.824 57.2987C326.363 59.6855 326.825 60.9944 327.287 60.9944C328.134 60.9174 328.673 57.9146 328.904 52.294C330.444 54.5269 334.448 57.5297 335.988 58.5306C333.832 71.2347 329.751 73.6985 326.979 73.6985C323.745 73.7755 321.128 71.0037 319.049 66.0761C316.046 69.3098 312.889 72.0047 309.655 74.1605C308.346 72.3896 305.498 69.6178 303.419 68.1549C304.728 67.308 305.96 66.384 307.192 65.3831H302.726V63.6892H298.029V69.3868H289.252V35.0472H311.734V61.1484C313.274 59.5315 314.737 57.7606 316.123 55.7588C314.891 49.5222 313.967 41.8227 313.274 33.0453H287.327V23.729H290.792C290.561 21.7271 290.099 19.4173 289.637 17.4924L295.642 16.4915H288.174V8.09905H295.334C294.795 6.40516 294.025 4.63428 293.332 3.09439L301.802 0.784552C302.957 3.0174 304.266 5.8662 305.036 8.09905H310.733V16.4915H304.189L309.732 17.2614C308.962 19.5713 308.346 21.8041 307.808 23.729H312.658C312.273 16.7995 312.042 9.25397 311.888 1.32351H321.667C321.667 3.63336 321.744 6.02019 321.744 8.33003L328.981 5.48123C331.06 9.79293 333.678 15.5675 334.679 19.1093L326.132 22.805C325.439 19.6483 323.591 14.7976 321.821 10.5629C321.898 15.1056 322.129 19.4943 322.36 23.729H335.218V33.0453H322.898C323.206 36.1251 323.437 39.1279 323.668 41.8227C324.669 39.4359 325.516 36.8951 326.209 34.2772Z" fill="#FF5D47"/>
</svg>
