<svg width="164" height="137" viewBox="0 0 164 137" fill="none" xmlns="http://www.w3.org/2000/svg">
<path d="M102.067 37.4893L105.83 16.8311C98.8831 8.09591 85.2783 4.34363 79.3442 3.55939C56.027 0.722559 44.5991 3.90149 26.7926 16.2216C8.51591 31.1238 1.29785 47.5748 1.89087 74.8273C5.36684 97.2481 13.4921 113.035 35.2911 125.82C46.6363 131.888 67.3767 136.936 86.8595 130.764C109.77 122.34 119.7 112.609 129.261 90.6288C130.372 88.0731 131.142 85.3768 131.641 82.6349L137.866 48.4551C148.732 44.4385 154.012 41.1136 161.621 32.7719C163.897 28.9258 163.652 27.3861 160.214 25.8459C155.793 26.4265 153.043 26.1422 147.576 24.4337C136.278 19.2891 133.024 14.6093 129.818 4.74762C127.433 0.755844 120.585 1.73205 119.566 7.32709L107.19 75.2875C106.82 77.3192 106.309 79.3272 105.581 81.2596C102.5 89.4368 99.3319 94.399 92.5026 99.7773C71.9777 112.253 47.8285 105.635 38.8646 97.287C25.3694 82.8892 25.3035 69.2898 29.1684 54.4497C35.8024 38.2303 44.5516 30.5037 63.7253 28.2834C76.0485 26.8564 84.8057 29.756 94.3592 38.3087C97.9901 41.0584 99.6429 40.6999 102.067 37.4893Z" fill="#FF5D47"/>
<rect x="39.8256" y="55.3308" width="18.2381" height="27.3571" rx="9.11904" fill="#191C1F"/>
<rect x="73.262" y="55.3308" width="18.2381" height="27.3571" rx="9.11904" fill="#191C1F"/>
</svg>
