<svg width="167" height="26" viewBox="0 0 167 26" fill="none" xmlns="http://www.w3.org/2000/svg">
<path d="M3.76406 25.6182C1.3972 25.6182 -0.293914 23.3274 0.403234 21.0655L5.72615 3.79561C6.29642 1.94539 8.00633 0.683129 9.94245 0.683129H12.6511C14.5872 0.683129 16.2971 1.94539 16.8674 3.79562L22.1903 21.0655C22.8874 23.3274 21.1963 25.6182 18.8295 25.6182C17.2135 25.6182 15.8055 24.517 15.4162 22.9486L11.3391 6.52309C11.3343 6.50361 11.3168 6.48993 11.2968 6.48993C11.2767 6.48993 11.2592 6.50361 11.2544 6.52309L7.17733 22.9486C6.78803 24.517 5.38003 25.6182 3.76406 25.6182ZM7.45402 21.0069C5.89768 21.0069 4.63601 19.7453 4.63601 18.1889C4.63601 16.6326 5.89768 15.3709 7.45402 15.3709H15.1395C16.6958 15.3709 17.9575 16.6326 17.9575 18.1889C17.9575 19.7453 16.6958 21.0069 15.1395 21.0069H7.45402Z" fill="#FF5D47"/>
<path d="M29.9072 25.6182C28.0208 25.6182 26.4915 24.0889 26.4915 22.2025V4.0989C26.4915 2.21242 28.0208 0.683129 29.9072 0.683129C31.7937 0.683129 33.323 2.21242 33.323 4.0989V22.2025C33.323 24.0889 31.7937 25.6182 29.9072 25.6182Z" fill="#FF5D47"/>
<path d="M49.7744 25.6182C47.7919 25.6182 46.2554 23.8853 46.4927 21.9171L48.5842 4.56713C48.8513 2.35071 50.732 0.683129 52.9645 0.683129H53.6411C55.7407 0.683129 57.5494 2.16272 57.9656 4.22065L60.3518 16.0206C60.3557 16.0401 60.3728 16.0541 60.3927 16.0541C60.4126 16.0541 60.4297 16.0401 60.4336 16.0206L62.8199 4.22065C63.236 2.16272 65.0448 0.683129 67.1443 0.683129H67.821C70.0534 0.683129 71.9341 2.3507 72.2013 4.56712L74.2928 21.9171C74.53 23.8853 72.9935 25.6182 71.0111 25.6182C69.2662 25.6182 67.8219 24.2621 67.7121 22.5207L66.9192 9.94267C66.9179 9.92189 66.9006 9.9057 66.8798 9.9057C66.8615 9.9057 66.8456 9.91831 66.8414 9.93615L64.5874 19.5599C64.1311 21.508 62.3936 22.8856 60.3927 22.8856C58.3918 22.8856 56.6543 21.508 56.198 19.5599L53.944 9.93615C53.9399 9.91831 53.924 9.9057 53.9056 9.9057C53.8848 9.9057 53.8676 9.92188 53.8663 9.94266L53.0733 22.5207C52.9635 24.2621 51.5192 25.6182 49.7744 25.6182Z" fill="#191C1F"/>
<path d="M83.1782 25.9598C81.1059 25.9598 79.6144 25.3564 78.7035 24.1495C77.8154 22.9198 77.3714 20.9045 77.3714 18.1035V11.2037C77.3714 9.35494 78.8701 7.85624 80.7188 7.85624C82.5676 7.85624 84.0663 9.35494 84.0663 11.2037V16.7372C84.0663 18.058 84.2143 19.0144 84.5103 19.6065C84.8064 20.1985 85.2732 20.4946 85.9108 20.4946C86.389 20.4946 86.8103 20.3693 87.1746 20.1188C87.5617 19.8684 87.8691 19.5382 88.0969 19.1283C88.3246 18.7184 88.4384 18.2629 88.4384 17.762V11.2037C88.4384 9.35495 89.9371 7.85624 91.7859 7.85624C93.6346 7.85624 95.1333 9.35495 95.1333 11.2037V22.3962C95.1333 24.1757 93.6908 25.6182 91.9113 25.6182H89.976C89.31 25.6182 88.7649 25.0884 88.7459 24.4227L88.713 23.2728C88.7123 23.2474 88.6915 23.2272 88.6661 23.2272C88.6518 23.2272 88.6381 23.2338 88.6292 23.2451C87.8593 24.215 87.0556 24.9149 86.2182 25.345C85.3984 25.7549 84.3851 25.9598 83.1782 25.9598Z" fill="#191C1F"/>
<path d="M105.845 25.9598C104.479 25.9598 103.136 25.8459 101.815 25.6182C101.216 25.5026 100.648 25.3676 100.112 25.2131C99.0596 24.9099 98.4723 23.8413 98.6272 22.7572C98.8445 21.2361 100.402 20.3072 101.895 20.6734C102.131 20.7314 102.366 20.7856 102.6 20.8362C103.785 21.0639 104.843 21.1777 105.777 21.1777C106.415 21.1777 106.847 21.1094 107.075 20.9728C107.326 20.8134 107.451 20.5515 107.451 20.1872C107.451 20.005 107.405 19.857 107.314 19.7431C107.223 19.6065 107.041 19.4926 106.768 19.4015C106.517 19.3104 106.13 19.208 105.606 19.0941C103.876 18.6615 102.464 18.1719 101.371 17.6253C100.3 17.056 99.5035 16.3843 98.9797 15.61C98.4787 14.8358 98.2282 13.9363 98.2282 12.9116C98.2282 11.1354 98.9228 9.79184 100.312 8.88097C101.724 7.9701 103.796 7.51466 106.529 7.51466C107.758 7.51466 108.942 7.61714 110.081 7.82208C110.654 7.92518 111.241 8.05997 111.842 8.22645C112.919 8.52446 113.554 9.60469 113.396 10.7108C113.184 12.1966 111.659 13.0916 110.196 12.757C110.008 12.7139 109.821 12.6744 109.637 12.6383C108.589 12.4106 107.633 12.2967 106.768 12.2967C106.153 12.2967 105.709 12.3651 105.436 12.5017C105.185 12.6155 105.06 12.8319 105.06 13.1507C105.06 13.3329 105.117 13.4923 105.231 13.6289C105.344 13.7655 105.538 13.8908 105.811 14.0046C106.085 14.0957 106.46 14.1982 106.938 14.312C108.191 14.6081 109.273 14.9496 110.183 15.3368C111.117 15.7239 111.88 16.1679 112.472 16.6689C113.087 17.1471 113.542 17.705 113.838 18.3426C114.134 18.9575 114.282 19.6406 114.282 20.3921C114.282 22.1455 113.542 23.5118 112.062 24.491C110.582 25.4702 108.51 25.9598 105.845 25.9598Z" fill="#191C1F"/>
<path d="M117.59 3.76716C117.59 2.09501 118.859 0.691886 120.527 0.580655C121.552 0.51234 122.531 0.45541 123.465 0.409867C124.421 0.364324 125.218 0.341553 125.856 0.341553C129.704 0.341553 132.585 1.12718 134.498 2.69843C136.434 4.26968 137.401 6.61518 137.401 9.73491C137.401 12.7636 136.502 15.0863 134.703 16.7031C132.904 18.3199 130.308 19.1283 126.915 19.1283C126.141 19.1283 125.23 19.0941 124.182 19.0258C123.894 19.0002 123.603 18.9719 123.31 18.9408C121.983 18.8007 121.006 17.6612 121.006 16.3277V15.9052C121.006 14.4768 122.282 13.3877 123.704 13.5264C124.638 13.6175 125.412 13.663 126.027 13.663C127.53 13.663 128.634 13.3442 129.34 12.7066C130.046 12.069 130.399 11.0784 130.399 9.73491C130.399 8.39138 130.046 7.4008 129.34 6.76319C128.634 6.12558 127.53 5.80678 126.027 5.80678C125.458 5.80678 124.763 5.85232 123.943 5.94341C123.884 5.9485 123.824 5.95385 123.764 5.95945C122.991 6.03138 122.497 5.08411 123.034 4.5233C123.536 3.99878 124.421 4.35425 124.421 5.08042V22.2025C124.421 24.0889 122.892 25.6182 121.006 25.6182C119.119 25.6182 117.59 24.0889 117.59 22.2025V3.76716Z" fill="#191C1F"/>
<path d="M143.427 25.9598C141.765 25.9598 140.433 25.4702 139.431 24.491C138.452 23.4891 137.962 22.1569 137.962 20.4946C137.962 18.5362 138.736 17.0219 140.285 15.9516C141.833 14.8813 144.019 14.3462 146.843 14.3462H146.902C147.888 14.3462 148.873 13.3183 148.073 12.7408C147.686 12.4448 146.98 12.2967 145.955 12.2967C144.885 12.2967 143.792 12.4334 142.676 12.7066C142.547 12.7363 142.417 12.7678 142.288 12.8012C140.803 13.1855 139.166 12.3327 138.939 10.8155C138.786 9.79513 139.332 8.78415 140.312 8.46147C141.036 8.22323 141.767 8.03287 142.505 7.8904C143.826 7.63991 145.283 7.51466 146.877 7.51466C148.972 7.51466 150.635 7.74238 151.864 8.19782C153.117 8.63048 154.016 9.34779 154.563 10.3497C155.109 11.3517 155.383 12.6839 155.383 14.3462V22.3886C155.383 24.1723 153.937 25.6182 152.153 25.6182H150.055C149.483 25.6182 149.014 25.1649 148.995 24.5935L148.962 23.6153C148.962 23.5893 148.94 23.5688 148.914 23.5688C148.901 23.5688 148.887 23.5747 148.878 23.5851C148.221 24.3288 147.417 24.9154 146.467 25.345C145.511 25.7549 144.498 25.9598 143.427 25.9598ZM146.023 21.3485C146.57 21.3485 147.037 21.2688 147.424 21.1094C147.834 20.9272 148.141 20.6881 148.346 20.3921C148.574 20.0733 148.688 19.709 148.688 19.2991V18.7525C148.688 18.2998 148.321 17.9328 147.868 17.9328C146.524 17.9328 145.534 18.0808 144.896 18.3768C144.281 18.6728 143.974 19.151 143.974 19.8114C143.974 20.3124 144.145 20.6995 144.486 20.9728C144.851 21.2233 145.363 21.3485 146.023 21.3485Z" fill="#191C1F"/>
<path d="M162.611 25.6182C160.724 25.6182 159.195 24.0889 159.195 22.2025V4.09889C159.195 2.21242 160.724 0.683129 162.611 0.683129C164.497 0.683129 166.027 2.21242 166.027 4.09889V22.2025C166.027 24.0889 164.497 25.6182 162.611 25.6182Z" fill="#191C1F"/>
</svg>
